<svg id="Layer_1" data-name="Layer 1" xmlns="http://www.w3.org/2000/svg" viewBox="0 0 118 150">
  <defs>
    <style>
      .cls-1 {
        fill: #55e6c1;
      }
    </style>
  </defs>
  <g>
    <g>
      <path class="cls-1" d="M80.14,46.562A28.655,28.655,0,0,1,98.519,53.24a.891.891,0,1,0,1.145-1.366A30.442,30.442,0,0,0,80.14,44.78a31.107,31.107,0,0,0-3.258.177c.046.593.1,1.185.138,1.779A28.785,28.785,0,0,1,80.14,46.562Z"/>
      <path class="cls-1" d="M102.2,54.262a.891.891,0,0,0-1.293,1.226h0a28.622,28.622,0,0,1-24.869,48.037c-.009.6-.011,1.2-.016,1.8A30.411,30.411,0,0,0,102.2,54.262Z"/>
      <path class="cls-1" d="M80.14,72.333A2.859,2.859,0,1,0,83,75.192h0A2.863,2.863,0,0,0,80.14,72.333Zm0,3.936a1.077,1.077,0,1,1,1.077-1.077h0A1.077,1.077,0,0,1,80.14,76.269Z"/>
      <path class="cls-1" d="M80.14,56.589a18.6,18.6,0,0,0-2.739.2c.008.6.022,1.2.026,1.8a16.774,16.774,0,0,1,2.713-.222.891.891,0,0,0,0-1.782Z"/>
      <path class="cls-1" d="M80.14,93.8a18.625,18.625,0,0,0,18.6-18.6.891.891,0,1,0-1.782,0h0A16.841,16.841,0,0,1,80.14,92.014a.891.891,0,0,0,0,1.782Z"/>
      <path class="cls-1" d="M96.533,94.857a.892.892,0,0,0,1.258.069,26.517,26.517,0,0,0,8.825-19.734.891.891,0,0,0-1.782,0A24.738,24.738,0,0,1,96.6,93.6.891.891,0,0,0,96.533,94.857Z"/>
      <path class="cls-1" d="M101.789,74.3a.892.892,0,0,0-.891.891A20.749,20.749,0,0,1,88.317,94.278a.891.891,0,0,0,.7,1.639h0a22.529,22.529,0,0,0,13.66-20.724.892.892,0,0,0-.891-.891Z"/>
      <path class="cls-1" d="M80.14,64.461a10.7,10.7,0,0,0-2.751.371c-.009.62-.016,1.239-.029,1.859a8.949,8.949,0,1,1-.612,16.779q-.042.933-.083,1.865A10.727,10.727,0,1,0,80.14,64.461Z"/>
      <path class="cls-1" d="M80.14,60.525a14.635,14.635,0,0,0-2.715.256c0,.607,0,1.213,0,1.82a12.887,12.887,0,1,1-.855,24.962q-.041.919-.078,1.837A14.669,14.669,0,1,0,80.14,60.525Z"/>
      <path class="cls-1" d="M85.06,76.072H87a.832.832,0,0,0,.918-.728.892.892,0,0,0-.773-1c-.037,0-.074-.007-.112.3H85.094c-.458-.309-.85.024-.918.477a.892.892,0,0,0,.773,1A.1.1,0,0,0,85.06,76.072Z"/>
    </g>
    <g>
      <path class="cls-1" d="M12.236,43.94a1.93,1.93,0,0,0-1.93,1.929h0V104.39a1.6,1.6,0,0,0,1.911,1.7H24.688a1.578,1.578,0,0,1,.768,2.751.652.652,0,0,1-.3.107H8.826a1.377,1.377,0,0,1-1.378-1.377V45.627a4.573,4.573,0,0,1,4.573-4.573h58.73a4.594,4.594,0,0,1,4.588,4.588v58.73a4.573,4.573,0,0,1-4.573,4.573H35.152a1.418,1.418,0,0,1-1.335-1.489,1.532,1.532,0,0,1,.345-.955.937.937,0,0,1,.777-.414H71.107a1.373,1.373,0,0,0,1.373-1.373h0V45.836a1.923,1.923,0,0,0-1.923-1.923h.181"/>
      <path class="cls-1" d="M61.433,46.772H55.554A1.458,1.458,0,0,0,54.1,47.989a1.43,1.43,0,0,0,1.2,1.626,1.487,1.487,0,0,0,.211.015h5.878a1.458,1.458,0,0,0,1.458-1.217,1.43,1.43,0,0,0-1.2-1.626A1.5,1.5,0,0,0,61.433,46.772Z"/>
      <path class="cls-1" d="M65.119,46.772H65.1a1.458,1.458,0,0,0-1.458,1.217,1.43,1.43,0,0,0,1.2,1.626,1.487,1.487,0,0,0,.211.015h.023a1.46,1.46,0,0,0,1.459-1.217,1.431,1.431,0,0,0-1.2-1.626A1.5,1.5,0,0,0,65.119,46.772Z"/>
      <path class="cls-1" d="M31.283,106.087h-.024A1.458,1.458,0,0,0,29.8,107.3,1.43,1.43,0,0,0,31,108.93a1.487,1.487,0,0,0,.211.015h.023a1.459,1.459,0,0,0,1.459-1.217,1.431,1.431,0,0,0-1.2-1.626A1.5,1.5,0,0,0,31.283,106.087Z"/>
    </g>
    <path class="cls-1" d="M33.092,74.837a2.713,2.713,0,0,0-2.713-2.713h-2.3a2.785,2.785,0,0,0-.344.024,15.708,15.708,0,0,1,1.921-4.04,3.417,3.417,0,0,0,4.275-.36,10.813,10.813,0,0,1,7.532-2.979,11,11,0,0,1,5.162,1.269A9.044,9.044,0,0,1,48.305,67c.23.185.454.378.67.583a3.5,3.5,0,0,0,2.134.971,3.4,3.4,0,0,0,2.178-.579,15.691,15.691,0,0,1,1.923,4.044,2.8,2.8,0,0,0-.344-.025H50.843A1.043,1.043,0,0,0,49.8,73.034V87.411a.4.4,0,0,0,.125.291,1.042,1.042,0,0,0,1.864-.609V74.705a.725.725,0,0,1,.724-.725h2.272a.72.72,0,0,1,.7.573l0,.023a.69.69,0,0,1,.013.13V92.88a.7.7,0,0,1-.017.153l-.006.023a.717.717,0,0,1-.694.549H52.513a.724.724,0,0,1-.724-.724V91.855a1.012,1.012,0,0,0-.774-1,1,1,0,0,0-1.215.971v1.055a2.713,2.713,0,0,0,2.713,2.713h2.3a2.711,2.711,0,0,0,2.318-1.311,9.708,9.708,0,0,0,8.945-9.678,11.286,11.286,0,0,0-3.38-8.077,22.266,22.266,0,0,0-11.383-19.31,26.276,26.276,0,0,0-6.6-2.276,20.515,20.515,0,0,0-9.057.566c.2-.2-8.4,2.519-12.284,9.626a22.643,22.643,0,0,0-3.205,11.395,12.516,12.516,0,0,0-3.379,8.076,9.515,9.515,0,0,0,2.805,6.827,9.643,9.643,0,0,0,6.139,2.851,2.712,2.712,0,0,0,2.318,1.311h2.328a2.712,2.712,0,0,0,2.713-2.713ZM25.4,92.277a7.756,7.756,0,0,1-6.561-7.632,9.319,9.319,0,0,1,1.235-4.651.955.955,0,0,0,.094-.158,9.257,9.257,0,0,1,1.642-2.025.963.963,0,0,0,.164-.148A9.278,9.278,0,0,1,25.4,75.741Zm5.7-13.359V92.881a.724.724,0,0,1-.724.724H28.107a.718.718,0,0,1-.69-.531.315.315,0,0,0-.011-.044.748.748,0,0,1-.015-.15V74.706a.712.712,0,0,1,.011-.123l.006-.034a.719.719,0,0,1,.7-.569h2.272a.725.725,0,0,1,.724.725ZM51.339,66.642a1.419,1.419,0,0,1-.984-.395,13,13,0,0,0-17.815,0,1.424,1.424,0,0,1-1.685.209A14.989,14.989,0,0,1,31.972,65.3a13.809,13.809,0,0,1,18.951,0,15.021,15.021,0,0,1,1.118,1.153A1.418,1.418,0,0,1,51.339,66.642ZM54.2,65.95a.826.826,0,0,0-.068-.088,17.005,17.005,0,0,0-1.86-2.02,15.8,15.8,0,0,0-21.649,0,17.005,17.005,0,0,0-1.86,2.02.952.952,0,0,0-.069.088,17.707,17.707,0,0,0-3.408,7.745,11.267,11.267,0,0,0-3.034,1.27c.912-10.226,9.172-18.258,19.2-18.258s18.283,8.032,19.2,18.258a11.28,11.28,0,0,0-3.034-1.27A17.692,17.692,0,0,0,54.2,65.95Zm3.291,26.327V75.741a9.281,9.281,0,0,1,3.425,1.922,1.063,1.063,0,0,0,.165.149,9.3,9.3,0,0,1,2.971,6.833A7.756,7.756,0,0,1,57.491,92.277Z"/>
  </g>
</svg>
