<svg id="Layer_1" data-name="Layer 1" xmlns="http://www.w3.org/2000/svg" viewBox="0 0 118 150">
  <defs>
    <style>
      .cls-1 {
        fill: #55e6c1;
      }
    </style>
  </defs>
  <g id="_000000ff" data-name="#000000ff">
    <path class="cls-1" d="M8.068,36.866a7.482,7.482,0,0,1,7.139-6.8q6.4-.095,12.816,0A1.472,1.472,0,0,1,29.4,32.282c-.442.788-1.437.693-2.2.733-3.863,0-7.731-.051-11.6,0a4.423,4.423,0,0,0-4.508,4.15c-.127,2.67,0,5.344-.044,8.018q47.946,0,95.9,0c-.064-2.792.131-5.6-.088-8.384a4.507,4.507,0,0,0-4.846-3.8c-21.623.016-43.245-.028-64.867.02-1.086-.059-2.694.267-3.171-1.02-.45-1.166.8-2.154,1.914-1.961q33.257,0,66.513.012a7.546,7.546,0,0,1,7.529,6.745V88.4c-.474.579-1.106,1.248-1.946.949-.911-.284-1.082-1.276-1.05-2.087.023-13.038,0-26.072.012-39.11h-95.9q.012,32.143.016,64.288a4.466,4.466,0,0,0,4.529,4.552q43.206.066,86.417.02a4.752,4.752,0,0,0,4.006-1.756c.932-1.123.935-2.647.943-4.021-.039-5.119,0-10.242-.031-15.361-.028-.855.075-1.965,1.066-2.241.812-.331,1.436.37,1.934.894v18.6a7.543,7.543,0,0,1-7.56,6.836q-41.769.054-83.54.02c-1.994-.031-4.067.189-5.973-.508a7.613,7.613,0,0,1-4.791-6.155Z"/>
    <path class="cls-1" d="M80.188,37.315a2.434,2.434,0,1,1-.382,4.107A2.425,2.425,0,0,1,80.188,37.315Z"/>
    <path class="cls-1" d="M88.234,37.449a2.433,2.433,0,1,1,.37,4.268A2.429,2.429,0,0,1,88.234,37.449Z"/>
    <path class="cls-1" d="M96.9,37.252a2.434,2.434,0,1,1-.66,4.068A2.425,2.425,0,0,1,96.9,37.252Z"/>
    <path class="cls-1" d="M56.545,51.707c1.659-1.586,4.222-1.405,6.3-.933a18.238,18.238,0,0,1,11.889,9.979,10.3,10.3,0,0,1,7.385,2.358A16.285,16.285,0,0,1,87.8,72.416,6.081,6.081,0,0,1,85.711,78.6c-2.614,1.87-6.044,1.709-9.1,1.425Q76.03,81.31,75.453,82.6c1.831,1.52,3.729,2.969,5.523,4.532a4.926,4.926,0,0,1,.935,6.226,2.778,2.778,0,0,1-3.64.771c-1.958-1.027-3.884-2.224-6.108-2.583-2.384-.575-5.086.276-7.246-1.122a6.025,6.025,0,0,1-2.6-3.946,40.776,40.776,0,0,0-10.219.473,35.955,35.955,0,0,1-1.671,3.2,7.5,7.5,0,0,1-7.978,3.107c-1.066-.276-2.109-.646-3.151-.992a14.025,14.025,0,0,1-.342,4.331,5.265,5.265,0,0,1-5.416,3.395A2.384,2.384,0,0,1,31.6,97.476c-.012-3.819-.036-7.643.012-11.462a3.4,3.4,0,0,1,3.3-3.214c-.426-.441-.844-.886-1.266-1.331-3.887-.445-7.536-4.772-5.865-8.616,2.137-3.65,8.078-3.67,10.744-.571a40.166,40.166,0,0,1,25-5.351,60.053,60.053,0,0,0-9.355-4.111c-1.567-.662-3.414-1.17-4.42-2.642a2.817,2.817,0,0,1,.609-3.544c1.448-1.418,3.557-1.745,5.5-1.926a3.071,3.071,0,0,1,.688-3m2.169,1.926a8.328,8.328,0,0,1,1.85,2.142,1.667,1.667,0,0,1-1.942,2.048c-2.133-.2-4.445-.335-6.315.906a41.012,41.012,0,0,0,5.376,2.248A69.767,69.767,0,0,1,66.8,65.313c.919.508,2.2.956,2.292,2.181,0,1.146-.406,2.686-1.743,2.914-1.341.008-2.642-.386-3.971-.508A36.684,36.684,0,0,0,39.61,75.126a2.206,2.206,0,0,1-2.5.283c-.867-.819-1.384-2.174-2.741-2.3-1.393-.244-3.609-.114-4.039,1.524.06,2.383,2.4,3.985,4.655,4.033a41.887,41.887,0,0,1,3.864,4.1,1.831,1.831,0,0,1-.792,2.977,21.181,21.181,0,0,1-3.461.106c-.012,3.761-.048,7.517.019,11.274.613-.48,1.473-.89,1.6-1.748.263-1.65-.072-3.332.171-4.986a1.945,1.945,0,0,1,2.7-1.283c2.328.567,4.826,2.2,7.2.909,2.363-1.09,2.336-4.2,4.222-5.682a36.748,36.748,0,0,1,13.23-.642c2.069.394,1.07,3.147,2.594,4.111,1.218.863,2.814.41,4.2.571,3.311.051,6.315,1.552,9.14,3.111-.1-.7-.012-1.543-.613-2.055C77,87.5,74.618,85.927,72.569,83.99c-1.039-1.135.123-2.5.6-3.6.677-1.122.836-2.807,2.2-3.339,1.707-.169,3.414.37,5.133.177,1.544-.114,3.454-.433,4.194-1.976.573-1.517.055-3.182-.533-4.619a12.931,12.931,0,0,0-5.623-6.325c-1.484-.787-3.191-.5-4.8-.519-1.046-.056-1.424-1.142-1.822-1.922a15.034,15.034,0,0,0-6.546-6.938C63.369,53.846,61.005,53.027,58.714,53.633Z"/>
    <path class="cls-1" d="M17.745,68.038a17.275,17.275,0,0,1,4.306-.1,1.443,1.443,0,0,1,1.086,2.233c-.693,1.012-2.085.594-3.124.709-.927-.095-2.109.228-2.8-.571A1.452,1.452,0,0,1,17.745,68.038Z"/>
    <path class="cls-1" d="M77.853,68.9a1.865,1.865,0,1,1-.016,3.162A1.855,1.855,0,0,1,77.853,68.9Z"/>
    <path class="cls-1" d="M16.122,74.283a18.5,18.5,0,0,1,4.643-.024,1.466,1.466,0,0,1-.024,2.765,23.748,23.748,0,0,1-4.357.019A1.461,1.461,0,0,1,16.122,74.283Z"/>
    <path class="cls-1" d="M17.789,80.733a20.178,20.178,0,0,1,4.476-.047,1.45,1.45,0,0,1,.016,2.807,20.032,20.032,0,0,1-4.48-.043A1.467,1.467,0,0,1,17.789,80.733Z"/>
    <path class="cls-1" d="M64.463,103.115a7.669,7.669,0,0,1,14.981,0c6.7.04,13.41-.055,20.11.044a1.45,1.45,0,0,1,.012,2.882c-6.7.114-13.421,0-20.134.055a7.727,7.727,0,0,1-7.723,6,1.474,1.474,0,0,1-.589-2.666c1.269-.449,2.782-.359,3.808-1.363a4.549,4.549,0,0,0-.071-6.989,4.653,4.653,0,0,0-6.916,1.311c-.887,1.386-.537,3.052-.123,4.528a1.423,1.423,0,0,1-2.022,1.54c-.911-.421-.979-1.555-1.341-2.363-15.224-.023-30.447.016-45.671-.019a1.492,1.492,0,0,1-1.472-2.2,1.9,1.9,0,0,1,1.874-.757Q41.824,103.129,64.463,103.115Z"/>
  </g>
</svg>
