<svg id="Layer_1" data-name="Layer 1" xmlns="http://www.w3.org/2000/svg" viewBox="0 0 110.672 118.87">
  <defs>
    <style>
      .cls-1 {
        fill: #55e6c1;
      }
    </style>
  </defs>
  <g>
    <path class="cls-1" d="M50.458,9.906h9.579a1.858,1.858,0,0,0,0-3.715H50.458a1.858,1.858,0,1,0,0,3.715Z"/>
    <path class="cls-1" d="M110.619,44.581l-6.393-26.518A14.119,14.119,0,0,0,96.5,8.992C92.073,7.1,78.082,1.752,74.58.417A1.847,1.847,0,0,0,73.412,0h-35.9a1.788,1.788,0,0,0-.179.009c-.024,0-.05.007-.075.01s-.065.009-.1.016l-.09.02c-.026.006-.053.013-.078.021S36.928.1,36.9.105l-.047.016c-.722.276-17.722,6.773-22.682,8.9a14.139,14.139,0,0,0-7.71,9.045h0L6.45,18.1l-.007.027L1.9,37.038.052,44.751a1.871,1.871,0,0,0,1.121,2.173l18.25,7.33v62.738a1.867,1.867,0,0,0,1.856,1.878h68.1a1.868,1.868,0,0,0,1.857-1.877v-44a1.858,1.858,0,1,0-3.715,0v33.5H41.89a1.858,1.858,0,0,0,0,3.715H87.525v3.715H23.137V110.2H35.715a1.858,1.858,0,0,0,0-3.715H23.137V30.215a1.865,1.865,0,0,0-.269-.965L13.507,13.764A8.962,8.962,0,0,1,15.623,12.5c3.8-1.616,15.2-5.965,20.173-7.855,1.194,10.974,9.714,19.8,19.668,19.8,9.924,0,18.425-8.774,19.658-19.7,5.1,1.938,16.18,6.169,19.917,7.758a8.942,8.942,0,0,1,2.116,1.268L87.8,29.248a1.861,1.861,0,0,0-.27.967v36.91a1.858,1.858,0,1,0,3.715,0V54.055l18.257-7.3A1.868,1.868,0,0,0,110.619,44.581ZM19.424,49.529,3.932,43.374l.961-3.959,14.53,6.094v4.02Zm0-19.127V41.559L5.785,35.839l4.2-17.282a10.229,10.229,0,0,1,.947-2.2Zm35.891-9.7c-7.391,0-15.276-6.747-16.14-16.984H71.455C70.59,13.952,62.706,20.7,55.314,20.7ZM91.24,30.4l8.5-14.049a11.146,11.146,0,0,1,.843,1.871v0c.013.037.024.069.033.1l.006.017c.008.025.015.046.02.066l.008.024.013.044.005.018.007.026,0,.014,0,.014,4.2,17.291L91.24,41.559Zm0,19.233v-4.02l14.53-6.094.962,3.961Z"/>
  </g>
</svg>
