<svg id="Layer_1" data-name="Layer 1" xmlns="http://www.w3.org/2000/svg" viewBox="0 0 118 150">
  <defs>
    <style>
      .cls-1 {
        fill: #55e6c1;
      }
    </style>
  </defs>
  <g id="_000000ff" data-name="#000000ff">
    <path class="cls-1" d="M30.943,29.626c2.4-2.081,6.853-1.874,8.6.958.689,1.743.258,3.69.365,5.522h14.06c.2-2.155-.7-4.875,1.151-6.518,2.424-2.043,6.88-1.824,8.576,1.039.662,1.739.243,3.663.347,5.479q7.035,0,14.063,0c.193-2.182-.708-4.968,1.232-6.584,2.4-1.939,6.641-1.731,8.411.955.8,1.747.292,3.767.427,5.629,3.24.035,6.488-.062,9.727.042a6.149,6.149,0,0,1,5.622,6.13q.018,36.581,0,73.162a6.186,6.186,0,0,1-6.053,6.3q-38.3.057-76.609.011a6.221,6.221,0,0,1-6.384-6.329q-.006-36.57,0-73.143a6.156,6.156,0,0,1,5.637-6.134c3.236-.1,6.476-.007,9.716-.042.2-2.143-.689-4.821,1.112-6.48M32.9,31.85c.012,1.42.012,2.836.008,4.256H36.83c0-1.428,0-2.851,0-4.279a4.358,4.358,0,0,0-3.937.023m24.13,0c.015,1.42.012,2.84.012,4.26h3.924c0-1.416,0-2.836.016-4.252a4.284,4.284,0,0,0-3.952-.008m24.145-.019c0,1.428,0,2.851,0,4.279H85.1q-.006-2.13.007-4.26a4.379,4.379,0,0,0-3.932-.019m-63.6,10.466c-.046,3.325,0,6.649-.016,9.974q41.448.006,82.9,0c-.019-3.329.031-6.661-.015-9.989a3.007,3.007,0,0,0-2.924-3.063c-5.441-.073-10.886-.008-16.326-.027-.008.97-.012,1.943-.027,2.913.958.388,2,.485,2.962.854a1.588,1.588,0,0,1-.542,2.7,5.221,5.221,0,0,1-5.152-2.366c-.531-1.3-.277-2.744-.327-4.106q-10.529-.006-21.056,0c0,.966-.011,1.932-.03,2.9.942.381,1.95.528,2.912.832a1.571,1.571,0,0,1-.581,2.758,5.193,5.193,0,0,1-5.1-2.466,12.832,12.832,0,0,1-.289-4.021q-10.527-.006-21.055,0a18.178,18.178,0,0,0,.1,2.924,16.715,16.715,0,0,0,2.736.774,1.562,1.562,0,0,1-.6,2.8c-1.943.123-4.2-.685-5.056-2.551a13.412,13.412,0,0,1-.258-3.948c-3.109.023-6.218-.054-9.327.027a3,3,0,0,0-2.932,3.078m-.016,13.056q0,27.722,0,55.443a3.12,3.12,0,0,0,3.325,3.37q33.279.018,66.555,0c.027-3.832-.05-7.665.027-11.493a1.479,1.479,0,0,1,1.52-1.493c3.821-.062,7.646,0,11.466-.019q0-22.908,0-45.812-41.451-.006-82.9,0m72.962,48.89c0,2.582,0,5.16,0,7.742,2.59-2.571,5.16-5.16,7.742-7.738-2.582-.008-5.164,0-7.746,0m-.1,12.209c-.9,1.143-2.458.731-3.713.8q-32.916-.028-65.836-.007a10.956,10.956,0,0,1-3.286-.655,3.541,3.541,0,0,0,3.294,2.082q36.951.034,73.9.015a16.481,16.481,0,0,0,3.547-.177,3.052,3.052,0,0,0,2.117-3.078c.031-3.009-.008-6.014,0-9.023Q95.436,111.437,90.418,116.448Z"/>
    <path class="cls-1" d="M27.6,63.914a3.957,3.957,0,0,1,1.789-.242c2.3.042,4.6-.043,6.9.034a1.508,1.508,0,0,1,1.481,1.662q.046,3.3,0,6.6a1.516,1.516,0,0,1-1.512,1.67c-2.547.058-5.1.027-7.646.016a1.538,1.538,0,0,1-1.708-1.4c-.1-1.9,0-3.809-.046-5.71.042-.9-.177-2.085.746-2.628m2.347,2.847q0,1.911,0,3.821H34.7V66.761Z"/>
    <path class="cls-1" d="M45.334,63.949c.492-.354,1.15-.224,1.72-.277,2.32.038,4.644-.039,6.964.03a1.5,1.5,0,0,1,1.524,1.628c.042,2.22.038,4.44,0,6.657a1.523,1.523,0,0,1-1.578,1.654c-2.559.046-5.117.035-7.676,0a1.489,1.489,0,0,1-1.6-1.362c-.115-1.916,0-3.84-.054-5.756.054-.878-.177-2.02.7-2.578m2.4,2.812c0,1.274,0,2.548,0,3.821h4.748q.006-1.909,0-3.821Z"/>
    <path class="cls-1" d="M63.045,64.006c.593-.458,1.4-.281,2.1-.338,2.316.065,4.637-.077,6.949.065a1.489,1.489,0,0,1,1.239,1.628q.057,3.3,0,6.595a1.547,1.547,0,0,1-1.643,1.689c-2.555.031-5.11.039-7.661,0a1.469,1.469,0,0,1-1.543-1.327c-.123-1.928-.008-3.863-.058-5.795.058-.847-.173-1.924.616-2.513m2.474,2.755v3.821q2.377.006,4.752,0V66.761Z"/>
    <path class="cls-1" d="M88.879,64.468c1.212-1.258,3.379.835,2.147,2.1q-2.511,3.095-5.148,6.091a1.572,1.572,0,0,1-2.478-.111,35.759,35.759,0,0,1-3.24-3.371,1.522,1.522,0,0,1,2.074-1.989,20.033,20.033,0,0,1,2.382,2.235C86.063,67.793,87.359,66.03,88.879,64.468Z"/>
    <path class="cls-1" d="M27.568,80.844c2.186-.588,4.56-.092,6.819-.265,1.123.058,2.862-.339,3.3,1.077.2,2.4.066,4.822.077,7.226a1.505,1.505,0,0,1-1.447,1.651c-2.578.073-5.16.039-7.738.019A1.508,1.508,0,0,1,26.9,89.183c-.1-2.036,0-4.075-.05-6.111.015-.777-.066-1.774.719-2.228m2.374,2.825q0,1.9,0,3.817,2.379,0,4.756,0V83.665Q32.32,83.665,29.942,83.669Z"/>
    <path class="cls-1" d="M45.31,80.875c.493-.377,1.17-.242,1.747-.3,2.324.038,4.649-.042,6.969.031a1.507,1.507,0,0,1,1.516,1.658c.038,2.213.042,4.429,0,6.645a1.515,1.515,0,0,1-1.524,1.628c-2.574.054-5.156.042-7.73.007A1.474,1.474,0,0,1,44.7,89.236c-.127-1.924-.008-3.855-.062-5.783.054-.873-.181-2.008.673-2.578m2.421,2.794q-.006,1.9,0,3.817,2.371,0,4.752,0V83.669Q50.1,83.663,47.731,83.669Z"/>
    <path class="cls-1" d="M63.014,80.941c.146-.07.443-.216.593-.289,2.7-.142,5.417-.058,8.122-.046a1.524,1.524,0,0,1,1.605,1.674q.057,3.29,0,6.583a1.546,1.546,0,0,1-1.609,1.682c-2.451.057-4.9.015-7.353.019-.819.088-1.835-.37-1.881-1.289-.139-1.939-.012-3.89-.066-5.833.058-.839-.173-1.9.585-2.5m2.505,2.728v3.817q2.377,0,4.752,0V83.669Q67.9,83.663,65.519,83.669Z"/>
    <path class="cls-1" d="M81.022,80.787a6.137,6.137,0,0,1,2.193-.212c2.193.062,4.394-.069,6.584.058A1.5,1.5,0,0,1,91.13,82.28q.041,3.29,0,6.583a1.573,1.573,0,0,1-1.7,1.689c-2.448.039-4.895.02-7.342.008a1.56,1.56,0,0,1-1.812-1.377c-.112-1.905,0-3.818-.054-5.726.034-.916-.173-2.151.8-2.67m2.289,2.882q0,1.9,0,3.817,2.373,0,4.749,0V83.669Q85.687,83.663,83.311,83.669Z"/>
    <path class="cls-1" d="M28.007,97.567c2.374-.193,4.767-.012,7.149-.089.935-.03,2.259-.038,2.532,1.105.215,2,.027,4.017.1,6.022-.069.823.185,1.873-.543,2.474-.569.508-1.385.354-2.077.4-2.194-.039-4.383.027-6.576-.023A1.52,1.52,0,0,1,26.9,106.1c-.089-2.293-.035-4.59-.027-6.883a1.544,1.544,0,0,1,1.135-1.651m1.935,3.005q0,1.911,0,3.821H34.7v-3.821Q32.32,100.566,29.942,100.572Z"/>
    <path class="cls-1" d="M45.707,97.582c2.739-.2,5.506-.065,8.253-.073a1.537,1.537,0,0,1,1.586,1.7c.03,2.209.042,4.417-.008,6.622a1.513,1.513,0,0,1-1.516,1.62c-2.582.05-5.172.042-7.753,0a1.524,1.524,0,0,1-1.6-1.67c-.039-2.189-.035-4.383,0-6.576a1.568,1.568,0,0,1,1.043-1.624m2.024,2.99c0,1.274,0,2.547,0,3.821h4.752q0-1.911,0-3.821Q50.106,100.566,47.731,100.572Z"/>
    <path class="cls-1" d="M63.761,97.536c2.651-.1,5.314-.042,7.968-.027a1.543,1.543,0,0,1,1.609,1.7c.031,2.2.038,4.4,0,6.595a1.534,1.534,0,0,1-1.593,1.643c-2.582.038-5.171.046-7.753,0a1.5,1.5,0,0,1-1.528-1.628c-.046-2.2-.034-4.413,0-6.618a1.521,1.521,0,0,1,1.3-1.666m1.762,3.036q-.006,1.911,0,3.821h4.752v-3.821C68.69,100.568,67.1,100.568,65.523,100.572Z"/>
  </g>
</svg>
