<svg id="Layer_1" data-name="Layer 1" xmlns="http://www.w3.org/2000/svg" viewBox="0 0 118 150">
  <defs>
    <style>
      .cls-1 {
        fill: #55e6c1;
      }
    </style>
  </defs>
  <path class="cls-1" d="M38.838,88.374H79.155A5.453,5.453,0,0,0,84.582,82.9V70.817c0-14.722-12.053-26.7-26.625-26.1A25.769,25.769,0,0,0,33.418,70.555V82.9A5.456,5.456,0,0,0,38.838,88.374ZM36.159,70.555a23,23,0,0,1,22.43-23.092c12.817-.23,23.252,10.387,23.252,23.327V82.9a2.7,2.7,0,0,1-2.683,2.709H38.842A2.7,2.7,0,0,1,36.159,82.9V70.555ZM97.1,79.7H93.171V69.276a30.9,30.9,0,0,0-4.386-15.4V25.563a1.377,1.377,0,0,0-1.37-1.384H69.97a.557.557,0,0,0-.554.56V38.35q-.906-.307-1.828-.561V29.616a2.657,2.657,0,0,0-2.644-2.67H57.5a6.567,6.567,0,0,0-6.536,6.6v4.077q-1.2.316-2.376.728V25.563a1.377,1.377,0,0,0-1.37-1.384H30.585a1.377,1.377,0,0,0-1.37,1.384v28.31a31.023,31.023,0,0,0-4.386,15.441V79.7H20.892a8.163,8.163,0,0,0-8.123,8.2v25.473a8.162,8.162,0,0,0,8.123,8.2h3.37a8.024,8.024,0,0,0,7.03,4.243H86.617a8.024,8.024,0,0,0,7.03-4.243h3.461a8.162,8.162,0,0,0,8.123-8.2V87.909A8.176,8.176,0,0,0,97.1,79.7ZM72.157,26.946h13.7V49.867a37.947,37.947,0,0,0-2.57-2.972A35.2,35.2,0,0,0,72.157,39.03ZM53.7,33.587a3.977,3.977,0,0,1,4.063-3.874h3.288a3.814,3.814,0,0,1,3.795,3.832v3.321c-.3-.052-.608-.1-.913-.146V34.683a3.845,3.845,0,0,0-3.827-3.863H58.441a3.845,3.845,0,0,0-3.827,3.863v2.029q-.458.06-.913.131V33.587Zm5.356,2.695q-.854,0-1.7.043V34.683a1.09,1.09,0,0,1,1.086-1.1H60.29a1.09,1.09,0,0,1,1.086,1.1v1.682Q60.221,36.284,59.057,36.282ZM32.138,26.946H45.843V39.03A35.234,35.234,0,0,0,34.7,46.9a37.552,37.552,0,0,0-2.559,2.954ZM27.753,69.289a28.3,28.3,0,0,1,4.091-14.126,1.4,1.4,0,0,0,.244-.41A32.7,32.7,0,0,1,52.663,39.7q.057-.01.114-.024a29.678,29.678,0,0,1,9.815-.47l.042.005a29.877,29.877,0,0,1,3.323.59,1.312,1.312,0,0,0,.153.037,30.113,30.113,0,0,1,3.9,1.23,1.363,1.363,0,0,0,.753.306A33.335,33.335,0,0,1,86.111,54.781a1.385,1.385,0,0,0,.239.4,28.29,28.29,0,0,1,4.08,14.108V92.424a7.924,7.924,0,0,0-3.7-.914H31.452a7.92,7.92,0,0,0-3.7.914Zm-6.8,49.522a5.445,5.445,0,0,1-5.445-5.434V87.928A5.446,5.446,0,0,1,19.9,82.6V95.18a1.416,1.416,0,0,0,1.2,1.426,1.376,1.376,0,0,0,1.542-1.373V82.471h2.193V94.757a8.019,8.019,0,0,0-1.644,4.869v18a8.159,8.159,0,0,0,.088,1.187Zm65.65,4.243H31.417a5.335,5.335,0,0,1-5.309-5.36V107.005H78.552v.922H77.547a1.377,1.377,0,0,0-1.37,1.384v7.932a1.377,1.377,0,0,0,1.37,1.384H82.3a1.378,1.378,0,0,0,1.371-1.384v-7.932a1.378,1.378,0,0,0-1.371-1.384h-1v-.922h1.9a1.408,1.408,0,0,0,1.312-.866,1.483,1.483,0,0,0-1.341-2.085H26.108V99.636a5.334,5.334,0,0,1,5.309-5.359H86.765a5.334,5.334,0,0,1,5.309,5.36v4.6H89.2a1.409,1.409,0,0,0-1.412,1.211,1.379,1.379,0,0,0,1.36,1.556h2.74v10.712A5.319,5.319,0,0,1,86.605,123.054ZM80.745,110.7v5.165H78.918V110.7Zm21.745,2.682a5.409,5.409,0,0,1-5.382,5.434H94.727a8.159,8.159,0,0,0,.088-1.187v-18a8.019,8.019,0,0,0-1.644-4.869V82.471h2.193V95.18a1.414,1.414,0,0,0,1.2,1.426,1.376,1.376,0,0,0,1.542-1.373V82.6a5.445,5.445,0,0,1,4.385,5.33Zm-52.9-34.595h20.1A1.377,1.377,0,0,0,71.06,77.4V65.961a1.376,1.376,0,0,0-1.37-1.383h-20.1a1.376,1.376,0,0,0-1.37,1.383V77.4A1.377,1.377,0,0,0,49.589,78.782ZM50.96,67.345H68.319v8.67H50.96Z"/>
</svg>
