<svg id="Layer_1" data-name="Layer 1" xmlns="http://www.w3.org/2000/svg" viewBox="0 0 118 150">
  <defs>
    <style>
      .cls-1, .cls-2 {
        fill: #55e6c1;
      }

      .cls-2 {
        opacity: 0.6;
      }
    </style>
  </defs>
  <path class="cls-1" d="M18.168,55.545v18.29a3.1,3.1,0,0,0,3.105,3.105H96.931a3.1,3.1,0,0,0,3.105-3.105V55.545a3.1,3.1,0,0,0-3.105-3.105H21.273A3.1,3.1,0,0,0,18.168,55.545Zm6.125,3.02H93.707V70.611H24.293Z"/>
  <path class="cls-2" d="M108.16,22.837H9.84a3.1,3.1,0,0,0-3.1,3.105v98.115a3.107,3.107,0,0,0,3.106,3.106H108.16a3.1,3.1,0,0,0,3.105-3.1V25.942A3.1,3.1,0,0,0,108.16,22.837Zm-3.02,6.329v7.758H52.746l-2.693-7.758Zm0,91.872H13.064V29.166h30.7l4.094,11.8a3.1,3.1,0,0,0,2.925,2.08H105.14Z"/>
  <path class="cls-2" d="M20.9,38.756a3.105,3.105,0,1,0-3.1-3.1A3.1,3.1,0,0,0,20.9,38.756Z"/>
  <path class="cls-2" d="M29.737,38.762H38.42a3.126,3.126,0,0,0,3.156-2.922,3.064,3.064,0,0,0-3.06-3.2H29.833a3.127,3.127,0,0,0-3.156,2.928A3.063,3.063,0,0,0,29.737,38.762Z"/>
  <path class="cls-2" d="M52.889,83.881H21.53a3.125,3.125,0,0,0-3.155,2.927,3.062,3.062,0,0,0,3.059,3.2H52.985a3.063,3.063,0,0,0,3.059-3.2A3.125,3.125,0,0,0,52.889,83.881Z"/>
  <path class="cls-2" d="M52.987,96.947H21.432a3.063,3.063,0,0,0-3.06,3.2,3.127,3.127,0,0,0,3.156,2.928H52.891a3.125,3.125,0,0,0,3.155-2.928A3.062,3.062,0,0,0,52.987,96.947Z"/>
  <path class="cls-2" d="M52.987,110.013H21.528a3.127,3.127,0,0,0-3.156,2.926,3.063,3.063,0,0,0,3.06,3.2H52.89a3.126,3.126,0,0,0,3.156-2.922A3.063,3.063,0,0,0,52.987,110.013Z"/>
  <path class="cls-2" d="M96.725,83.881h-28.9a3.106,3.106,0,0,0-3.106,3.105v26.05a3.1,3.1,0,0,0,3.108,3.1h28.9a3.1,3.1,0,0,0,3.1-3.105V86.983A3.1,3.1,0,0,0,96.725,83.881Zm-25.68,6.125h17.71l-17.71,15.987Zm22.662,20.007H76L93.707,94.025Z"/>
</svg>
