<svg id="Layer_1" data-name="Layer 1" xmlns="http://www.w3.org/2000/svg" viewBox="0 0 118 150">
  <defs>
    <style>
      .cls-1 {
        fill: #7fe2c3;
      }
    </style>
  </defs>
  <g id="_7fe2c3ff" data-name="#7fe2c3ff">
    <path class="cls-1" d="M68.014,21.1c-.02,1.091-.053,2.175-.1,3.266.965-.878,1.789-2.049,3.093-2.448a7.287,7.287,0,0,1,5.8,6.231c1.2,4.5-.977,8.858-2.194,13.1A39.867,39.867,0,0,1,77.65,48c2.96,9.257,6.032,18.474,9.051,27.711,4.017.007,8.027.034,12.043-.026-1.569,1.656-3.092,3.351-4.748,4.927-2.028-.764-4.1-1.443-6.178-2.048,2.361,6.251,4.13,12.722,6.79,18.853.579,1.663,2.108,2.567,3.545,3.392,4.156-2.2,5.113-7.4,5.965-11.618.046-1.636,1.689-2.347,2.793-3.225-.147,6.218-4,11.5-7.867,16.04-2.707,3.478-5.586,7.076-9.537,9.19-2.088.333-3.8-1.529-4.788-3.192-5.027-9.523-7.807-19.99-11.265-30.131a101.623,101.623,0,0,0-11.9-.606c-1.855-.206-2.407,1.916-3.331,3.06.838-.18,2.52-.552,3.365-.739-.227,2.069-1.9,2.015-3.5,1.862Q55.013,88.758,51.8,96.009c4.356,1.49,8.9,3.578,13.613,2.58,1.656-.758,2.215-2.633,3.066-4.089q.648.569,1.3,1.157c-2.66,2.979-5.24,6.051-8.192,8.765-1.929,1.722-3.492,4.116-6.072,4.907-1.995.226-3.963-.445-5.872-.951-5.48-1.742-10.939-3.551-16.4-5.353-2.959-.991-6.2-1.629-9.277-.865a12.312,12.312,0,0,0-7.92,12.955c.392,3.418,1.848,6.949,4.7,9.037a13.918,13.918,0,0,0,13.493,2.015c2.567-1.23,4.05-3.8,6.012-5.745.891,2.041.692,4.528-1.25,5.885-7.189,5.426-18.634,1.835-22.245-6.2-2.8-6.158-1.855-14.49,3.624-18.893a93.3,93.3,0,0,1,10.76-7.894c2.255-1.4,5.061-1.735,7.1-3.5a24.182,24.182,0,0,0,8.485-17.224c.406-5.054-1.476-10.028-4.229-14.185-4.349-5.8-10.554-11.039-18.155-11.252-2.866-.412-6.118.945-7.082,3.831-.645,1.49.758,2.78,1.742,3.7,5.393,4.576,10.959,8.978,15.88,14.072,1.616,1.616,3.518,4.023,2,6.344-2.507,4.323-5.167,9.357-10.175,11.132a17.176,17.176,0,0,1-15.621-2.161,39.081,39.081,0,0,1,1.59-9.024c.585,1.277.844,2.84,2.035,3.731,4.016,2.979,8.651,5.3,13.705,5.719,2.228-.925,3.372-4.236,1.2-5.812C24.163,74.469,19,69.874,13.43,65.818c.392-3.791.778-7.588,1.191-11.379.212-1.6.379-3.391,1.649-4.548,3.524-3.492,7.827-6.032,11.837-8.9,1.623-1.111,3.471-2.388,5.553-1.9A24.476,24.476,0,0,1,52.094,53.409a22.93,22.93,0,0,1,1.569,12.482c-1.223,10.56-8.425,19.391-16.632,25.636,4.882.8,9.4,2.919,14.112,4.323,2.121-4.968,4.183-9.969,6.331-14.923a17.147,17.147,0,0,1-3.026-3.8,15.79,15.79,0,0,1,5.167-1.649c2.534-5.872,4.868-11.83,7.349-17.722A28.225,28.225,0,0,0,62.308,46.9a49.7,49.7,0,0,0,11.651-6.657c.094-1.715.333-3.651-.917-5.04-1.078-1.763-3.392-2.2-5.274-1.756-1.842.771-2.959,2.554-4.083,4.11,1.7-4.1,1.855-8.566,2.54-12.895.093-1.39,1.044-2.454,1.789-3.558M60.373,75.76c4.157-.074,8.313-.067,12.469-.007-1.862-5.619-3.711-11.245-5.393-16.925C65.221,64.528,62.8,70.147,60.373,75.76Z"/>
  </g>
</svg>
