<svg id="Layer_1" data-name="Layer 1" xmlns="http://www.w3.org/2000/svg" viewBox="0 0 118 150">
  <defs>
    <style>
      .cls-1 {
        fill: #55e6c1;
      }
    </style>
  </defs>
  <g id="_000000ff" data-name="#000000ff">
    <path class="cls-1" d="M91.235,27.454a6.457,6.457,0,0,1,11.735,3.782c.028,3.182-2.588,5.381-4.141,7.891a7.19,7.19,0,0,1,.865,8.006c-1.564,2.49-3.422,4.781-5.081,7.211a16.82,16.82,0,0,1-2.13,2.713c-1.142.807-2.9-.891-1.964-2.045,2.043-3.086,4.363-5.985,6.417-9.064a4.163,4.163,0,0,0,.222-4.045,3.161,3.161,0,0,0-1.17,1.13q-4.019,5.679-8.112,11.3a2.94,2.94,0,0,0-.7,1.532c-.107,1.8,0,3.619-.024,5.429,3.781.051,7.567-.1,11.344.067a8.032,8.032,0,0,1,7.215,8.046q.03,21.639.008,43.273c1.32.084,2.971-.322,3.852.967V118.4a7.423,7.423,0,0,1-6.318,6.742,31.976,31.976,0,0,1-5.919.012c-1.268-.187-1.394-2.243-.28-2.748,2.659-.621,5.891.727,8.128-1.321,1.564-1.316,1.45-3.524,1.454-5.377q-19.815-.018-39.628-.008c-.28,2.136-1.608,4.291-3.844,4.717a61.246,61.246,0,0,1-6.556.147,5.279,5.279,0,0,1-4.014-1.356,6.3,6.3,0,0,1-1.616-3.508q-19.813.018-39.624.008c.056,1.591-.154,3.388.878,4.737a4.686,4.686,0,0,0,4.061,1.813q34.6-.018,69.195-.008a37.635,37.635,0,0,1,4.288.084c1.41.167,1.414,2.645.007,2.824a34.681,34.681,0,0,1-4.314.091q-34.775-.012-69.543-.008a7.478,7.478,0,0,1-7.507-6.761v-4.729c.778-1.444,2.517-.978,3.856-1.066.047-3.031-.107-6.069.055-9.092.012-1.086,1.45-1.535,2.257-.986.778.417.588,1.431.663,2.171q-.023,3.962-.015,7.931,1.481-.006,2.963,0c-.008-14.167.012-28.33-.012-42.493.067-.677-.075-1.52.522-2,.533-.481,1.315-.334,1.971-.39q4.784.024,9.57.012V64.291c-3.342.024-6.689-.051-10.028.02a4.99,4.99,0,0,0-4.5,2.888,8.026,8.026,0,0,0-.5,3.4c.031,7.418,0,14.836.019,22.253a20.821,20.821,0,0,1-.13,3.584,1.51,1.51,0,0,1-2.726-.032,12.832,12.832,0,0,1-.131-2.374c.06-8.349-.039-16.7.044-25.049A8,8,0,0,1,19.9,61.328c3.45-.1,6.9,0,10.356-.035.1-3.174-.446-6.539.976-9.506a10.659,10.659,0,0,1,9.989-6.2c12.305.068,24.613-.111,36.917.1,4.386-6.066,8.725-12.163,13.1-18.232m2.833,1.269c-1.221,1.392-2.181,3-3.3,4.474q2.84,2.07,5.682,4.132c1-1.447,2.114-2.82,3.051-4.315A3.5,3.5,0,0,0,99,28.75a3.463,3.463,0,0,0-4.927-.027M69.416,62.939c1.9,1.376,3.785,2.76,5.682,4.133Q84.913,53.41,94.712,39.744q-2.834-2.072-5.682-4.125-9.81,13.656-19.614,27.32M33.242,55.9c-.064,6.491,0,12.982-.028,19.477a21.121,21.121,0,0,0,.154,3.6,7.58,7.58,0,0,0,6.626,6.109c.917.055,2.253.23,2.284,1.424.107,3.086,0,6.18.044,9.271q4.8-4.821,9.581-9.661a2.4,2.4,0,0,1,1.96-.955c5,0,10.013-.044,15.015.02,1.834-.167,1.873,3.043.052,2.939-4.955.084-9.914-.008-14.869.04-3.813,3.9-7.693,7.728-11.51,11.622-.569.529-1.225,1.308-2.1,1.022a1.465,1.465,0,0,1-1.083-1.555c-.051-3.723,0-7.446-.02-11.168a10.8,10.8,0,0,1-8.985-9.1c-.241-2.716-.047-5.448-.111-8.169-3.026,0-6.053,0-9.084-.008q-.017,20.952,0,41.9H96.834q-.006-20.952,0-41.9c-3.229,0-6.453,0-9.677,0-.059,2.725.138,5.461-.123,8.177a10.6,10.6,0,0,1-10.692,9.128c-1.4-.091-1.628-2.426-.312-2.824a13.393,13.393,0,0,0,3.774-.859,7.725,7.725,0,0,0,4.385-7.047c.012-5.958,0-11.92,0-17.878q-3.639,5.046-7.254,10.11c-.648,1.042-1.932,1.249-2.987,1.67-2.11.7-4.173,1.544-6.291,2.216a1.434,1.434,0,0,1-1.96-1.285c-.039-2.8.115-5.608.151-8.412a2.9,2.9,0,0,1,.687-1.961q4.79-6.627,9.535-13.28-17.622,0-35.242.008A7.645,7.645,0,0,0,33.242,55.9m53.911,8.388v3.552c3.777.036,7.559-.056,11.332.04.948.024,1.419,1.066,1.312,1.913v42.915q1.482-.006,2.963,0,0-20.255,0-40.5a26.9,26.9,0,0,0-.122-3.83,5.026,5.026,0,0,0-4.9-4.069c-3.528-.043-7.061,0-10.589-.016M68.764,66.153q-.054,1.92-.087,3.85,1.8-.645,3.6-1.3-1.753-1.276-3.512-2.549M53.915,115.742c.32.827.849,1.841,1.884,1.8q3.183.108,6.37,0c1.051.048,1.588-.974,1.916-1.809Q59,115.64,53.915,115.742Z"/>
    <path class="cls-1" d="M42.48,60.306a6.473,6.473,0,0,1,2.3-.219c5.007.068,10.017-.075,15.019.068,1.648.091,1.64,2.788,0,2.891-5.129.132-10.269,0-15.406.064-.778-.06-1.77.147-2.319-.565A1.466,1.466,0,0,1,42.48,60.306Z"/>
    <path class="cls-1" d="M42.875,70.707c5.1-.143,10.214,0,15.323-.068.932.036,2.2-.2,2.714.827a1.5,1.5,0,0,1-1.469,2.144c-5.153.036-10.309-.012-15.462.024-.7-.016-1.545.036-1.979-.632A1.463,1.463,0,0,1,42.875,70.707Z"/>
  </g>
</svg>
