<svg id="Layer_1" data-name="Layer 1" xmlns="http://www.w3.org/2000/svg" viewBox="0 0 118 150">
  <defs>
    <style>
      .cls-1 {
        fill: #55e6c1;
      }
    </style>
  </defs>
  <g>
    <path class="cls-1" d="M99.032,20.411H29.886A12.752,12.752,0,0,0,17.149,33.149v83.7a12.754,12.754,0,0,0,12.737,12.738H95.392a1.82,1.82,0,0,0,1.82-1.82V107.753h1.82a1.818,1.818,0,0,0,1.819-1.819v-83.7A1.819,1.819,0,0,0,99.032,20.411Zm-5.459,94.621H29.886v3.639H93.573v7.278H29.886a9.1,9.1,0,0,1,0-18.2H93.573Zm3.639-10.918H29.892a12.742,12.742,0,0,0-1.31.068c-.141.014-.278.045-.42.063-.286.04-.572.074-.85.133-.182.036-.343.089-.517.132-.236.061-.476.113-.709.182-.182.059-.364.134-.546.2-.211.077-.426.147-.631.235s-.364.17-.534.257-.394.181-.585.287-.342.207-.514.31-.363.217-.545.335-.328.245-.491.365-.334.241-.492.375-.309.28-.463.42c-.173.155-.336.3-.493.462l0,0V33.149a9.108,9.108,0,0,1,9.1-9.1h1.821v74.6h3.639v-74.6H97.212Z"/>
    <path class="cls-1" d="M57.18,74.075v6.454a9.1,9.1,0,0,0,18.2,0V74.075a16.377,16.377,0,1,0-18.2,0Zm4.914,2.2a16.9,16.9,0,0,0,1.718.346c.233.034.466.061.7.087.432.045.863.073,1.3.085.158,0,.315.031.473.031s.33-.03.5-.031a8.215,8.215,0,0,0,.873-.041c.369-.043.74-.076,1.108-.133a16.418,16.418,0,0,0,1.7-.344c.109-.029.213-.067.322-.1.32-.09.641-.182.953-.293v2.757H60.82V75.882c.319.115.647.206.975.3C61.893,76.208,61.988,76.245,62.094,76.274Zm4.184,9.644a5.459,5.459,0,0,1-5.123-3.64H71.4A5.459,5.459,0,0,1,66.278,85.918Zm0-38.143a12.738,12.738,0,0,1,6.355,23.763A12.885,12.885,0,0,1,62.988,72.8a12.1,12.1,0,0,1-3.075-1.274,12.729,12.729,0,0,1,6.365-23.748Z"/>
    <path class="cls-1" d="M63.922,63.619l2.356-2.353,2.355,2.355a1.82,1.82,0,0,0,2.573,0l3.639-3.639-2.573-2.577-2.354,2.354-2.365-2.354a1.82,1.82,0,0,0-2.573,0l-2.341,2.353L60.29,57.407,57.717,59.98l3.639,3.639A1.869,1.869,0,0,0,63.922,63.619Z"/>
    <path class="cls-1" d="M64.459,33.149H68.1v7.278H64.459Z"/>
    <path class="cls-1" d="M45.692,42.5l2.574-2.573,5.146,5.146-2.573,2.574Z"/>
    <path class="cls-1" d="M38.984,58.623h7.279v3.64H38.984Z"/>
    <path class="cls-1" d="M45.691,78.526l5.147-5.147,2.573,2.573L48.264,81.1Z"/>
    <path class="cls-1" d="M79.146,75.955l2.573-2.573,5.147,5.146L84.293,81.1Z"/>
    <path class="cls-1" d="M86.294,58.623h7.279v3.64H86.294Z"/>
    <path class="cls-1" d="M79.146,45.073l5.147-5.147L86.867,42.5,81.72,47.646Z"/>
  </g>
</svg>
