<svg id="Layer_1" data-name="Layer 1" xmlns="http://www.w3.org/2000/svg" viewBox="0 0 118 150">
  <defs>
    <style>
      .cls-1 {
        fill: #55e6c1;
      }
    </style>
  </defs>
  <g>
    <path class="cls-1" d="M106.053,35.237,75.085,26.432l-.033-.007a2.142,2.142,0,0,0-.225-.048l-.069-.011a2.219,2.219,0,0,0-.272-.018H74.48a2.232,2.232,0,0,0-.272.018l-.069.011a2.142,2.142,0,0,0-.225.048l-.033.007L43.516,35.066,13.151,26.432a2.2,2.2,0,0,0-2.487.977,2.249,2.249,0,0,0-.316,1.186v84.05a2.2,2.2,0,0,0,1.6,2.118l30.966,8.806c.011,0,.022,0,.033.006a2.126,2.126,0,0,0,.227.048l.067.01a2.007,2.007,0,0,0,.551,0l.067-.01a2.126,2.126,0,0,0,.227-.048c.011,0,.022,0,.033-.006l30.365-8.635,30.366,8.635a2.2,2.2,0,0,0,2.8-2.158V37.355A2.2,2.2,0,0,0,106.053,35.237Zm-60.482,3.71,26.638-7.575v79.737l-26.638,7.575ZM14.53,31.37l26.638,7.575v79.741L14.53,111.111Zm88.719,87.314-26.637-7.575V31.372l26.637,7.575Z"/>
    <path class="cls-1" d="M35.223,105.85l-13.355-3.8a2.2,2.2,0,0,0-1.2,4.235l13.354,3.8a2.2,2.2,0,0,0,1.2-4.235Z"/>
    <path class="cls-1" d="M35.223,94.842l-13.355-3.8a2.2,2.2,0,0,0-1.2,4.235l13.354,3.8a2.18,2.18,0,0,0,.6.085,2.2,2.2,0,0,0,.6-4.32Z"/>
    <path class="cls-1" d="M35.223,83.835l-13.355-3.8a2.2,2.2,0,0,0-1.2,4.235l13.354,3.8a2.2,2.2,0,1,0,1.2-4.235Z"/>
    <path class="cls-1" d="M35.159,43.707l-13.41-3.814a2.216,2.216,0,0,0-2.5.978,2.246,2.246,0,0,0-.32,1.19V71.2a2.213,2.213,0,0,0,1.606,2.127L33.95,77.141a2.192,2.192,0,0,0,.6.084,2.2,2.2,0,0,0,2.21-2.248V45.833A2.209,2.209,0,0,0,35.159,43.707Zm-2.8,28.436-9.026-2.567V44.891l9.026,2.567Z"/>
    <path class="cls-1" d="M52.231,48.088a2.217,2.217,0,0,0,.6-.084l13.356-3.8a2.2,2.2,0,0,0-1.2-4.235l-13.356,3.8a2.2,2.2,0,0,0,.6,4.319Z"/>
    <path class="cls-1" d="M64.986,102.052l-13.356,3.8a2.2,2.2,0,1,0,1.2,4.235l13.356-3.8a2.2,2.2,0,0,0-1.2-4.235Z"/>
    <path class="cls-1" d="M64.986,91.045l-13.356,3.8a2.2,2.2,0,0,0,1.2,4.235l13.356-3.8a2.2,2.2,0,0,0-1.2-4.235Z"/>
    <path class="cls-1" d="M64.986,80.038l-13.356,3.8a2.2,2.2,0,0,0,.6,4.32,2.173,2.173,0,0,0,.6-.085l13.356-3.8a2.2,2.2,0,0,0-1.2-4.235Z"/>
    <path class="cls-1" d="M64.986,69.03l-13.356,3.8a2.2,2.2,0,1,0,1.2,4.235l13.356-3.8a2.2,2.2,0,0,0-1.2-4.235Z"/>
    <path class="cls-1" d="M82.6,44.206,95.954,48a2.2,2.2,0,0,0,1.205-4.235L83.8,39.971a2.2,2.2,0,1,0-1.2,4.235Z"/>
    <path class="cls-1" d="M82.6,55.213l13.356,3.8a2.2,2.2,0,0,0,1.205-4.235L83.8,50.978a2.2,2.2,0,0,0-1.2,4.235Z"/>
    <path class="cls-1" d="M82.6,66.221l13.356,3.8a2.2,2.2,0,0,0,1.205-4.235L83.8,61.986a2.2,2.2,0,1,0-1.2,4.235Z"/>
    <path class="cls-1" d="M82.621,106.348l13.41,3.814A2.207,2.207,0,0,0,98.847,108V78.857a2.213,2.213,0,0,0-1.606-2.127L83.83,72.917a2.215,2.215,0,0,0-2.5.977,2.248,2.248,0,0,0-.319,1.191v29.136A2.21,2.21,0,0,0,82.621,106.348Zm2.8-28.433,9.026,2.567v24.681L85.418,102.6Z"/>
  </g>
</svg>
