<svg id="Layer_1" data-name="Layer 1" xmlns="http://www.w3.org/2000/svg" viewBox="0 0 118 150">
  <defs>
    <style>
      .cls-1 {
        fill: #55e6c1;
      }
    </style>
  </defs>
  <g>
    <path class="cls-1" d="M101.36,38.855H16.64a6.928,6.928,0,0,0-6.928,6.928v58.434a6.928,6.928,0,0,0,6.928,6.928h84.72a6.928,6.928,0,0,0,6.928-6.928V45.783A6.928,6.928,0,0,0,101.36,38.855Zm0,69H16.64A3.642,3.642,0,0,1,13,104.217V45.783a3.642,3.642,0,0,1,3.642-3.642h84.72A3.642,3.642,0,0,1,105,45.783v58.434A3.642,3.642,0,0,1,101.36,107.859Z"/>
    <path class="cls-1" d="M46.905,85.491l-5.977-3.053V81.8a11.87,11.87,0,0,0,5.605-7.17A4.888,4.888,0,0,0,49.142,70.3V68.657A4.9,4.9,0,0,0,47.251,64.8c-1.025-6.211-5.359-9.359-12.895-9.359-.357,0-.7.014-1.045.04a8.314,8.314,0,0,1-5.3-1.216,6.707,6.707,0,0,1-1.5-1.3A1.969,1.969,0,0,0,23,54.4c.069.615.173,1.329.329,2.113.317,1.6.317,1.6-.128,2.56-.168.363-.375.8-.618,1.4a18.35,18.35,0,0,0-1.152,4.349,4.9,4.9,0,0,0-1.863,3.838V70.3a4.888,4.888,0,0,0,2.609,4.332,11.859,11.859,0,0,0,5.606,7.17v.618l-6.192,3.052a7.03,7.03,0,0,0-3.666,6.175v2.177c0,1.319,0,4.406,16.43,4.406s16.429-3.087,16.429-4.406V91.778A7,7,0,0,0,46.905,85.491Zm.594,7.961c-1.025.625-5.195,1.492-13.143,1.492s-12.119-.867-13.144-1.492v-1.8a3.715,3.715,0,0,1,1.893-3.256l6.338-3.124a2.92,2.92,0,0,0,1.627-2.61V79.7l-.993-.427c-2.492-1.075-4.113-3.124-4.954-6.268l-.235-.876-.864-.269A1.66,1.66,0,0,1,22.855,70.3V68.657a1.64,1.64,0,0,1,.889-1.439l.771-.411.09-.869a15.448,15.448,0,0,1,1.022-4.223c.218-.533.4-.933.555-1.26a4.855,4.855,0,0,0,.62-3.08,11.726,11.726,0,0,0,6.772,1.382c.254-.022.516-.032.783-.032,6.152,0,9.155,2.228,9.741,7.226l.1.858.764.4a1.647,1.647,0,0,1,.892,1.444V70.3a1.654,1.654,0,0,1-1.169,1.556l-.865.269L43.588,73c-.842,3.143-2.462,5.192-4.954,6.266l-.992.429v2.975a2.9,2.9,0,0,0,1.584,2.588l6.2,3.169a3.723,3.723,0,0,1,2.071,3.35Z"/>
    <path class="cls-1" d="M59.249,63.5H75.678a1.643,1.643,0,0,0,0-3.286H59.249a1.643,1.643,0,0,0,0,3.286Z"/>
    <path class="cls-1" d="M82.25,63.5h1.643a1.643,1.643,0,0,0,0-3.286H82.25a1.643,1.643,0,0,0,0,3.286Z"/>
    <path class="cls-1" d="M60.891,88.144H59.249a1.643,1.643,0,1,0,0,3.285h1.642a1.643,1.643,0,1,0,0-3.285Z"/>
    <path class="cls-1" d="M70.749,88.144H67.463a1.643,1.643,0,1,0,0,3.285h3.286a1.643,1.643,0,1,0,0-3.285Z"/>
    <path class="cls-1" d="M78.964,88.144H77.321a1.643,1.643,0,1,0,0,3.285h1.643a1.643,1.643,0,1,0,0-3.285Z"/>
    <path class="cls-1" d="M88.822,88.144H85.536a1.643,1.643,0,1,0,0,3.285h3.286a1.643,1.643,0,1,0,0-3.285Z"/>
    <path class="cls-1" d="M94.227,88.849a1.643,1.643,0,0,0,1.166,2.809,1.647,1.647,0,1,0-1.166-2.809Z"/>
    <path class="cls-1" d="M95.393,70.071H59.249a1.643,1.643,0,1,0,0,3.286H95.393a1.643,1.643,0,0,0,0-3.286Z"/>
    <path class="cls-1" d="M95.393,79.929H59.249a1.643,1.643,0,1,0,0,3.286H95.393a1.643,1.643,0,0,0,0-3.286Z"/>
  </g>
</svg>
