<svg id="Layer_1" data-name="Layer 1" xmlns="http://www.w3.org/2000/svg" viewBox="0 0 118 150">
  <defs>
    <style>
      .cls-1 {
        fill: #7fe2c3;
      }
    </style>
  </defs>
  <g id="_7fe2c3ff" data-name="#7fe2c3ff">
    <path class="cls-1" d="M70.71,7.684c.644.035,1.925.1,2.569.133a50.166,50.166,0,0,0-6.628,11.277c-2.653,6.453-5.4,12.914-6.867,19.76,4.466-3.528,8.9-7.1,13.369-10.619.119,4.893,2.086,10.7-1.869,14.651.637,5.074,1.309,10.142,2.086,15.2-.042,1.015.994,1.449,1.568,2.1-1.442,2.87-.224,6,.168,8.966q3.255,21.042,6.475,42.089c.315,2.317,2.177,3.864,3.8,5.327q1.754-2.184,3.388-4.452c-1.96-1.988-4.431-3.745-5.341-6.516-3.192-7.693-3.668-16.184-3.514-24.415a37.535,37.535,0,0,1,6.391-20.8c1.008-1.372,2.275-3.108,4.234-2.681a13.463,13.463,0,0,1,1.68,3.71c-1.771-.07-3.87-.476-5.158,1.085-4.515,5.354-6.125,12.55-6.244,19.41A54.1,54.1,0,0,0,84.444,106c1.309,2.463,3.955,3.674,6.4,4.7-2.421,5.789-5.284,11.389-7.65,17.191-1.974,4.69.077,11.06-4.613,14.42.707-1.68,1.9-3.248,1.96-5.124.126-1.7-1.414-2.73-2.429-3.829.686-.833,1.365-1.659,2.044-2.492-2.338-5.074-7.84-8.112-9.135-13.712-2.162-7.35-2.477-15.042-3.926-22.539-1.533-9.086-2.625-18.248-3.717-27.4a76.2,76.2,0,0,0-10.171,3.647c-.553,4.865-1.526,9.688-1.9,14.573-.147,1.568,1.638,3.269.308,4.634a44.373,44.373,0,0,0-5.3,8.554c.994,1.771,2.086,3.486,3.149,5.215-2.134,6.922-7.433,12.291-10.6,18.724a45.009,45.009,0,0,0-.7,5.494c-.917-2.26-.392-4.675.147-6.95q-1.669-.882-3.325-1.778,1.355-1.648,2.66-3.339c-.763-3.409-1.666-6.909-3.843-9.722-2.016-2.919-5.3-4.592-7.44-7.392,2.673-1.673,6.271-2.254,8.14-4.963C36,89.272,36.545,84.387,37.826,79.69,33.871,82.567,29.8,85.3,25.78,88.082c.105-1.421-.413-3.737,1.561-4.087a26,26,0,0,0,10.541-6.37,10.712,10.712,0,0,0,.9-2.786c2.345-11.2,4.837-22.378,6.9-33.633-.9-.112-1.792-.224-2.688-.329,1.575-4.256,3.248-8.54,3.766-13.083A24.472,24.472,0,0,1,53,25.029c4.025-1.141,7.2-4.829,11.7-4.038.728-4.865,3.535-9.142,6-13.307m-8.1,14.154c-1.33,1.406-2.9,2.764-3.22,4.787a47.671,47.671,0,0,1-3.318,10.283c.861.84,1.722,1.687,2.583,2.527,1.82-5.978,3.332-12.054,5.481-17.926-.385.084-1.148.245-1.526.329m-3.43,19.676a18.357,18.357,0,0,0-1.19,4.626l-.833-.469a16.9,16.9,0,0,0-1.645,4.081c-1.589,6.965-3.248,13.923-4.235,21,2.485-2.653,2.2-6.474,3-9.785.567-3.689,1.8-7.294,1.743-11.06.322.483.644.966.952,1.456-1.512,5.656-2.149,11.494-3.227,17.24,3.094-1.477,6.083-3.171,9.205-4.605-.588-6.538-1.806-13.006-2.436-19.537.728-1.042,2.541-1.028,3.71-1.581-.231-1.449-.462-2.891-.693-4.34a22.642,22.642,0,0,0-4.347,2.975M50.866,72.375c-1.253,4.956-1.694,10.094-2.953,15.056a4.74,4.74,0,0,1-2.135,3.1c-2.5,1.4-5.187,2.45-7.546,4.088a83.126,83.126,0,0,0,6.5,6.916c1.547,1.428,1.015,3.626.938,5.473.735-.21,1.463-.413,2.2-.623.238-.713.476-1.434.72-2.148a52.7,52.7,0,0,0-3.009-4.984c.854-3.913,3.6-6.93,5.844-10.108a11.163,11.163,0,0,1-.854-5.193c.539-4.263,1.225-8.512,1.785-12.768C51.979,71.479,51.237,72.074,50.866,72.375Z"/>
    <path class="cls-1" d="M56.683,49.269a2.535,2.535,0,0,1,.791-2.562c-.021.623-.049,1.862-.063,2.478Z"/>
  </g>
</svg>
