<svg id="Layer_1" data-name="Layer 1" xmlns="http://www.w3.org/2000/svg" viewBox="0 0 118 150">
  <defs>
    <style>
      .cls-1 {
        fill: #7fe2c3;
      }
    </style>
  </defs>
  <g id="_7fe2c3ff" data-name="#7fe2c3ff">
    <path class="cls-1" d="M59.627,28.469c1.58-1,3.742-2.275,5.53-1.028,2.424,1.628,2.923,4.723,3.921,7.265,3.582,13.165,6.481,26.519,10.568,39.546,4.444-.285,8.929-.808,13.36-.154,1.521.273,3.268.57,4.076,2.073-5.347.535-10.61,1.562-15.874,2.62,3.482,10.111,7.218,20.192,12.363,29.6,2.786,5.269,6,10.556,10.859,14.168-6.2.641-12.849.582-18.481-2.43a17.691,17.691,0,0,1-7.77-7.657c-4.747-9.475-7.289-19.812-10.17-29.958-6.624,2.269-13.325,4.722-19.176,8.637,5.18-2.317,10.621-4.675,16.443-4.247a75.9,75.9,0,0,0-25.087,15.415c-4.36,4.551-9.2,8.763-12.493,14.2-1.431,2.258-2.875,4.747-5.388,5.947a6.035,6.035,0,0,1-8.15-2.989c-1.307-2.613-.143-5.489.677-8.055C17.77,103.783,21,96.262,24.358,88.8,31.379,73.908,38.639,59.11,46.914,44.865c3.5-5.947,6.719-12.541,12.713-16.4M56.579,57.524c-3.766,8.174-7.36,16.431-11.3,24.522C52.064,79.5,59.169,78,66.238,76.492c-2.126-9-4.526-17.958-6.231-27.047A78.394,78.394,0,0,1,56.579,57.524Z"/>
  </g>
</svg>
