<svg id="cursive" data-name="Layer 1" xmlns="http://www.w3.org/2000/svg" viewBox="0 0 183.5 193.9">
  <defs>
    <style>
      .cls-1 {
        fill: rgba(255,255,255,0) !important;
      }
    </style>
  </defs>
  <g id="_ffffffff" data-name="#ffffffff">
    <path class="cls-1" d="M92.1,4c-9.8,6.3-15.3,17-21.4,26.5C53,60.5,37.4,91.8,22.5,123.4c-7.1,15.4-14.2,30.9-19.9,46.8-1.5,4.6-3.7,9.5-2,14.4,1.2,5.2,6.1,9.4,11.5,9.2,6.2.1,11.3-4.5,14.2-9.7a63.272,63.272,0,0,1,9.5-13.5,239.806,239.806,0,0,1,28.9-28.1,171.783,171.783,0,0,1,39.6-21.8c-11.3-.3-22.3,3.6-32.4,8.4,11.7-7.6,24.8-12.6,37.9-17.1,5.1,18.3,10.3,36.7,17.7,54.3,2.9,7.1,7,14,13.5,18.4,12.2,8.8,28.1,9.9,42.5,8-8.1-5.4-13.4-13.9-18.4-22-12.1-20.8-20.8-43.4-28.5-66.2a285.3,285.3,0,0,1,31.8-5.4c-1.2-3.1-4.8-3.6-7.6-4.1-9-1.2-18.2-.3-27.2.5-8.4-26.1-14.2-52.9-21.4-79.3-1.8-5.3-2.9-11.5-7.6-15.2C100.4-1.7,95.6,1.5,92.1,4Z"/>
  </g>
  <path d="M92.1,4c3.5-2.5,8.4-5.7,12.6-2.9,4.7,3.6,5.8,9.9,7.6,15.2,7.2,26.4,13,53.2,21.4,79.3,9-.8,18.1-1.7,27.2-.5,2.8.5,6.4,1.1,7.6,4.1a310.418,310.418,0,0,0-31.8,5.4c7.8,22.7,16.4,45.4,28.5,66.2,5,8.1,10.3,16.6,18.4,22-14.4,1.9-30.3.8-42.5-8-6.4-4.4-10.5-11.3-13.5-18.4-7.4-17.6-12.6-36-17.7-54.3-13.1,4.5-26.2,9.5-37.9,17.1,10.1-4.8,21-8.7,32.4-8.4-14,5.6-27.6,12.7-39.6,21.8-10.6,8.4-20,18.1-28.9,28.1a67.045,67.045,0,0,0-9.5,13.5c-2.9,5.2-8,9.8-14.2,9.7-5.5.2-10.3-4-11.5-9.2-1.6-4.9.6-9.8,2-14.4,5.8-16,12.8-31.4,19.9-46.8,14.8-31.7,30.4-63,48.1-93C76.8,20.9,82.2,10.2,92.1,4m14.4,95.8-12.8-53L64.5,111C76.8,106,106.5,99.8,106.5,99.8Z"/>
</svg>
