<svg id="Layer_1" data-name="Layer 1" xmlns="http://www.w3.org/2000/svg" viewBox="0 0 111.721 112.947">
  <defs>
    <style>
      .cls-1 {
        fill: #55e6c1;
      }
    </style>
  </defs>
  <g>
    <g>
      <path class="cls-1" d="M111.721,107.877V5.069A5.086,5.086,0,0,0,106.628,0H33.592A5.089,5.089,0,0,0,28.5,5.069V107.877a5.09,5.09,0,0,0,5.095,5.07h73.036A5.088,5.088,0,0,0,111.721,107.877Zm-5.991,1.5H77.435a6.9,6.9,0,0,0,0-7.133h29.529v5.9A1.237,1.237,0,0,1,105.73,109.38ZM32.064,97.491V14.267h76.091V97.491Zm37.721,11.725a3.776,3.776,0,1,1,3.775-3.776h0A3.779,3.779,0,0,1,69.785,109.216ZM33.382,3.567h73.454A1.282,1.282,0,0,1,108.155,4.8v5.9H32.064V4.8a1.281,1.281,0,0,1,1.318-1.236ZM32.064,108.144v-5.9H61.591a6.915,6.915,0,0,0,0,7.133H33.3A1.236,1.236,0,0,1,32.064,108.144Z"/>
      <path class="cls-1" d="M73.351,7.729a1.783,1.783,0,0,0-1.783-1.784H68a1.783,1.783,0,0,0,0,3.566h3.568A1.782,1.782,0,0,0,73.351,7.729Z"/>
      <path class="cls-1" d="M92.44,22.373a1.888,1.888,0,0,0,.553,1.335l7.551,7.552a1.888,1.888,0,0,0,2.67-2.671h0l-7.552-7.551a1.888,1.888,0,0,0-3.222,1.335Z"/>
      <path class="cls-1" d="M83,22.373a1.879,1.879,0,0,0,.553,1.335l3.775,3.775A1.888,1.888,0,0,0,90,24.814h0l-3.776-3.776A1.887,1.887,0,0,0,83,22.373Z"/>
      <path class="cls-1" d="M93.78,28.584a1.888,1.888,0,1,0,0,2.681A1.989,1.989,0,0,0,93.78,28.584Z"/>
      <path class="cls-1" d="M94.88,32.366a1.887,1.887,0,0,0,0,2.668h0l5.664,5.664a1.888,1.888,0,1,0,2.675-2.664l0,0-5.663-5.664a1.887,1.887,0,0,0-2.667,0l0,0Z"/>
      <path class="cls-1" d="M93.774,38.03,76.784,21.038a1.888,1.888,0,0,0-2.67,2.67L91.105,40.7a1.887,1.887,0,1,0,2.669-2.669Z"/>
      <path class="cls-1" d="M97.556,41.8a1.888,1.888,0,1,0,0,2.68A1.985,1.985,0,0,0,97.556,41.8Z"/>
      <path class="cls-1" d="M103.214,47.469l-1.888-1.888a1.887,1.887,0,0,0-2.669,2.669l1.887,1.888a1.887,1.887,0,1,0,2.673-2.665Z"/>
    </g>
    <path class="cls-1" d="M1.7,10.826a5.821,5.821,0,0,0,0,8.224l3.887,3.887,0,0L9.447,26.8l0,0L47.568,64.917a3.445,3.445,0,0,0,.556.452l6.864,4.492.04.025A5.481,5.481,0,0,0,58,70.894,3.758,3.758,0,0,0,61.3,68.966a4.537,4.537,0,0,0-.542-4.814l-2.527-3.976-.007,0c-.11-.179-.231-.358-.36-.546l-.675-.993L56.209,57.2a3.525,3.525,0,0,0-.417-.5L14.6,15.5l-.786-.786h0L9.924,10.826A5.814,5.814,0,0,0,1.7,10.826Zm6.354,9.651,3.3-3.3,3.857,3.856-3.3,3.3ZM58,67.409a2.414,2.414,0,0,1-1.1-.465l-1.512-.989,1.464-1.463.971,1.529C58.389,66.918,58.42,67.409,58,67.409ZM14.375,26.8l3.3-3.3L53.328,59.157l1.609,2.364a1.807,1.807,0,0,0-.258.212l-2.044,2.043a1.859,1.859,0,0,0-.2.247l-2.4-1.57ZM4.164,16.585a2.33,2.33,0,0,1,3.3-3.3h0l1.428,1.427-3.3,3.3Z"/>
  </g>
</svg>
