<svg id="Layer_1" data-name="Layer 1" xmlns="http://www.w3.org/2000/svg" viewBox="0 0 118 150">
  <defs>
    <style>
      .cls-1 {
        fill: #7cdcbe;
      }
    </style>
  </defs>
  <g id="_7cdcbeff" data-name="#7cdcbeff">
    <path class="cls-1" d="M32.634,21.969c11.228-.34,22.4,1.2,33.642.89,2.452,4.1,1.9,11.485,9.133,9.191q15.682,42.459,30.9,85.143c-10.389,3.084-20.27,7.663-30.609,10.887a70.12,70.12,0,0,1-3.665-10.529c-2.069.4-4,1.4-6.125,1.554-.7-4.538-2.559-8.785-3.889-13.156a74.5,74.5,0,0,0-9.532-.058c-1.771,6.923-3.258,13.912-5.211,20.785-8.785-4.023-17.785-7.6-26.47-11.81,3.191-6.449-5.344-6.382-9.117-9.058,6.632-28.041,14.353-55.8,20.943-83.839M35,24.371C28.279,50.874,21.523,77.485,15.032,104c6.034,4.006,14.461,6.474,21.392,9.973,2.028-6.765,2.269-14.22,5.269-20.577,6.507.714,13.064.922,19.555,1.82,2.743,6.648,4.471,13.663,7.072,20.369,8.486-3.116,17.029-6.083,25.539-9.141-10.056-27-18.873-54.593-29.935-81.179Q49.439,25.356,35,24.371Z"/>
    <path class="cls-1" d="M49.106,50.8A119.7,119.7,0,0,1,55.721,72.54c-3.59.033-7.188.208-10.77-.025C46.322,65.285,46.837,57.813,49.106,50.8Z"/>
  </g>
</svg>
