<svg id="Layer_1" data-name="Layer 1" xmlns="http://www.w3.org/2000/svg" viewBox="0 0 118 150">
  <defs>
    <style>
      .cls-1 {
        fill: #55e6c1;
      }
    </style>
  </defs>
  <g id="_000000ff" data-name="#000000ff">
    <path class="cls-1" d="M56.994,38.966a6.418,6.418,0,0,1,4.335.088c15.429,5.122,30.874,10.2,46.3,15.337a3.742,3.742,0,0,1,2.509,2.833v1.058a3.743,3.743,0,0,1-2.636,2.941c-5.817,1.961-11.654,3.863-17.487,5.788q1.246,7.167,1.774,14.43C95,80.3,98.2,79.088,101.415,77.95a4.683,4.683,0,0,1,4.718,1.082,12.344,12.344,0,0,1,4,8.514v1.019c-.175,1.777-.827,3.8-2.56,4.618-1.642.715-3.344,1.3-5.042,1.865A1.485,1.485,0,0,1,100.52,93.4c.28-1.247,1.774-1.351,2.749-1.794,1.142-.52,2.653-.6,3.464-1.63.954-2.469.04-5.29-1.359-7.411-.735-1.011-1.941-2.357-3.32-1.67-4.818,1.75-9.632,3.524-14.458,5.254a13.011,13.011,0,0,1,3.572,9.883,39.739,39.739,0,0,1,4.574-1.57,1.493,1.493,0,0,1,1.147,2.417,9.147,9.147,0,0,1-2.984,1.323,9.06,9.06,0,0,1,4.5,4.438,2.458,2.458,0,0,1-1.442,3.084c-2.265.883-4.563,1.7-6.856,2.5a2.416,2.416,0,0,1-3.016-1c-.811-1.518-1.354-3.336-2.9-4.3a3.448,3.448,0,0,0-3.208-.028q-11.128,4.074-22.273,8.122a4.663,4.663,0,0,1-4.674-.731,12.358,12.358,0,0,1-4.358-8.694c-2.094-.363-4.175-.779-6.237-1.278-.008,2.081.176,4.163.088,6.244a2.488,2.488,0,0,1-2.145,2.265,19.192,19.192,0,0,1-8.713-.048,2.489,2.489,0,0,1-1.982-2.592c-.008-3.5.168-6.988.388-10.479-1.906-1.263-4.81-2.106-5.162-4.714a91.033,91.033,0,0,1,.332-9.628,1.469,1.469,0,0,1,2.277-1.111,1.545,1.545,0,0,1,.655,1.5c-.064,3.028-.467,6.068-.228,9.093a17.294,17.294,0,0,0,2.425,1.606,63.634,63.634,0,0,1,1.75-9.6,6.365,6.365,0,0,1-1.574-5.1,6.048,6.048,0,0,1,4.071-4.586q.006-1.829-.008-3.648-2.373-.8-4.75-1.57c-.356,2.042-.663,4.091-.907,6.149-.144.763-.136,1.777-.967,2.149a1.483,1.483,0,0,1-2.117-1.6c.244-2.565.707-5.1,1.1-7.647C22.07,65,16.117,63.112,10.205,61.1a3.721,3.721,0,0,1-2.341-2.717V57.3A3.666,3.666,0,0,1,10.4,54.383Q33.688,46.66,56.994,38.966M11.5,57.176c-.7-.056-.883,1.05-.18,1.15,8.518,2.861,17.075,5.617,25.6,8.474q7.719-5.088,15.421-10.22a4.491,4.491,0,0,1,.819-3.779c2.138-2.605,6.081-3.056,9.089-1.874,2.1.771,3.955,2.933,3.412,5.282-.372,1.8-2.154,2.848-3.84,3.176a12.526,12.526,0,0,1-7.33-.567c-4.7,2.984-9.289,6.14-13.951,9.184,5.693,1.886,11.39,3.755,17.075,5.653a3.3,3.3,0,0,0,2.177.176c4.047-1.279,8.054-2.685,12.1-3.971a1.481,1.481,0,0,1,1.922,1.913c-.224.76-1.071.935-1.718,1.175-3.772,1.214-7.527,2.5-11.3,3.715a5.918,5.918,0,0,1-3.792-.064c-6.124-2.013-12.24-4.054-18.369-6.064q-.006,1.343,0,2.693a6.265,6.265,0,0,1,3.112,2.237,5.789,5.789,0,0,1-.615,7.291,81.48,81.48,0,0,1,2.146,14.43c2.233.571,4.486,1.055,6.759,1.438A4.778,4.778,0,0,1,52.8,95.64q18.026-6.569,36.059-13.124a142.622,142.622,0,0,0-1.722-14.558c-2.609.867-5.214,1.75-7.834,2.581a1.491,1.491,0,0,1-2.034-1.558,1.722,1.722,0,0,1,1.466-1.4c9.241-3.029,18.469-6.1,27.7-9.161.643.064,1.055-1.035.3-1.154C91.623,52.222,76.494,47.244,61.377,42.23c-1.139-.375-2.381-.927-3.564-.371C42.381,46.984,26.928,52.05,11.5,57.176m45.951-3.684a3.608,3.608,0,0,0-2,1.231.875.875,0,0,0,.436,1.438,9.729,9.729,0,0,0,5.948.1c.7-.148,1.259-.923.676-1.542-1.191-1.447-3.344-1.638-5.062-1.227M35.957,76.324a2.661,2.661,0,1,0,3.823,2.285,2.685,2.685,0,0,0-3.823-2.285m-.124,7.962c-1.714,7.087-2.062,14.414-2.165,21.677a17.455,17.455,0,0,0,6.9.008A99.258,99.258,0,0,0,38.426,84.29a16.505,16.505,0,0,1-2.593,0m44.932,4.362A12.676,12.676,0,0,1,84.352,98.5c1.275-.655,3.4-.607,3.712-2.341a8.9,8.9,0,0,0-2.964-8.11c-1.347-1.122-2.945.284-4.335.595M57.6,97.07a12.711,12.711,0,0,1,3.6,9.876c6.3-2.329,12.617-4.591,18.917-6.9.967-.247,1.194-1.366,1.258-2.221A9.4,9.4,0,0,0,78.9,91.053c-.591-.575-1.418-1.286-2.3-.878-6.34,2.277-12.656,4.618-19,6.895m-4.111,1.558c-1.031,1.079-.807,2.777-.6,4.131.5,2.177,1.57,4.574,3.707,5.569,1.063.415,1.506-.943,1.59-1.746a9.124,9.124,0,0,0-2.9-7.511c-.484-.355-1.227-.9-1.8-.443m33.039,2.257a13.478,13.478,0,0,1,2.968,4.4c1.95-.727,3.915-1.41,5.861-2.158A7.589,7.589,0,0,0,86.526,100.885Z"/>
  </g>
</svg>
