<svg id="Layer_1" data-name="Layer 1" xmlns="http://www.w3.org/2000/svg" viewBox="0 0 118 150">
  <defs>
    <style>
      .cls-1 {
        fill: #55e6c1;
      }
    </style>
  </defs>
  <g id="_000000ff" data-name="#000000ff">
    <path class="cls-1" d="M75.654,30.018c.6-.47,1.38-1.17,2.187-.727,1.612,1.071,2.363,3.435,4.506,3.649,1.807.174,2.831-1.6,4.329-2.253,1.1-.17,1.723.94,2.387,1.616,1.431,1.74,2.93,3.416,4.388,5.132.435.569,1.016,1.2.767,1.984-.775,1.328-2.51,1.984-2.862,3.578a2.933,2.933,0,0,0,2.779,3.518c1.692.067,2.661-1.566,4.06-2.218,1.166-.32,1.854.941,2.55,1.637,1.629,2.111,3.637,3.933,5.072,6.178.292,1.684-1.708,2.538-2.684,3.606.221.98.324,2.138,1.229,2.763,1.5,1.328,4.072-.166,5.238,1.676V70c-1,2.032-3.708.463-5.206,1.775a2.921,2.921,0,0,0-.056,4.554c1.5,1.336,4.06-.146,5.262,1.672v9.812c-.909,2.1-3.665.522-5.171,1.8-1.719,1.3-1.091,3.72-1.19,5.574.044,1.154.135,3.123-1.51,3.1-3.973.067-7.953.087-11.922-.008a1.463,1.463,0,0,1-1.159-2.3c.411-.66,1.273-.609,1.953-.648,3.206-.008,6.412.02,9.622,0,.04-2.3-.352-4.894,1.143-6.855A6.676,6.676,0,0,1,106.6,85.9c0-1.933,0-3.862,0-5.8a6.9,6.9,0,0,1-4.787-2.028,5.935,5.935,0,0,1,.237-8.25,7.117,7.117,0,0,1,4.554-1.783q-.006-2.91,0-5.815a6.709,6.709,0,0,1-4.953-2.2c-1.336-1.435-1.459-3.475-1.474-5.329q-25.344,0-50.687,0a19.512,19.512,0,0,1-4.017-.17,1.464,1.464,0,0,1,.139-2.7,30.306,30.306,0,0,1,4.755-.115Q63.016,40.87,75.654,30.018M55,51.7q23.352.006,46.7,0c-1.084-1.276-2.179-2.545-3.262-3.818a6,6,0,1,1-7.8-9.1c-1.273-1.483-2.558-2.961-3.815-4.459a6.567,6.567,0,0,1-5.309,1.557c-1.9-.261-3.289-1.7-4.447-3.107Q66.035,42.236,55,51.7Z"/>
    <path class="cls-1" d="M14.919,52.638c.356-1.071,1.668-.925,2.561-.964,5.685.047,11.37-.02,17.054.031a1.542,1.542,0,0,1,1.736,1.977c-.265.941-1.341,1.02-2.151,1.016q-8.17-.006-16.342,0c-.036,2.3.352,4.906-1.15,6.866A6.681,6.681,0,0,1,11.4,64.126c0,1.933,0,3.862,0,5.8a7.042,7.042,0,0,1,4.605,1.838,5.938,5.938,0,0,1-.036,8.421A7.109,7.109,0,0,1,11.4,81.986q.006,2.906,0,5.811a6.72,6.72,0,0,1,4.937,2.186c1.348,1.435,1.475,3.483,1.49,5.349q29.1,0,58.194,0c.688.031,1.573,0,1.957.707a1.465,1.465,0,0,1-1.147,2.246c-3.063.154-6.135.008-9.2.047q-12.672,10.834-25.32,21.7c-.64.5-1.637,1.237-2.388.534-1.447-1.119-2.245-3.278-4.273-3.475-1.819-.182-2.838,1.628-4.356,2.257-1.281.107-1.926-1.257-2.712-2.036-1.542-2.02-3.5-3.732-4.815-5.91-.138-2.075,2.961-2.617,2.921-4.767A2.905,2.905,0,0,0,22.07,104.1c-1.044.589-2.115,2.3-3.439,1.4-1.589-1.443-2.807-3.241-4.27-4.811-.8-1.012-1.893-1.885-2.277-3.154.155-1.522,2.02-1.933,2.685-3.155a3.014,3.014,0,0,0-2.467-3.4c-1.336-.268-3.072.281-3.9-1.118V80.025c1.008-2.039,3.72-.454,5.218-1.786A2.914,2.914,0,0,0,13.67,73.7c-1.495-1.348-4.068.135-5.27-1.684V62.213c.32-.419.558-1.107,1.2-1.08,1.625-.221,3.8.174,4.728-1.557.964-2.182.083-4.665.593-6.938M16.3,98.328c1.092,1.277,2.183,2.546,3.27,3.827a6.6,6.6,0,0,1,4.645-1.645,5.93,5.93,0,0,1,5.49,6.136,6.436,6.436,0,0,1-2.348,4.6c1.277,1.486,2.562,2.965,3.823,4.463a6.522,6.522,0,0,1,5.317-1.553c1.9.264,3.281,1.7,4.439,3.107Q51.958,107.783,63,98.328,39.649,98.316,16.3,98.328Z"/>
    <path class="cls-1" d="M23.521,60.738c-.115-.913.411-2.024,1.462-1.98,4.622-.072,9.251-.064,13.876,0a1.46,1.46,0,0,1,1.3,2.15c-.363.822-1.356.818-2.118.822q-5.758-.01-11.516,0-.012,13.289,0,26.585Q59,88.3,91.475,88.3c.024-8.847-.044-17.7.031-26.545-13.606-.091-27.221,0-40.827-.043a1.563,1.563,0,0,1-1.791-1.949c.253-.965,1.344-1.087,2.178-1.056q20.576.018,41.148,0c.814-.028,1.894.067,2.154,1.008a17.062,17.062,0,0,1,.119,3.016c-.016,8.844,0,17.687-.008,26.534.059.771-.209,1.759-1.079,1.941a32.116,32.116,0,0,1-3.985.1q-31.812.006-63.621,0c-.656-.04-1.479.043-1.913-.566-.439-.522-.325-1.249-.372-1.878C23.533,79.492,23.513,70.115,23.521,60.738Z"/>
    <path class="cls-1" d="M30.945,70.676c-.985-.395-.807-2.4.407-2.21,2.609-.027,5.226-.039,7.835.008,1.063-.106,1.154,1.36.684,2.02-1.052.447-2.242.19-3.352.246-.028,3.68.043,7.364-.028,11.045.028,1.146-1.6,1.079-2.324.652a5.008,5.008,0,0,1-.21-1.894c.028-3.269.008-6.534.016-9.8A24.853,24.853,0,0,1,30.945,70.676Z"/>
    <path class="cls-1" d="M68.017,69.471c-.087-.672.637-1.016,1.2-.993,2.245-.051,4.5-.055,6.744,0,1.182-.091,1.194,2.163.043,2.159-1.818.142-3.648.008-5.467.055v3.9a23.972,23.972,0,0,1,3.056.067.981.981,0,0,1,0,1.878,26.332,26.332,0,0,1-3.052.059V80.52c1.826.047,3.661-.091,5.483.059.759,0,.957.953.747,1.538-.087.778-1,.593-1.545.652-1.993-.028-3.989.035-5.981-.032-.562.016-1.3-.3-1.226-.98Q67.953,75.613,68.017,69.471Z"/>
    <path class="cls-1" d="M77.746,70.538c-.491-.652-.431-2.143.64-2.064,2.7-.035,5.42-.063,8.128.016.727-.024.759.87.759,1.392-.534,1.478-2.447.656-3.629.858,0,3.407,0,6.811.012,10.218-.083.534.185,1.514-.589,1.629-.68.289-2.036.174-1.945-.818-.064-3.677,0-7.353-.024-11.029A11.6,11.6,0,0,1,77.746,70.538Z"/>
    <path class="cls-1" d="M41.721,68.767a2.358,2.358,0,0,1,2.174-.024,4.822,4.822,0,0,1,.222,1.921c-.052,3.7.031,7.4-.036,11.093.115.905-1.052,1.075-1.7.909-1.1-.063-.771-1.356-.842-2.1C41.681,76.638,41.326,72.669,41.721,68.767Z"/>
    <path class="cls-1" d="M47.4,69.735a5.481,5.481,0,0,1,6.989-.007,4.187,4.187,0,0,1,1.047,3.4,4.065,4.065,0,0,1-2.368.028c-.2-.708-.189-1.589-.838-2.079-1.126-.767-3.166-.36-3.289,1.2a53.638,53.638,0,0,0-.012,6.661c.032,1.431,1.748,2.032,2.918,1.51,1.032-.355.925-1.676,1.383-2.49a1.938,1.938,0,0,1,2.107.273,3.622,3.622,0,0,1-2.122,4.111c-1.953.834-4.59.7-6.045-1-1.241-1.716-.763-3.953-.865-5.926C46.374,73.507,45.974,71.257,47.4,69.735Z"/>
    <path class="cls-1" d="M57.221,69.5c-.118-1.249,1.7-1.229,2.4-.648a55.269,55.269,0,0,1,.122,5.716c1.6-2.071,3-4.3,4.736-6.254.64.388,1.629.605,1.668,1.518a54.432,54.432,0,0,1-3.664,4.811c1.383,2.174,2.881,4.281,4.218,6.483.529.842-.518,1.728-1.333,1.7-.644.04-.944-.617-1.284-1.036-1.1-1.664-2.179-3.344-3.293-5-.352.446-.7.893-1.06,1.336a23.932,23.932,0,0,1-.13,4.226c-.7.6-2.5.565-2.384-.664Q57.185,75.594,57.221,69.5Z"/>
  </g>
</svg>
