<svg id="Layer_1" data-name="Layer 1" xmlns="http://www.w3.org/2000/svg" viewBox="0 0 118 150">
  <defs>
    <style>
      .cls-1 {
        fill: #55e6c1;
      }
    </style>
  </defs>
  <g>
    <path class="cls-1" d="M102.583,37.686,95,36V30.645a1.537,1.537,0,0,0-1.538-1.538H85.994l-1.075-5.024A1.554,1.554,0,0,0,83.093,22.9L59.181,28.027l-23.87-5.312a1.538,1.538,0,0,0-1.836,1.168l-1.16,5.224H24.543a1.537,1.537,0,0,0-1.538,1.537v5.14l-7.3,1.565a1.557,1.557,0,0,0-1.182,1.829l7.633,35.68-7.909,35.623a1.539,1.539,0,0,0,1.168,1.835l7.588,1.689v5.352a1.537,1.537,0,0,0,1.538,1.537h7.463l1.075,5.024a1.553,1.553,0,0,0,1.826,1.183s23.658-5.094,23.778-5.157l24,5.342a1.553,1.553,0,0,0,1.835-1.169l1.16-5.223h7.772A1.537,1.537,0,0,0,95,119.357v-5.14l7.3-1.565a1.543,1.543,0,0,0,1.181-1.826L95.842,75.143l7.909-35.623A1.537,1.537,0,0,0,102.583,37.686ZM23.005,110.727l-5.416-1.2,5.416-24.367Zm0-46.669L17.857,40.023l5.148-1.1V64.058ZM82.5,26.239l.614,2.868H69.107Zm-46.073-.178,13.7,3.046H35.748Zm-.378,97.7-.614-2.869H49.44Zm46.074.178-13.706-3.047H82.8ZM92,117.9H26.005V32.107H92Zm8.147-8.053L95,110.944V85.808ZM95,64.709V39.138l5.416,1.2Z"/>
    <path class="cls-1" d="M80.879,89.7l4.172-5.357a1.546,1.546,0,0,0,.328-1.284,1.528,1.528,0,0,0-1.5-1.158H75.832a1.573,1.573,0,0,0-1.6,1.365A1.5,1.5,0,0,0,75.726,84.9H80.8l-3.022,3.85a1.539,1.539,0,0,0,0,1.9L80.8,94.5H37.745l3.022-3.85a1.536,1.536,0,0,0,0-1.9L37.745,84.9H68.412a1.572,1.572,0,0,0,1.6-1.365A1.5,1.5,0,0,0,68.519,81.9H34.628a1.482,1.482,0,0,0-1.169,2.393l4.21,5.406L33.459,95.1A1.482,1.482,0,0,0,34.628,97.5H83.919a1.483,1.483,0,0,0,1.17-2.394Z"/>
    <path class="cls-1" d="M78.471,101.1H40.182a1.573,1.573,0,0,0-1.6,1.365,1.5,1.5,0,0,0,1.494,1.635H78.365a1.573,1.573,0,0,0,1.6-1.366A1.5,1.5,0,0,0,78.471,101.1Z"/>
    <path class="cls-1" d="M78.471,107.7H40.182a1.573,1.573,0,0,0-1.6,1.366,1.5,1.5,0,0,0,1.494,1.634H78.365a1.573,1.573,0,0,0,1.6-1.365A1.5,1.5,0,0,0,78.471,107.7Z"/>
    <path class="cls-1" d="M75.092,40.867A10.69,10.69,0,0,0,67.525,38.3a14.834,14.834,0,0,0-8.251,3.472A14.84,14.84,0,0,0,51.022,38.3a10.693,10.693,0,0,0-7.567,2.568c-4.921,4.114-6.544,11.813-3.543,16.814,5.262,8.769,18.022,16.6,18.562,16.925a1.551,1.551,0,0,0,1.6,0c.54-.329,13.3-8.156,18.562-16.925C81.636,52.68,80.013,44.981,75.092,40.867ZM76,56.1c-4.152,6.919-13.872,13.528-16.725,15.373C56.422,69.629,46.706,63.026,42.549,56.1c-2.228-3.713-.883-9.728,2.878-12.872a7.606,7.606,0,0,1,4.964-1.883c2.471,0,5.15,1.2,7.87,3.581a1.536,1.536,0,0,0,2.025,0c4.683-4.1,9.241-4.7,12.834-1.7C76.881,46.371,78.226,52.385,76,56.1Z"/>
  </g>
</svg>
