<svg id="Layer_1" data-name="Layer 1" xmlns="http://www.w3.org/2000/svg" viewBox="0 0 101.111 127.824">
  <defs>
    <style>
      .cls-1 {
        fill: #55e6c1;
      }
    </style>
  </defs>
  <g>
    <path class="cls-1" d="M93.389,0H7.722A7.722,7.722,0,0,0,0,7.722V120.1a7.721,7.721,0,0,0,7.722,7.721H93.389a7.721,7.721,0,0,0,7.722-7.721V7.722A7.722,7.722,0,0,0,93.389,0Zm.232,120.11a.224.224,0,0,1-.224.225H7.714a.224.224,0,0,1-.224-.224V82.637H93.621V120.11Zm0-44.963H7.49V7.714a.224.224,0,0,1,.224-.224H93.4a.224.224,0,0,1,.224.224Z"/>
    <path class="cls-1" d="M40.847,91.375H21.525A3.81,3.81,0,0,0,17.7,94.7a3.746,3.746,0,0,0,3.722,4.167H40.744a3.812,3.812,0,0,0,3.825-3.322A3.746,3.746,0,0,0,40.847,91.375Z"/>
    <path class="cls-1" d="M55.919,103.358H21.533a3.811,3.811,0,0,0-3.824,3.322,3.746,3.746,0,0,0,3.722,4.168H55.817a3.813,3.813,0,0,0,3.824-3.323A3.746,3.746,0,0,0,55.919,103.358Z"/>
    <path class="cls-1" d="M79.464,103.358H70.25a3.813,3.813,0,0,0-3.824,3.322,3.747,3.747,0,0,0,3.722,4.168h9.214a3.813,3.813,0,0,0,3.824-3.323A3.746,3.746,0,0,0,79.464,103.358Z"/>
    <path class="cls-1" d="M54.162,59.8,42.623,22.159a3.983,3.983,0,0,0-2.252-2.376,10.223,10.223,0,0,0-8.084,0,3.98,3.98,0,0,0-2.252,2.376L18.558,59.8a3.368,3.368,0,0,0-.124.679q0,1.6,2.006,2.777a8.132,8.132,0,0,0,4.165,1.172q2.652,0,3.147-1.789l2.1-7.713H42.87l2.1,7.713q.493,1.79,3.147,1.789a8.14,8.14,0,0,0,4.165-1.172q2.005-1.172,2.006-2.777A3.536,3.536,0,0,0,54.162,59.8ZM31.825,47.435l4.5-16.537,4.5,16.537Z"/>
    <path class="cls-1" d="M78.429,38.056Q74.971,34.6,67.932,34.6a17.841,17.841,0,0,0-7.069,1.45q-3.4,1.451-3.4,3.487a6.356,6.356,0,0,0,.857,3.3,2.606,2.606,0,0,0,2.326,1.45,7.84,7.84,0,0,0,2.326-1.142,9.265,9.265,0,0,1,4.835-1.141A4.138,4.138,0,0,1,71.3,43.427a5.334,5.334,0,0,1,1.1,3.362v.646H70.154q-6.748,0-10.359,2.021t-3.612,6.955q0,4.177,2.179,6.363a7.4,7.4,0,0,0,5.463,2.185q4.954,0,9.075-5.229v1.51a2.737,2.737,0,0,0,1.24,2.25,4.925,4.925,0,0,0,3.037.927,6.073,6.073,0,0,0,3.378-.868,2.5,2.5,0,0,0,1.333-2.108V46.694A11.722,11.722,0,0,0,78.429,38.056ZM70.715,56.43q-2.133,2.215-4.264,1.628a2.38,2.38,0,0,1-1.707-2.015,2.632,2.632,0,0,1,1.115-2.707,5.885,5.885,0,0,1,2.6-.97,29.734,29.734,0,0,1,3.675-.188h.27v.25h0A5.615,5.615,0,0,1,70.715,56.43Z"/>
  </g>
</svg>
