<svg id="Layer_1" data-name="Layer 1" xmlns="http://www.w3.org/2000/svg" viewBox="0 0 118 150">
  <defs>
    <style>
      .cls-1 {
        fill: #55e6c1;
      }
    </style>
  </defs>
  <g id="_000000ff" data-name="#000000ff">
    <path class="cls-1" d="M26.982,25.284H96.9a3.941,3.941,0,0,1,3.7,4.257q.018,45.455,0,90.91a3.952,3.952,0,0,1-3.666,4.265H27.013a4.134,4.134,0,0,1-2.843-1.406c-1.135-1.383-.851-3.294-.905-4.948-1.465-.109-3.111-.117-4.261-1.181a4.572,4.572,0,0,1-.486-6.483c1.154-1.41,3.077-1.569,4.766-1.646,0-2.055,0-4.11,0-6.164-1.491-.109-3.161-.14-4.323-1.224a4.589,4.589,0,0,1-.26-6.649c1.173-1.267,2.983-1.348,4.587-1.453,0-2.055,0-4.106,0-6.16-1.491-.113-3.161-.14-4.327-1.224a4.572,4.572,0,0,1-.031-6.843c1.162-1.123,2.855-1.131,4.358-1.251q.006-3.088,0-6.168a8.851,8.851,0,0,1-3.635-.726,4.577,4.577,0,0,1-1.251-6.79c1.13-1.53,3.134-1.732,4.886-1.8,0-2.054,0-4.109,0-6.164-1.348-.12-2.828-.1-3.969-.944a4.564,4.564,0,0,1-.9-6.595c1.127-1.518,3.127-1.716,4.867-1.783,0-2.054,0-4.109,0-6.164-1.449-.116-3.053-.124-4.214-1.126a4.565,4.565,0,0,1-.26-6.832c1.157-1.2,2.905-1.254,4.455-1.352.05-1.662-.23-3.581.916-4.963a4.143,4.143,0,0,1,2.8-1.391m-.571,3.228a16.4,16.4,0,0,0-.179,3.779q0,42.915,0,85.822a13,13,0,0,0,.194,3.387,6.068,6.068,0,0,0,2.564.276c22.527-.035,45.055.019,67.582-.024.785.086,1.185-.574,1.076-1.277q.024-45.28.012-90.561c-.051-.606.124-1.542-.726-1.624-1.166-.128-2.335-.042-3.5-.054q-32.031-.012-64.06-.008a7.161,7.161,0,0,0-2.959.284m-5.073,6.261a1.619,1.619,0,0,0-.773,2.408c.567.932,1.8.691,2.711.792q.006-1.683,0-3.359a13.389,13.389,0,0,0-1.938.159m-.019,15.493a1.621,1.621,0,0,0-.738,2.424c.575.909,1.786.672,2.7.769q.006-1.683,0-3.367a11.4,11.4,0,0,0-1.961.174m-.039,15.5a1.622,1.622,0,0,0-.668,2.454c.594.866,1.771.6,2.668.711V65.577a10.126,10.126,0,0,0-2,.191m-.016,15.481a1.631,1.631,0,0,0-.633,2.478c.614.832,1.756.591,2.649.7V81.067a11.289,11.289,0,0,0-2.016.182m0,15.494a1.63,1.63,0,0,0-.594,2.521c.633.78,1.74.54,2.614.644q0-1.683,0-3.367a9.177,9.177,0,0,0-2.016.2m-.578,18.03c.637.757,1.732.5,2.594.613,0-1.118,0-2.241,0-3.355a8.932,8.932,0,0,0-2.035.2A1.632,1.632,0,0,0,20.682,114.773Z"/>
    <path class="cls-1" d="M58.081,40.824c1.309-1.394,3.4-1.006,5.108-1.029a3.273,3.273,0,0,1,3.3,2.218,13.172,13.172,0,0,1-.116,3.981,22.793,22.793,0,0,1,11.182,6.075A22.494,22.494,0,0,1,84.062,66.44c1.235.023,2.851-.028,3.457,1.305a11.421,11.421,0,0,1,.237,4.14,2.335,2.335,0,0,1-2.5,2.218q-23.276.035-46.554,0a2.344,2.344,0,0,1-2.525-1.9,13.129,13.129,0,0,1,.128-4.3c.525-1.46,2.242-1.457,3.527-1.46A22.5,22.5,0,0,1,46.39,52a22.847,22.847,0,0,1,11.128-6.009c-.116-1.7-.769-3.772.563-5.17m2.082,1.923q.129,1.41.268,2.827,1.509-.023,3.022,0,.139-1.414.276-2.827-1.784-.012-3.566,0m-9.636,9.59a19.451,19.451,0,0,0-7.745,14.134,12.189,12.189,0,0,1,3.131.182,1.445,1.445,0,0,1-.373,2.707c-2.156.175-4.327.016-6.491.07v1.733H84.842V69.43H52.628c-.765.051-1.717-.217-1.907-1.072a1.467,1.467,0,0,1,1.534-1.86c9.613-.051,19.23,0,28.843-.024A19.463,19.463,0,0,0,73.4,52.36,19.174,19.174,0,0,0,50.527,52.337Z"/>
    <path class="cls-1" d="M37.205,84.834a26.994,26.994,0,0,1,3.414-.077q22.541,0,45.082,0c.676,0,1.53.043,1.872.742A1.488,1.488,0,0,1,86.1,87.7c-16.185.008-32.377.05-48.558-.023C35.9,87.771,35.585,85.1,37.205,84.834Z"/>
    <path class="cls-1" d="M52.286,91.313a3.971,3.971,0,0,1,1.923-.28c1.674.047,3.36-.073,5.03.063.947.1.959,1.747.039,1.887-1.651.144-3.306.016-4.956.055q-.006,1.742,0,3.491a15.476,15.476,0,0,1,2.839.1c.617.183.551.96.346,1.434a8.529,8.529,0,0,1-3.185.26v3.5c1.643.043,3.289-.089,4.925.055.936.085.963,1.786.023,1.887-1.806.136-3.62.028-5.43.059-.672-.035-1.779.081-1.759-.878-.09-3.228.015-6.459-.043-9.687A4.112,4.112,0,0,1,52.286,91.313Z"/>
    <path class="cls-1" d="M69.535,91.426c.661-.575,2.346-.532,2.168.641.031,3.639.05,7.282-.012,10.922.093.648-.676.788-1.146.8-.893.062-1.324-.82-1.7-1.469-1.1-2.082-2.206-4.167-3.325-6.241-.058,2.408.1,4.828-.066,7.232-.447.714-2.194.7-2.183-.35-.05-3.624-.027-7.255-.011-10.879-.179-1.227,1.344-.979,2.109-.889,1.565,2.4,2.7,5.037,4.074,7.542C69.524,96.3,69.326,93.853,69.535,91.426Z"/>
    <path class="cls-1" d="M75.816,91.48c.447-.649,1.433-.28,2.1-.245.206,3.065-.077,6.141.148,9.2.112,1.887,3.36,2,3.655.159.252-3.088,0-6.2.132-9.3.707-.139,1.515-.4,2.152.1.217,2.424.027,4.871.1,7.3.023,1.693-.136,3.845-1.876,4.68-1.958.909-4.937.722-6.032-1.406-.684-1.655-.435-3.492-.478-5.232A51.533,51.533,0,0,1,75.816,91.48Z"/>
    <path class="cls-1" d="M38.059,91.449a1.606,1.606,0,0,1,2.222.159A42.407,42.407,0,0,1,42.93,96.16a50.991,50.991,0,0,1,2.9-4.948c.777-.124,2.2-.287,2.129.882.116,3.783-.012,7.574.05,11.361-.68.252-1.829.64-2.214-.195-.178-2.544-.008-5.107-.074-7.659a33.418,33.418,0,0,1-2.408,4.012c-.186.008-.563.02-.749.027a32.515,32.515,0,0,1-2.4-4.167c-.042,2.493.051,4.991-.031,7.484.031,1.049-1.736,1.076-2.171.362-.186-2.447-.019-4.91-.074-7.365A22.97,22.97,0,0,1,38.059,91.449Z"/>
    <path class="cls-1" d="M37.193,107.346a25.731,25.731,0,0,1,3.414-.089q14.979.006,29.958,0c.7-.008,1.577.086,1.891.831a1.48,1.48,0,0,1-1.511,2.113c-11.124.008-22.251.043-33.375-.019A1.446,1.446,0,0,1,37.193,107.346Z"/>
    <path class="cls-1" d="M77.288,107.475a7.411,7.411,0,0,1,2.54-.226c2.222.066,4.447-.081,6.661.066a1.441,1.441,0,0,1,1.08,2.175c-.54.94-1.767.672-2.661.734-2.419-.077-4.847.109-7.259-.089A1.452,1.452,0,0,1,77.288,107.475Z"/>
  </g>
</svg>
