<svg id="Layer_1" data-name="Layer 1" xmlns="http://www.w3.org/2000/svg" viewBox="0 0 118 150">
  <defs>
    <style>
      .cls-1 {
        fill: #55e6c1;
      }
    </style>
  </defs>
  <g id="_000000ff" data-name="#000000ff">
    <path class="cls-1" d="M25.8,30.886H75.774a11.458,11.458,0,0,1,7.02,2.764,11.244,11.244,0,0,1,3.767,8.6c.024,10.573,0,21.15.013,31.723a12.51,12.51,0,0,1-1.223,5.983,11.156,11.156,0,0,1-10.143,6.063q-20.005.025-40.012.006c-5.273,4.36-10.494,8.785-15.785,13.121a2.793,2.793,0,0,1-4.525-1.861V41.811A11.119,11.119,0,0,1,25.8,30.886M20.414,41.877q-.047,24.648-.01,49.3c3.95-3.285,7.882-6.59,11.838-9.867a3.219,3.219,0,0,1,2.244-.786c13.692-.024,27.385.014,41.077-.021a5.535,5.535,0,0,0,5.48-5.49q.031-16.553,0-33.109a5.536,5.536,0,0,0-5.48-5.487q-24.834-.03-49.676,0A5.537,5.537,0,0,0,20.414,41.877Z"/>
    <path class="cls-1" d="M33.293,47.608a5.782,5.782,0,0,1,1.579-.182c10.7.013,21.4-.011,32.1.01a2.764,2.764,0,1,1-.031,5.5c-10.694.018-21.388,0-32.082.011a3.152,3.152,0,0,1-2.916-1.217A2.747,2.747,0,0,1,33.293,47.608Z"/>
    <path class="cls-1" d="M89.438,55.066a2.705,2.705,0,0,1,2.623-2.085,11.014,11.014,0,0,1,9.181,4.911,11.631,11.631,0,0,1,1.872,5.952v52.7a2.866,2.866,0,0,1-2.661,2.571h-.265a4.15,4.15,0,0,1-1.982-.938q-6.3-5.055-12.617-10.094-18.647,0-37.29-.007a11.162,11.162,0,0,1-9.888-5.594c-1.513-2.56-1.616-5.645-1.4-8.529a2.714,2.714,0,0,1,5.383-.021c.224,1.792-.238,3.708.569,5.4a5.611,5.611,0,0,0,5.335,3.237q18.977.015,37.955.01a3.309,3.309,0,0,1,2.264.775c3.033,2.409,6.045,4.846,9.081,7.255q.015-22.11,0-44.224a30.777,30.777,0,0,0-.065-3.1,5.434,5.434,0,0,0-4.456-4.7c-.638-.117-1.289-.162-1.92-.331A2.709,2.709,0,0,1,89.438,55.066Z"/>
    <path class="cls-1" d="M33.28,58.643a5.6,5.6,0,0,1,1.606-.189c7.01.014,14.016-.007,21.026.01a2.764,2.764,0,1,1,.028,5.5q-10.711.019-21.423,0a2.836,2.836,0,0,1-2.967-2.072A2.729,2.729,0,0,1,33.28,58.643Z"/>
  </g>
</svg>
