<svg id="Layer_1" data-name="Layer 1" xmlns="http://www.w3.org/2000/svg" viewBox="0 0 118 150">
  <defs>
    <style>
      .cls-1 {
        fill: #7fe2c3;
      }
    </style>
  </defs>
  <g id="_7fe2c3ff" data-name="#7fe2c3ff">
    <path class="cls-1" d="M32.687,30.162C41.106,18.626,60.37,17.506,69.993,28.1c3.51,3.77,4.956,8.829,6.963,13.459C82.528,55.4,88.707,69.018,93.206,83.271a116.953,116.953,0,0,1,3.677,12.992c1.2,7.486,1.811,15.335-.644,22.643a10.984,10.984,0,0,1-9.529,7.2c-3.752.252-7.766.84-11.35-.616-4.023-1.97-5.413-6.543-6.748-10.473-5.628,2.408-11.835,1.419-17.641.383a46.494,46.494,0,0,1-1.344,8.764c-3.621,2.642-8.036,3.93-12.367,4.854-5.516,1.064-10.771-2.362-13.981-6.59-2.455-3.229-2.819-7.411-3.183-11.3-.42-22.027,3.761-43.728,7.345-65.354,1.13-5.357,1.494-11.293,5.246-15.606M53.631,51.667C54.677,58.714,55.676,65.78,56.87,72.8c.411.075,1.223.206,1.634.28-.9-7.522-2.044-15.008-3.034-22.522C55.013,50.836,54.089,51.387,53.631,51.667Z"/>
  </g>
</svg>
