<svg id="Layer_1" data-name="Layer 1" xmlns="http://www.w3.org/2000/svg" viewBox="0 0 118 150">
  <defs>
    <style>
      .cls-1 {
        fill: #55e6c1;
      }
    </style>
  </defs>
  <g>
    <path class="cls-1" d="M46.672,74.912H71.328a4.053,4.053,0,0,0,4.053-4.053v-7.4a1.5,1.5,0,0,0-1.5-1.5H61.828a.557.557,0,0,0-.4.172,1.5,1.5,0,0,0,.868,2.685h9.028a1.2,1.2,0,0,1,1.2,1.2v4.835a1.2,1.2,0,0,1-1.2,1.2H46.677a1.2,1.2,0,0,1-1.2-1.2V66.018a1.2,1.2,0,0,1,1.2-1.2h8.982A1.456,1.456,0,0,0,57.1,63.7a1.431,1.431,0,0,0-1.4-1.742H46.672a4.053,4.053,0,0,0-4.053,4.053v4.847A4.053,4.053,0,0,0,46.672,74.912Z"/>
    <path class="cls-1" d="M106.107,106.532a1.465,1.465,0,0,0,.894-1.365V79.308a48.161,48.161,0,0,0-42.287-47.6v-.058A5.312,5.312,0,0,0,59.4,26.34h-.8a5.312,5.312,0,0,0-5.312,5.312v.056A48.15,48.15,0,0,0,11,79.29v37.331a7.063,7.063,0,0,0,11.288,5.6,33.057,33.057,0,0,1,20.067-6.737H75.465a32.992,32.992,0,0,1,20.062,6.753,7.058,7.058,0,0,0,11.283-5.611v-4.849a1.43,1.43,0,0,0-1.741-1.4,1.456,1.456,0,0,0-1.117,1.441v4.794a4.2,4.2,0,0,1-6.7,3.342,35.829,35.829,0,0,0-21.786-7.331H42.183a35.627,35.627,0,0,0-21.662,7.289,4.171,4.171,0,0,1-6.665-3.319V98.141a33.16,33.16,0,0,1,5.715-6.994v15.84a3.927,3.927,0,0,0,5.539,3.583,41.145,41.145,0,0,1,17.073-3.657H75.627a41.02,41.02,0,0,1,16.986,3.632,3.993,3.993,0,0,0,5.626-3.656v-15.8a33.127,33.127,0,0,1,5.714,7.02v7.026A1.534,1.534,0,0,0,106.107,106.532ZM58.5,29.2h.875a2.464,2.464,0,0,1,2.453,2.264,47.243,47.243,0,0,0-5.781,0A2.464,2.464,0,0,1,58.5,29.2Zm-9.7,6.254a44.985,44.985,0,0,1,20.4,0,18.251,18.251,0,0,1,11.7,16.956V79.678a36.844,36.844,0,0,0-5.283-.385H42.378a36.772,36.772,0,0,0-5.283.385V52.407A18.252,18.252,0,0,1,48.8,35.451ZM13.856,93.24V79.357a45.355,45.355,0,0,1,25.416-40.7,21.087,21.087,0,0,0-5.034,13.615V80.213A36.56,36.56,0,0,0,13.856,93.24Zm81.525,13.673a1.166,1.166,0,0,1-1.643,1.066,44.58,44.58,0,0,0-18.408-3.924H42.26a44.2,44.2,0,0,0-18.3,3.911,1.089,1.089,0,0,1-1.533-.995V88.758A33.411,33.411,0,0,1,42.26,82.15H75.55a33.428,33.428,0,0,1,19.832,6.608v18.155Zm-11.619-26.7V52.277a21.088,21.088,0,0,0-5.034-13.616,45.355,45.355,0,0,1,25.416,40.7V93.24A36.53,36.53,0,0,0,83.762,80.213Z"/>
  </g>
</svg>
