<svg id="Layer_1" data-name="Layer 1" xmlns="http://www.w3.org/2000/svg" viewBox="0 0 118 150">
  <defs>
    <style>
      .cls-1 {
        fill: #55e6c1;
        stroke: #55e6c1;
        stroke-miterlimit: 10;
      }
    </style>
  </defs>
  <g>
    <path class="cls-1" d="M59,23.232A51.768,51.768,0,1,0,110.768,75,51.827,51.827,0,0,0,59,23.232ZM59,123.5A48.5,48.5,0,1,1,107.5,75,48.553,48.553,0,0,1,59,123.5Zm0,0"/>
    <path class="cls-1" d="M59,31.615A43.376,43.376,0,1,0,98.029,93.936,1.635,1.635,0,1,0,95.09,92.5,40.108,40.108,0,1,1,99.114,75a39.96,39.96,0,0,1-2.1,12.82,1.634,1.634,0,1,0,3.1,1.048A43.39,43.39,0,0,0,59,31.615Zm0,0"/>
    <path class="cls-1" d="M72.02,80.764a1.634,1.634,0,0,0-2.074-2.189,8.479,8.479,0,0,1-8.525-14.362,1.635,1.635,0,0,0-.931-2.869c-.42-.034-.8-.052-1.164-.052A13.875,13.875,0,1,0,72.02,80.764ZM59.325,85.772A10.606,10.606,0,0,1,56.7,64.89a11.748,11.748,0,0,0,10.244,17.5c.047,0,.093,0,.14,0a10.609,10.609,0,0,1-7.761,3.381Zm0,0"/>
    <path class="cls-1" d="M39.039,75.075A1.643,1.643,0,0,0,37.4,73.431H27.327A1.667,1.667,0,0,0,25.683,74.7a1.644,1.644,0,0,0,1.6,2.014H37.4a1.642,1.642,0,0,0,1.643-1.642Zm-.034.093"/>
    <path class="cls-1" d="M92.357,75.075a1.643,1.643,0,0,0-1.642-1.644H80.646A1.669,1.669,0,0,0,79,74.7a1.645,1.645,0,0,0,1.6,2.014H90.715a1.641,1.641,0,0,0,1.642-1.642Zm-.034.093"/>
    <path class="cls-1" d="M36.592,99.21a1.631,1.631,0,0,0,1.157-.479l7.113-7.113a1.635,1.635,0,1,0-2.312-2.312l-7.114,7.113a1.635,1.635,0,0,0,1.156,2.791Zm0,0"/>
    <path class="cls-1" d="M75.45,61.029l7.113-7.113A1.635,1.635,0,1,0,80.251,51.6l-7.113,7.114a1.634,1.634,0,1,0,2.312,2.311Zm0,0"/>
    <path class="cls-1" d="M57.281,96.771V106.84a1.667,1.667,0,0,0,1.272,1.644,1.644,1.644,0,0,0,2.014-1.6V96.818a1.671,1.671,0,0,0-1.28-1.652,1.646,1.646,0,0,0-2.006,1.605Zm.084.025"/>
    <path class="cls-1" d="M60.567,53.564V43.5a1.672,1.672,0,0,0-1.281-1.652,1.645,1.645,0,0,0-2.005,1.605V53.522a1.666,1.666,0,0,0,1.272,1.644,1.644,1.644,0,0,0,2.014-1.6Zm.067-.026"/>
    <path class="cls-1" d="M73.138,91.618l7.113,7.113a1.635,1.635,0,0,0,2.313-2.312L75.45,89.306a1.635,1.635,0,0,0-2.312,2.312Zm0,0"/>
    <path class="cls-1" d="M44.862,58.718,37.749,51.6a1.635,1.635,0,1,0-2.313,2.312l7.114,7.113a1.634,1.634,0,1,0,2.312-2.311Zm0,0"/>
  </g>
</svg>
