<svg id="Layer_1" data-name="Layer 1" xmlns="http://www.w3.org/2000/svg" viewBox="0 0 118 150">
  <defs>
    <style>
      .cls-1 {
        fill: #55e6c1;
      }
    </style>
  </defs>
  <g>
    <path class="cls-1" d="M81.8,107.8A69.539,69.539,0,0,1,59,118.607c-14.03-3.918-25.173-10.866-33.126-20.658A65.614,65.614,0,0,1,12.792,68.728a103.892,103.892,0,0,1-.182-36.06,61.12,61.12,0,0,0,14.249.583,1.794,1.794,0,0,0-.283-3.576,58.071,58.071,0,0,1-15.069-.833,1.793,1.793,0,0,0-2.074,1.367A104.763,104.763,0,0,0,9.249,69.3c2.337,12.063,6.978,22.444,13.794,30.856,8.526,10.524,20.464,17.939,35.48,22.038a1.783,1.783,0,0,0,.945,0,73.329,73.329,0,0,0,24.467-11.52A1.793,1.793,0,1,0,81.8,107.8Z"/>
    <path class="cls-1" d="M108.558,30.209a1.8,1.8,0,0,0-2.075-1.367,54.033,54.033,0,0,1-34.057-4.368A44.689,44.689,0,0,1,60.319,16a1.8,1.8,0,0,0-2.537-.111q-.057.054-.111.111A49.023,49.023,0,0,1,33.4,28.689a1.793,1.793,0,0,0,.746,3.508h0A53.7,53.7,0,0,0,59,19.724a51.083,51.083,0,0,0,11.69,7.892,57.333,57.333,0,0,0,34.693,5.052,105.884,105.884,0,0,1,1.282,24.637,82.554,82.554,0,0,1-4.883,23.6,59.271,59.271,0,0,1-14.65,22.426,1.794,1.794,0,1,0,2.466,2.605,62.813,62.813,0,0,0,15.562-23.824,86.192,86.192,0,0,0,5.092-24.674A104.109,104.109,0,0,0,108.558,30.209Z"/>
    <path class="cls-1" d="M55.861,29.83a1.794,1.794,0,0,0-1.812.034A60.758,60.758,0,0,1,22.332,38.71c-1.29,0-2.608-.04-3.921-.12a1.791,1.791,0,0,0-1.891,1.6A96.834,96.834,0,0,0,17.543,68.2c.061.321.128.638.2.955l.059.277a1.793,1.793,0,0,0,1.754,1.421H54.984a1.794,1.794,0,0,0,1.794-1.794V31.394a1.793,1.793,0,0,0-.917-1.564Zm-2.57,36.377H21.117a92.6,92.6,0,0,1-1.092-25.015c.808.028,1.614.043,2.411.043a64.444,64.444,0,0,0,30.855-7.8Z"/>
    <path class="cls-1" d="M100.547,41.05a1.743,1.743,0,0,0-1.839-1.559c-1.269.077-2.547.116-3.8.116-1.964,0-3.948-.1-5.9-.285a1.743,1.743,0,1,0-.36,3.468l.023,0c2.063.2,4.161.3,6.236.3.77,0,1.549-.015,2.329-.042a90.367,90.367,0,0,1-1.046,24.316H64.915V35.516a61.779,61.779,0,0,0,16.926,6.232,1.744,1.744,0,0,0,.716-3.413,58.3,58.3,0,0,1-18.476-7.328,1.744,1.744,0,0,0-2.653,1.488V69.113a1.744,1.744,0,0,0,1.744,1.744H97.614a1.743,1.743,0,0,0,1.706-1.385l.058-.268q.051-.225.1-.453A94.241,94.241,0,0,0,100.547,41.05Z"/>
    <path class="cls-1" d="M55.034,75.506H22.758a1.742,1.742,0,0,0-1.65,2.307,55.418,55.418,0,0,0,9.273,17.078c.175.216.357.428.537.641l.159.187a1.744,1.744,0,0,0,2.661-2.254l-.166-.2c-.162-.191-.325-.381-.482-.575a50.977,50.977,0,0,1-7.841-13.7H53.291v28.391A53.306,53.306,0,0,1,38.418,98.24a1.743,1.743,0,1,0-2.307,2.613A57.863,57.863,0,0,0,54.428,111.58a1.745,1.745,0,0,0,2.35-1.635V77.25a1.744,1.744,0,0,0-1.744-1.744Z"/>
    <path class="cls-1" d="M97.884,76.257a1.793,1.793,0,0,0-1.459-.751h-33.2A1.794,1.794,0,0,0,61.428,77.3h0v33.635a1.794,1.794,0,0,0,1.794,1.794h0a1.82,1.82,0,0,0,.624-.111A56.477,56.477,0,0,0,88.412,95.662,56.922,56.922,0,0,0,98.123,77.88a1.794,1.794,0,0,0-.239-1.623ZM85.536,93.287A51.994,51.994,0,0,1,64.915,108.2V78.994H93.762A52.36,52.36,0,0,1,85.536,93.287Z"/>
  </g>
  <g>
    <path class="cls-1" d="M17.616,116.28c-1.34,1.082-2.63.833-3.95-.8l-2.943-3.647a.958.958,0,0,1,.147-1.35l5.83-4.708a.964.964,0,0,1,1.354.145l2.782,3.446c1.336,1.656,1.443,2.861.093,3.951a1.941,1.941,0,0,1-2.508.191l-.073.059A2.174,2.174,0,0,1,17.616,116.28ZM15.835,113.3c.418-.339.253-.715-.063-1.106l-.747-.926-1,.812c.041.052.523.648.747.926C15.083,113.4,15.405,113.648,15.835,113.3Zm1.034-3.452c.042.05.457.565.649.8.273.34.549.576.916.28s.2-.625-.069-.964l-.647-.8Z"/>
    <path class="cls-1" d="M22.173,120.575l-.577-.5-1.021,1.17a.962.962,0,0,1-1.358.091l-1.208-1.055a.962.962,0,0,1-.092-1.358l4.929-5.643a.96.96,0,0,1,1.357-.093l2.828,2.473c2.02,1.766,2.252,3.488.731,5.231a3.473,3.473,0,0,1-2.026,1.267.962.962,0,0,0-.794.72l-.314,1.316a.962.962,0,0,1-1.569.5l-1.187-1.038a.964.964,0,0,1-.293-.987Zm2.193-3.676-1,1.146c.229.2.488.426.637.557.437.382.809.439,1.172.023s.265-.786-.172-1.169Z"/>
    <path class="cls-1" d="M31.347,128.4,30.5,127.9a.963.963,0,0,0-1.187.173h0a.962.962,0,0,1-1.186.173l-1.491-.87a.962.962,0,0,1-.176-1.531l5.681-5.364a.962.962,0,0,1,1.145-.131l3.253,1.9a.962.962,0,0,1,.45,1.061L35.126,130.9a.962.962,0,0,1-1.419.6l-1.492-.869a.963.963,0,0,1-.434-1.117h0A.961.961,0,0,0,31.347,128.4Zm1.53-2.364.586-1.87-.32-.186-1.338,1.431Z"/>
    <path class="cls-1" d="M49.731,128.206l-2.2,7.165a.963.963,0,0,1-1.2.637l-2.717-.837a.963.963,0,0,1-.669-.783l-.649-4.523-.088-.027-1.093,3.556a.962.962,0,0,1-1.2.637l-1.534-.473a.96.96,0,0,1-.636-1.2l2.2-7.164a.962.962,0,0,1,1.2-.637l2.817.868a.961.961,0,0,1,.672.8l.545,4.471.089.028,1.092-3.556a.963.963,0,0,1,1.2-.638L49.1,127A.962.962,0,0,1,49.731,128.206Z"/>
    <path class="cls-1" d="M60.482,132.8c-.2,2.9-1.995,4.585-5.146,4.37l-4.054-.278a.958.958,0,0,1-.89-1.025l.51-7.479a.96.96,0,0,1,1.022-.895l4.054.278C59.128,127.984,60.68,129.9,60.482,132.8Zm-3.665-.251c.06-.872-.374-1.509-1.547-1.589-.488-.033-.883-.061-1-.068l-.2,2.954,1,.068C56.242,133.993,56.758,133.421,56.817,132.548Z"/>
    <path class="cls-1" d="M75.357,126.252l1.768,7.283a.963.963,0,0,1-.708,1.162l-2.763.673a.962.962,0,0,1-.977-.331l-2.866-3.553-.09.023.877,3.616a.962.962,0,0,1-.707,1.162l-1.561.38a.963.963,0,0,1-1.163-.708L65.4,128.675a.961.961,0,0,1,.707-1.162l2.866-.7a.963.963,0,0,1,.989.346l2.752,3.563.09-.023-.878-3.616a.962.962,0,0,1,.708-1.162l1.56-.38A.962.962,0,0,1,75.357,126.252Z"/>
    <path class="cls-1" d="M84.594,129.512l-.872.443a.962.962,0,0,0-.5,1.09h0a.963.963,0,0,1-.5,1.09l-1.538.781a.963.963,0,0,1-1.382-.682l-1.423-7.679a.962.962,0,0,1,.51-1.033l3.358-1.706a.963.963,0,0,1,1.136.2l5.358,5.68a.962.962,0,0,1-.264,1.518l-1.538.782a.962.962,0,0,1-1.174-.241h0A.962.962,0,0,0,84.594,129.512Zm-1.155-2.567-1.252-1.506-.331.168.476,1.9Z"/>
    <path class="cls-1" d="M96.805,111.844l4.921,5.651a.963.963,0,0,1-.094,1.358l-1.209,1.054a.963.963,0,0,1-1.358-.094l-3.45-3.961-.059.051,2.753,4.82a.963.963,0,0,1-.2,1.2l-1.631,1.422a.963.963,0,0,1-1.219.037L90.853,120l-.06.053,3.449,3.962a.962.962,0,0,1-.093,1.357l-1.209,1.054a.963.963,0,0,1-1.358-.094l-4.921-5.651a.963.963,0,0,1,.094-1.358l2.913-2.537a.962.962,0,0,1,1.222-.035l3.759,2.921.071-.061-2.377-4.127a.963.963,0,0,1,.2-1.206l2.9-2.529A.963.963,0,0,1,96.805,111.844Z"/>
    <path class="cls-1" d="M101,109.083l.482.366,1.756-2.317a.962.962,0,0,1,1.349-.185l.5.382a.961.961,0,0,1,.185,1.347L103.521,111l.481.365,1.988-2.622a.963.963,0,0,1,1.349-.185l.717.544a.963.963,0,0,1,.185,1.348l-3.538,4.667a.962.962,0,0,1-1.349.185l-5.965-4.529a.962.962,0,0,1-.185-1.348l3.537-4.667a.962.962,0,0,1,1.349-.185l.717.544a.963.963,0,0,1,.185,1.348Z"/>
  </g>
</svg>
