<svg id="Layer_1" data-name="Layer 1" xmlns="http://www.w3.org/2000/svg" viewBox="0 0 118 150">
  <defs>
    <style>
      .cls-1, .cls-2 {
        fill: none;
        stroke: #55e6c1;
        stroke-miterlimit: 10;
      }

      .cls-1 {
        stroke-width: 4px;
      }

      .cls-2 {
        stroke-width: 3px;
      }
    </style>
  </defs>
  <path class="cls-1" d="M58.907,10.943S34.065,30.22,34.065,77.574c0,29.315,8.557,48.031,20.057,52.211a.933.933,0,0,0,1.252-.876v-29.3a3.463,3.463,0,0,1,3.533-3.7,3.728,3.728,0,0,1,3.719,3.7V128.9a.934.934,0,0,0,1.256.875c11.321-4.2,19.866-22.907,19.866-52.2,0-47.9-24.841-66.631-24.841-66.631Zm-.293,36.546"/>
  <path class="cls-2" d="M58.614,47.489A67.327,67.327,0,0,1,47.539,46.6a.934.934,0,0,1-.721-1.207,71.787,71.787,0,0,1,11.4-22.14.928.928,0,0,1,1.465,0A70.175,70.175,0,0,1,71.03,45.288a.933.933,0,0,1-.71,1.2,66.618,66.618,0,0,1-11.706,1Z"/>
  <path class="cls-1" d="M27.491,98.369c-7.417,0-13.427,5.133-13.427,11.465v28.294a.927.927,0,0,0,1.479.745l22.186-16.414a.918.918,0,0,0,.253-1.194c-3.309-5.884-5.814-13.362-7.357-22.126a.926.926,0,0,0-.909-.77Zm-.1.137"/>
  <path class="cls-1" d="M90.507,98.369H88.285a.927.927,0,0,0-.909.769c-1.546,8.765-4.048,16.243-7.356,22.127a.917.917,0,0,0,.252,1.194l22.185,16.414a.927.927,0,0,0,1.479-.745V109.834c0-6.332-6.01-11.465-13.429-11.465Zm-.093.137"/>
</svg>
