<svg id="Layer_1" data-name="Layer 1" xmlns="http://www.w3.org/2000/svg" viewBox="0 0 113.029 117.244">
  <defs>
    <style>
      .cls-1 {
        fill: #55e6c1;
      }
    </style>
  </defs>
  <g>
    <path class="cls-1" d="M81.535,101.37a76.3,76.3,0,0,1-25.027,11.865c-15.4-4.3-27.623-11.924-36.35-22.669A72,72,0,0,1,5.808,58.5a114.015,114.015,0,0,1-.2-39.571,67.086,67.086,0,0,0,15.636.639,1.968,1.968,0,0,0-.309-3.924A63.714,63.714,0,0,1,4.4,14.73a1.968,1.968,0,0,0-2.276,1.5,114.928,114.928,0,0,0-.2,42.9C4.484,72.368,9.577,83.76,17.056,92.991c9.357,11.548,22.457,19.685,38.935,24.184a1.958,1.958,0,0,0,1.036,0,80.5,80.5,0,0,0,26.85-12.641,1.968,1.968,0,0,0-2.342-3.164Z"/>
    <path class="cls-1" d="M110.9,16.231a1.97,1.97,0,0,0-2.277-1.5A59.291,59.291,0,0,1,71.248,9.937,49.009,49.009,0,0,1,57.962.639,1.971,1.971,0,0,0,55.178.517c-.042.039-.083.08-.122.122A53.8,53.8,0,0,1,28.418,14.563a1.967,1.967,0,1,0,.818,3.849h0A58.921,58.921,0,0,0,56.512,4.724,56.067,56.067,0,0,0,69.34,13.385a62.915,62.915,0,0,0,38.072,5.544,116.237,116.237,0,0,1,1.406,27.035,90.6,90.6,0,0,1-5.359,25.9A65.043,65.043,0,0,1,87.383,96.473a1.969,1.969,0,0,0,2.707,2.859,68.947,68.947,0,0,0,17.077-26.144,94.6,94.6,0,0,0,5.587-27.076A114.222,114.222,0,0,0,110.9,16.231Z"/>
    <path class="cls-1" d="M53.07,15.815a1.963,1.963,0,0,0-1.988.037A66.7,66.7,0,0,1,16.276,25.56c-1.415,0-2.862-.045-4.3-.132A1.965,1.965,0,0,0,9.9,27.187a106.279,106.279,0,0,0,1.123,30.738c.067.352.141.7.215,1.048l.064.3a1.97,1.97,0,0,0,1.926,1.559H52.107a1.969,1.969,0,0,0,1.969-1.968V17.531a1.967,1.967,0,0,0-1.006-1.716ZM50.249,55.733H14.943a101.6,101.6,0,0,1-1.2-27.45c.887.031,1.771.047,2.647.047a70.717,70.717,0,0,0,33.858-8.557Z"/>
    <path class="cls-1" d="M102.107,28.127a1.913,1.913,0,0,0-2.019-1.711c-1.392.085-2.794.127-4.169.127-2.155,0-4.333-.105-6.474-.313a1.914,1.914,0,0,0-.395,3.807l.025,0c2.264.22,4.566.331,6.844.331.844,0,1.7-.016,2.555-.045a99.152,99.152,0,0,1-1.148,26.684H63.005V22.054a67.807,67.807,0,0,0,18.574,6.839,1.913,1.913,0,0,0,.786-3.745A64,64,0,0,1,62.09,17.106a1.914,1.914,0,0,0-2.911,1.633V58.922a1.914,1.914,0,0,0,1.914,1.914h37.8a1.913,1.913,0,0,0,1.872-1.52l.064-.294c.037-.165.072-.33.105-.5A103.447,103.447,0,0,0,102.107,28.127Z"/>
    <path class="cls-1" d="M52.162,65.938H16.743a1.912,1.912,0,0,0-1.81,2.531A60.826,60.826,0,0,0,25.109,87.21c.192.237.391.469.589.7l.175.2a1.913,1.913,0,0,0,2.919-2.473l-.181-.214c-.179-.209-.357-.418-.53-.63a55.963,55.963,0,0,1-8.6-15.036H50.249v31.156a58.5,58.5,0,0,1-16.32-10.036A1.913,1.913,0,0,0,31.4,93.753a63.514,63.514,0,0,0,20.1,11.771,1.915,1.915,0,0,0,2.579-1.8V67.851a1.913,1.913,0,0,0-1.914-1.913Z"/>
    <path class="cls-1" d="M99.184,66.762a1.966,1.966,0,0,0-1.6-.824H61.147a1.968,1.968,0,0,0-1.968,1.969h0v36.91a1.969,1.969,0,0,0,1.968,1.969h0a2,2,0,0,0,.684-.122A61.971,61.971,0,0,0,88.79,88.056,62.443,62.443,0,0,0,99.446,68.543a1.965,1.965,0,0,0-.262-1.781ZM85.634,85.45a57.055,57.055,0,0,1-22.629,16.37V69.765H94.661A57.47,57.47,0,0,1,85.634,85.45Z"/>
  </g>
</svg>
