<svg id="Layer_1" data-name="Layer 1" xmlns="http://www.w3.org/2000/svg" viewBox="0 0 118 150">
  <defs>
    <style>
      .cls-1 {
        fill: #55e6c1;
      }
    </style>
  </defs>
  <g>
    <path class="cls-1" d="M101.779,25.224H37.929a11.938,11.938,0,0,0-23.7,1.989v97.5h.179a11.95,11.95,0,0,0,11.759,9.949H81.882a1.989,1.989,0,0,0,1.989-1.99V126.7h17.908a1.989,1.989,0,0,0,1.989-1.99v-97.5A1.989,1.989,0,0,0,101.779,25.224Zm-83.568,2a7.959,7.959,0,1,1,15.918,0v86.632a11.868,11.868,0,0,0-15.918,0ZM79.892,130.678H26.322a8.057,8.057,0,0,1-8.093-7.418,7.96,7.96,0,0,1,8.481-8.482,8.059,8.059,0,0,1,7.419,8.094v1.837a1.989,1.989,0,0,0,1.989,1.99H79.892Zm19.9-7.959H38.108V29.2H99.789Z"/>
    <path class="cls-1" d="M93.82,33.183H44.077a1.989,1.989,0,0,0-1.99,1.989v19.9a1.99,1.99,0,0,0,1.99,1.99H93.82a1.99,1.99,0,0,0,1.99-1.99v-19.9A1.989,1.989,0,0,0,93.82,33.183Zm-1.99,19.9H46.067V37.162H91.83Z"/>
    <path class="cls-1" d="M67.954,61.038H44.077a1.99,1.99,0,0,0-1.99,1.99V84.915a1.99,1.99,0,0,0,1.99,1.99H67.954a1.989,1.989,0,0,0,1.989-1.99V63.028A1.989,1.989,0,0,0,67.954,61.038Zm-1.99,21.887h-19.9V65.018h19.9Z"/>
    <path class="cls-1" d="M93.82,90.884H69.943a1.99,1.99,0,0,0-1.989,1.99V116.75a1.99,1.99,0,0,0,1.989,1.99H93.82a1.99,1.99,0,0,0,1.99-1.99V92.874A1.99,1.99,0,0,0,93.82,90.884Zm-1.99,23.877h-19.9v-19.9h19.9Z"/>
    <rect class="cls-1" x="73.923" y="63.028" width="21.887" height="3.979"/>
    <rect class="cls-1" x="73.923" y="70.987" width="21.887" height="3.979"/>
    <rect class="cls-1" x="73.923" y="78.946" width="21.887" height="3.979"/>
    <rect class="cls-1" x="42.087" y="90.884" width="21.887" height="3.979"/>
    <rect class="cls-1" x="42.087" y="98.843" width="21.887" height="3.979"/>
    <rect class="cls-1" x="42.087" y="106.802" width="21.887" height="3.979"/>
    <rect class="cls-1" x="42.087" y="114.761" width="21.887" height="3.979"/>
  </g>
</svg>
