<svg id="Layer_1" data-name="Layer 1" xmlns="http://www.w3.org/2000/svg" viewBox="0 0 118 150">
  <defs>
    <style>
      .cls-1 {
        fill: #55e6c1;
      }
    </style>
  </defs>
  <g id="_000000ff" data-name="#000000ff">
    <path class="cls-1" d="M32,25.046H85.929a7.383,7.383,0,0,1,6.7,7.005c.071,7.837,0,15.681.032,23.518q6.286,4.161,12.562,8.336a19.628,19.628,0,0,1,3.727,2.743v51.438a7.452,7.452,0,0,1-6.841,6.868H15.7a7.563,7.563,0,0,1-6.658-6.533V66.715a13.539,13.539,0,0,1,3.27-2.49q6.492-4.344,13.016-8.649c.046-3.418-.055-6.841.039-10.26A1.432,1.432,0,0,1,27.693,44.2c.62.425.55,1.245.581,1.9q-.023,15.548-.008,31.1c5.109,3.372,10.2,6.775,15.3,10.155,2.377-1.557,4.738-3.134,7.095-4.711a13.415,13.415,0,0,1,15.49-.772c2.775,1.814,5.522,3.664,8.293,5.483,2-1.269,3.895-2.713,5.952-3.887a1.428,1.428,0,0,1,1.74,2.158c-1.534,1.358-3.4,2.287-5.05,3.489q14.477,9.6,28.938,19.213.006-19.213,0-38.43-8.991,5.965-17.979,11.946c-.582.367-1.3.816-1.991.441a1.423,1.423,0,0,1-.324-2.369c1.261-1.011,2.686-1.791,4-2.72-.012-14.928.023-29.859-.016-44.791a4.4,4.4,0,0,0-4.566-4.422q-25.963-.017-51.925-.011a4.643,4.643,0,0,0-4,1.658c-1.5,1.913-.823,4.5-.952,6.74-.113,1.1.359,2.588-.691,3.353a1.46,1.46,0,0,1-2.232-1.386c-.031-2.224-.07-4.453.039-6.677A7.384,7.384,0,0,1,32,25.046M13.159,67.167c4.051,2.7,8.125,5.382,12.176,8.091q.012-8.091,0-16.177-6.087,4.039-12.176,8.086m79.5,8.087c4.055-2.689,8.117-5.363,12.149-8.087C100.8,64.42,96.7,61.8,92.672,59.077c-.027,5.39,0,10.783-.011,16.177M11.977,69.9q-.006,19.225,0,38.442,14.483-9.6,28.954-19.233Q26.437,79.53,11.977,69.9m41.5,14.417q-20.765,13.751-41.5,27.537c.039,2.154-.1,4.312.07,6.463a4.421,4.421,0,0,0,4.476,3.715q42.314.036,84.63.008a4.5,4.5,0,0,0,4.8-3.708c.18-2.154.031-4.324.074-6.482q-20.64-13.7-41.278-27.393A10.294,10.294,0,0,0,53.478,84.316Z"/>
    <path class="cls-1" d="M66.193,31.114A2.3,2.3,0,0,1,69.475,33.2c.027,3.54.035,7.084,0,10.623A2.225,2.225,0,0,1,66.6,45.948c-3.762-1.038-7.473-2.275-11.243-3.29.253,1.686.749,3.337.886,5.039a1.464,1.464,0,0,1-2.748.429c-.523-1.756-.706-3.6-1.132-5.382a4.815,4.815,0,0,1-3.04-1.787A4.239,4.239,0,0,1,50.5,34.9c1.862-1.194,4.172-.227,6.166-.937,3.169-.968,6.35-1.908,9.527-2.853m-8.9,5.718c0,1.1,0,2.2,0,3.309q4.635,1.381,9.272,2.756V34.065q-4.647,1.37-9.276,2.767m-5.14.5a1.3,1.3,0,0,0,.015,2.307,9.376,9.376,0,0,0,2.2.152q-.006-1.3,0-2.611A9.134,9.134,0,0,0,52.151,37.331Z"/>
    <path class="cls-1" d="M38.971,51.9a1.447,1.447,0,0,1,2.229.266c1.21,1.646,2.31,3.368,3.5,5.03.046-1.557-.1-3.126.07-4.675a1.449,1.449,0,0,1,2.821.238c.063,2.977.075,5.967-.007,8.941a1.531,1.531,0,0,1-2.681.87c-1.238-1.577-2.284-3.3-3.458-4.921-.031,1.487.082,2.981-.059,4.464a1.456,1.456,0,0,1-2.81.012c-.148-2.724-.008-5.46-.07-8.188C38.562,53.246,38.394,52.407,38.971,51.9Z"/>
    <path class="cls-1" d="M49.36,53.141a1.468,1.468,0,0,1,1.448-1.616,35.751,35.751,0,0,1,3.942.028,1.431,1.431,0,0,1,.952,2.224c-.792,1.058-2.306.519-3.422.648.007.48.007.956,0,1.436,1.241-.023,3.45-.269,3.407,1.561-.149,1.714-2.2,1.4-3.4,1.409,0,.351,0,1.058,0,1.409,1.1.129,2.5-.367,3.349.562a1.446,1.446,0,0,1-.96,2.342,27.6,27.6,0,0,1-4.137-.016,1.532,1.532,0,0,1-1.179-1.744C49.353,58.636,49.341,55.889,49.36,53.141Z"/>
    <path class="cls-1" d="M57.419,53.133a1.449,1.449,0,0,1,2.627-1.022,30.546,30.546,0,0,1,.976,4.285c.472-1.4.788-2.853,1.366-4.215a1.428,1.428,0,0,1,2.544.168c.523,1.311.839,2.7,1.3,4.035.386-1.424.378-3,1.026-4.336a1.449,1.449,0,0,1,2.568,1.1C69.3,56.1,68.7,59.034,68.074,61.961a1.638,1.638,0,0,1-3.017.387c-.6-1.429-.925-2.955-1.444-4.414a47.612,47.612,0,0,1-1.522,4.57,1.64,1.64,0,0,1-2.9-.473C58.532,59.081,57.958,56.107,57.419,53.133Z"/>
    <path class="cls-1" d="M72.609,52.306a5.013,5.013,0,0,1,6.24.6c.921.972-.187,2.822-1.471,2.279-1.054-.476-2.209-1.167-3.333-.441,1.479,1.241,3.8,1.245,4.894,3a3.451,3.451,0,0,1-1.2,4.785,5.31,5.31,0,0,1-6.611-1.206,1.456,1.456,0,0,1,.807-2.291c1.206-.254,1.889,1.183,3.056,1.229.617.145,2.069-.3,1.351-1.092-1.386-.878-3.255-.964-4.352-2.283A3.287,3.287,0,0,1,72.609,52.306Z"/>
    <path class="cls-1" d="M33.679,67.21a1.454,1.454,0,0,1,2.81-.008c.153,2.561.016,5.132.059,7.7.933.1,2.142-.261,2.794.617A1.429,1.429,0,0,1,38.327,77.8a22.9,22.9,0,0,1-3.5-.015c-.972-.094-1.288-1.156-1.2-1.983C33.66,72.939,33.539,70.071,33.679,67.21Z"/>
    <path class="cls-1" d="M41.336,67.96a1.531,1.531,0,0,1,1.288-1.788,27.484,27.484,0,0,1,4.168.02,1.443,1.443,0,0,1,.754,2.4c-.882.812-2.209.371-3.286.484.007.48.007.964,0,1.444,1.014.1,2.329-.34,3.083.554a1.437,1.437,0,0,1-.832,2.31,18.85,18.85,0,0,1-2.255.067c.007.48.011.96,0,1.444,1.108.121,2.552-.4,3.375.577a1.441,1.441,0,0,1-1.124,2.315,35.419,35.419,0,0,1-3.91-.02,1.442,1.442,0,0,1-1.257-1.561C41.313,73.458,41.336,70.707,41.336,67.96Z"/>
    <path class="cls-1" d="M49.907,68.506a1.439,1.439,0,0,1,.932-2.369c1.69-.078,3.388-.055,5.078-.016a1.444,1.444,0,0,1,1.143,2.291c-.472.718-1.42.57-2.154.656-.07,2.607.129,5.233-.094,7.833a1.459,1.459,0,0,1-2.794-.293c-.117-2.513,0-5.031-.043-7.544C51.277,68.974,50.406,69.13,49.907,68.506Z"/>
    <path class="cls-1" d="M59.3,68.475a1.434,1.434,0,0,1,.89-2.33c1.69-.094,3.388-.055,5.078-.028a1.447,1.447,0,0,1,1.186,2.319c-.472.706-1.413.534-2.135.632-.058,2.568.1,5.148-.07,7.712a1.461,1.461,0,0,1-2.779.066c-.195-2.584-.019-5.187-.082-7.782C60.686,68.974,59.788,69.134,59.3,68.475Z"/>
    <path class="cls-1" d="M69.311,66.27a19.922,19.922,0,0,1,4.476-.094,1.435,1.435,0,0,1,.929,2.33c-.835.937-2.252.441-3.348.57v1.44c1.042.113,2.478-.375,3.172.683a1.443,1.443,0,0,1-.776,2.158,16.972,16.972,0,0,1-2.408.105c.008.476.012.953.016,1.429,1.194.1,2.95-.457,3.578.929.508,1.178-.784,2.244-1.908,1.994-1.468-.207-3.712.671-4.519-1-.207-2.549-.012-5.12-.09-7.681C68.468,68.151,68.191,66.765,69.311,66.27Z"/>
    <path class="cls-1" d="M76.734,67.238c.359-1.515,2.224-1.109,3.372-1.144a3.932,3.932,0,0,1,4.246,3.427,4.015,4.015,0,0,1-2.2,3.8,18.224,18.224,0,0,1,2.115,2.536,1.455,1.455,0,0,1-2.115,1.761,29.745,29.745,0,0,1-2.514-2.763c-.089.948.231,2.286-.823,2.817a1.478,1.478,0,0,1-2.127-1.5c.016-2.978-.078-5.964.047-8.941m2.88,1.717c0,.593.008,1.19,0,1.787.7-.1,1.592.012,1.9-.8C81.374,68.978,80.348,69.045,79.614,68.955Z"/>
  </g>
</svg>
