<svg id="Layer_1" data-name="Layer 1" xmlns="http://www.w3.org/2000/svg" viewBox="0 0 118 150">
  <defs>
    <style>
      .cls-1 {
        fill: #55e6c1;
      }
    </style>
  </defs>
  <path class="cls-1" d="M93.682,129.325,89.666,69.443,87.384,35.1l0-.005-1-14.877c-.084-1.275-.873-2.252-1.817-2.252H33.441c-.944,0-1.733.977-1.819,2.254l-1,14.878,0,.005-2.282,34.34-4.016,59.882a3.073,3.073,0,0,0,.471,1.9,1.66,1.66,0,0,0,1.349.806H51.7c.944,0,1.733-.98,1.818-2.257l3.5-52.294h3.97l3.5,52.294c.086,1.277.875,2.257,1.819,2.257h25.56a1.651,1.651,0,0,0,1.347-.809A3.088,3.088,0,0,0,93.682,129.325Zm-8-64.982L75.45,53.923V37.806h8.464ZM34.123,37.806h8.464V53.923L32.359,64.343ZM57.193,72.52H55.367c-.944,0-1.732.98-1.818,2.257l-3.5,52.3H28.155L31.918,70.99l13.59-13.843a2.852,2.852,0,0,0,.731-1.984V37.806H57.193ZM44.4,32.847H34.438l.67-9.919H82.9l.67,9.919H44.4Zm23.593,94.225-3.5-52.295C64.4,73.5,63.614,72.52,62.67,72.52H60.844V37.806H71.8V55.163a2.855,2.855,0,0,0,.73,1.984L86.12,70.99l3.763,56.082Z"/>
</svg>
