<svg id="Layer_1" data-name="Layer 1" xmlns="http://www.w3.org/2000/svg" viewBox="0 0 118 150">
  <defs>
    <style>
      .cls-1 {
        fill: #55e6c1;
      }
    </style>
  </defs>
  <g>
    <path class="cls-1" d="M105.07,39.711,92.858,27.5,82.265,16.9h0l-1.618-1.618a3.944,3.944,0,0,0-2.788-1.154H16.944a5.169,5.169,0,0,0-5.17,5.169V130.7a5.169,5.169,0,0,0,5.17,5.169h84.112a5.169,5.169,0,0,0,5.17-5.169V42.5A3.96,3.96,0,0,0,105.07,39.711Zm-24.031-.393v-17.7l17.7,17.7h-17.7ZM49.23,79.551a2.037,2.037,0,0,0-1.1-.353A2.073,2.073,0,0,0,46.1,81c-.625.144-1.268.237-1.937-1.8H41.827c-.027.913-.947,0-2.089,0a2.1,2.1,0,0,0-2.092,2.1h-4.79a13.526,13.526,0,0,0,1.322-2.63A2.09,2.09,0,1,0,35.54,75a1.979,1.979,0,0,0-.375.076c.151-.846.247-1.629.3-2.269l.172-1.058a8.944,8.944,0,0,1,.2-1.006,2.075,2.075,0,0,0,1.8-2.04,2.04,2.04,0,0,0-.394-1.156,8.464,8.464,0,0,1,1.249-1.4,2.057,2.057,0,0,0,1.244.453,2.1,2.1,0,0,0,2.1-2.1c0-.052-.025-.094-.029-.147a8.469,8.469,0,0,1,2.351-.365c.254,0,.493.053.743.076l.35.044c.284.035.552.111.827.172a2.195,2.195,0,0,0-.044.22A2.1,2.1,0,0,0,49.6,66a8.6,8.6,0,0,1,1.107,1.077c.044.052.086.1.13.157A2.094,2.094,0,0,0,52.332,70.8a1.666,1.666,0,0,0,.208-.042c.021.1.061.193.08.3l.01.055a8.662,8.662,0,0,1,.151,1.5,8.478,8.478,0,0,1-.382,2.4c-.025,0-.044-.013-.067-.013a2.1,2.1,0,0,0-2.1,2.1,2.031,2.031,0,0,0,.393,1.154A8.712,8.712,0,0,1,49.23,79.551Zm5.235-14.527-.042-.055a12.858,12.858,0,0,0-4.9-3.977l4.456-4.456,5.936,5.935-4.347,4.345A12.431,12.431,0,0,0,54.465,65.024Zm7.748-5.52-5.935-5.936,5.849-5.854A96.32,96.32,0,0,1,76.841,36.063v7.224a109.968,109.968,0,0,1-8.776,10.365Zm38.843,72.167H16.944a.974.974,0,0,1-.972-.971V100.187h86.056V130.7A.974.974,0,0,1,101.056,131.671ZM15.972,95.989V19.3a.974.974,0,0,1,.972-.971H76.963a3.194,3.194,0,0,0-.122.82V31.332c-5.4,2.453-14.753,10.486-17.681,13.414L44.079,59.827c-.2-.009-.4-.03-.6-.03A12.745,12.745,0,0,0,30.922,70.326l-.226.153L30.654,71.6c-.072,1.977-.634,8.5-4.918,9.542a2.217,2.217,0,0,0-1.664,2.418l.337,1.931H39.06l4.42-.063A12.834,12.834,0,0,0,56.3,72.614c0-.406-.023-.8-.061-1.2l14.8-14.793a110.7,110.7,0,0,0,10.791-13.1h19.381a3.268,3.268,0,0,0,.823-.122v52.6Z"/>
    <path class="cls-1" d="M37.4,119.078h.953a8.441,8.441,0,0,0,2.834-.454,6.385,6.385,0,0,0,2.193-1.283A5.712,5.712,0,0,0,44.8,115.3a6.994,6.994,0,0,0,.508-2.715,5.381,5.381,0,0,0-.6-2.554,6.249,6.249,0,0,0-1.579-1.938,6.715,6.715,0,0,0-2.206-1.2,7.953,7.953,0,0,0-2.486-.4H32.763v20.99h4.2v-8.4Zm-.437-10.5h2.588a4.655,4.655,0,0,1,2.129.417,3.4,3.4,0,0,1,1.84,2.328,5.874,5.874,0,0,1,.143,1.193,6.477,6.477,0,0,1-.315,2.171,3.472,3.472,0,0,1-.833,1.365,3.157,3.157,0,0,1-1.136.7,3.809,3.809,0,0,1-1.252.217H36.961Z"/>
    <path class="cls-1" d="M56.482,124.862a7.279,7.279,0,0,1-1.235-.115,12.606,12.606,0,0,1-1.32-.3c-.441-.126-.867-.258-1.276-.4a6.123,6.123,0,0,1-1.018-.445l-.6,2.468a4.517,4.517,0,0,0,1.162.733,7.722,7.722,0,0,0,1.421.474,11.3,11.3,0,0,0,1.478.244c.487.046.961.071,1.421.071a7.917,7.917,0,0,0,2.869-.487,6.371,6.371,0,0,0,2.124-1.306,5.824,5.824,0,0,0,1.335-1.893,5.444,5.444,0,0,0,.475-2.225,5.239,5.239,0,0,0-.659-2.768,6.176,6.176,0,0,0-1.65-1.793,11.489,11.489,0,0,0-2.139-1.219q-1.149-.5-2.124-1.033a6.4,6.4,0,0,1-1.635-1.234,2.594,2.594,0,0,1-.659-1.851,2.293,2.293,0,0,1,.229-.962,3.105,3.105,0,0,1,.631-.9,3.738,3.738,0,0,1,.92-.674,2.919,2.919,0,0,1,1.091-.33,10.549,10.549,0,0,1,1.694-.029,4.4,4.4,0,0,1,1.062.2,2.916,2.916,0,0,1,.617.287,3.332,3.332,0,0,0,.388.229,2.7,2.7,0,0,0,.173-.288c.094-.172.21-.388.344-.646s.277-.535.43-.831.288-.569.4-.819a5.884,5.884,0,0,0-2.181-.789,15.045,15.045,0,0,0-2.668-.244,7.449,7.449,0,0,0-2.453.4,6.152,6.152,0,0,0-2.038,1.163A5.558,5.558,0,0,0,51.7,109.4a5.779,5.779,0,0,0-.516,2.5,4.7,4.7,0,0,0,.659,2.582,6.872,6.872,0,0,0,1.664,1.792,13.1,13.1,0,0,0,2.152,1.32q1.146.561,2.139,1.119a7.085,7.085,0,0,1,1.649,1.249,2.323,2.323,0,0,1,.659,1.665,3.048,3.048,0,0,1-.932,2.424A3.983,3.983,0,0,1,56.482,124.862Z"/>
    <path class="cls-1" d="M75.513,127.374a8.414,8.414,0,0,0,1.823-.457,9.545,9.545,0,0,0,2.064-1.068,7.238,7.238,0,0,0,1.922-1.952,10.987,10.987,0,0,0,1.41-3.076,15.413,15.413,0,0,0,.557-4.429,10.545,10.545,0,0,0-.654-3.659,9.19,9.19,0,0,0-1.979-3.175,9.644,9.644,0,0,0-3.333-2.234,12.009,12.009,0,0,0-4.655-.84H66.346v20.99H74.29A11.434,11.434,0,0,0,75.513,127.374Zm-4.969-2V108.583h2.107a11.082,11.082,0,0,1,4.212.678,6.74,6.74,0,0,1,2.573,1.776,5.854,5.854,0,0,1,1.279,2.452,11.529,11.529,0,0,1,.33,2.738q0,4.453-1.624,6.8t-5.3,2.347Z"/>
    <circle class="cls-1" cx="43.936" cy="68.703" r="2.099"/>
    <circle class="cls-1" cx="48.134" cy="72.901" r="2.099"/>
    <circle class="cls-1" cx="39.738" cy="72.901" r="2.099"/>
    <circle class="cls-1" cx="43.936" cy="77.099" r="2.099"/>
  </g>
</svg>
