<svg id="Layer_1" data-name="Layer 1" xmlns="http://www.w3.org/2000/svg" viewBox="0 0 118 150">
  <defs>
    <style>
      .cls-1 {
        fill: #55e6c1;
      }
    </style>
  </defs>
  <g>
    <path class="cls-1" d="M98.778,24.165H92.751V22.248a1.886,1.886,0,0,0-1.887-1.886H83.481V18.223a1.938,1.938,0,0,0-1.621-1.939,1.9,1.9,0,0,0-2.182,1.88v2.2H72.161a2,2,0,0,0-1.99,1.989v1.814H47.829V22.248a1.886,1.886,0,0,0-1.887-1.886h-7.62V18.223A1.938,1.938,0,0,0,36.7,16.284a1.9,1.9,0,0,0-2.182,1.88v2.2H27.234a1.991,1.991,0,0,0-1.985,1.985v1.818H19.221a1.755,1.755,0,0,0-1.815,1.813V131.9a1.779,1.779,0,0,0,1.815,1.841H98.778a1.779,1.779,0,0,0,1.816-1.841V25.978a1.757,1.757,0,0,0-1.816-1.813Zm-24.8,0H88.948V27.73H73.974Zm-44.922,0H44.026V27.73H29.052ZM96.791,129.933H21.209V27.968h4.04V29.6a2.006,2.006,0,0,0,1.986,1.935h18.6A2.009,2.009,0,0,0,47.829,29.6v-1.63H70.171V29.6a2.008,2.008,0,0,0,1.991,1.935h18.6A2.006,2.006,0,0,0,92.751,29.6v-1.63h4.04Z"/>
    <path class="cls-1" d="M27.57,105.214H48.1a1.939,1.939,0,0,0,1.939-1.618,1.9,1.9,0,0,0-1.88-2.185H27.628a1.94,1.94,0,0,0-1.939,1.618A1.9,1.9,0,0,0,27.57,105.214Z"/>
    <path class="cls-1" d="M90.268,109.968H27.617a1.939,1.939,0,0,0-1.939,1.618,1.9,1.9,0,0,0,1.881,2.184H90.21a1.939,1.939,0,0,0,1.939-1.618A1.9,1.9,0,0,0,90.268,109.968Z"/>
    <path class="cls-1" d="M90.268,118.762H27.617a1.939,1.939,0,0,0-1.939,1.618,1.9,1.9,0,0,0,1.881,2.185H90.21a1.94,1.94,0,0,0,1.939-1.619A1.9,1.9,0,0,0,90.268,118.762Z"/>
    <path class="cls-1" d="M57.615,90.706c.032.013.065.024.1.035a3.416,3.416,0,0,0,2.4,0c.037-.012.074-.026.111-.041,19.522-7.909,26.125-22.442,24.011-33.337l0-.013C82.669,49.608,77.042,44.605,69.9,44.605a20.256,20.256,0,0,0-10.966,3.7,19.73,19.73,0,0,0-11.057-3.817c-7.191,0-12.8,5.059-14.28,12.882C31.479,68.379,38.088,82.958,57.615,90.706ZM37.325,58.08c1.145-6.041,5.186-9.794,10.547-9.794,3.095,0,6.52,1.336,9.905,3.861a1.9,1.9,0,0,0,2.253.015c3.385-2.457,6.8-3.756,9.865-3.756,5.336,0,9.4,3.712,10.609,9.688C83.013,71.049,71.488,82,58.912,87.131,41.485,80.175,35.51,67.538,37.325,58.08Z"/>
  </g>
</svg>
