<svg id="Layer_1" data-name="Layer 1" xmlns="http://www.w3.org/2000/svg" viewBox="0 0 113.029 118.216">
  <defs>
    <style>
      .cls-1 {
        fill: #55e6c1;
      }
    </style>
  </defs>
  <g>
    <path class="cls-1" d="M12.438,100.968c0,2,1.916,4.03,4.283,4.541l58.99,12.707v-8.075L12.438,97.352Zm-.077-.01"/>
    <path class="cls-1" d="M112.981,39.583V34.662L76.866,109.81V118.1l34.2-70.206a22.629,22.629,0,0,0,1.915-8.309Zm.048-.118"/>
    <g>
      <path class="cls-1" d="M69.208,99.93,15.383,88.368l-3.315,6.381,63.368,13.033,36.628-75.275-4.357-.479L75.45,96.921a5.941,5.941,0,0,1-6.242,3.009Zm0,0"/>
      <path class="cls-1" d="M4.33,73.665l55.8,12.076a7.191,7.191,0,0,0,1.5.156h0a8.19,8.19,0,0,0,7.156-4.349l34-69.413a5.25,5.25,0,0,0,.028-4.945,5.252,5.252,0,0,0-4.248-2.534L45.961.028A9.856,9.856,0,0,0,37.268,4.48L.858,65.7A5.388,5.388,0,0,0,.4,70.635a5.4,5.4,0,0,0,3.926,3.03Zm.3-5.832L41.041,6.616a5.534,5.534,0,0,1,4.266-2.333,2.609,2.609,0,0,1,.268.011l52.6,4.622c.46.042.741.189.811.321a1.085,1.085,0,0,1-.144.856l-34,69.414a3.776,3.776,0,0,1-3.79,1.834L5.256,69.266a1.146,1.146,0,0,1-.83-.494,1.153,1.153,0,0,1,.206-.939Zm0,0"/>
    </g>
    <path class="cls-1" d="M70.426,84.435a8.194,8.194,0,0,1-7.155,4.351h0a7.146,7.146,0,0,1-1.5-.158L11.71,77.8l-1.478,2.475a2.935,2.935,0,0,0,2.047,4.668L67.052,96.4a5.95,5.95,0,0,0,6.231-3.039l33.654-68.524c1.072-2.174-.026-4.04-2.446-4.165l-2.771-.143Zm0-.136"/>
  </g>
</svg>
