<svg id="Layer_1" data-name="Layer 1" xmlns="http://www.w3.org/2000/svg" viewBox="0 0 118 150">
  <defs>
    <style>
      .cls-1 {
        fill: #55e6c1;
      }
    </style>
  </defs>
  <g>
    <path class="cls-1" d="M63.313,52.225,73.375,43.76l0,0,.006-.005c.032-.027.063-.056.092-.085l.02-.018c.037-.038.073-.077.106-.118l.012-.015c.028-.036.055-.072.081-.109l.027-.045c.018-.029.036-.058.052-.087s.021-.041.032-.062.025-.05.036-.076.019-.048.028-.072a.693.693,0,0,0,.026-.072c.009-.026.016-.051.023-.077s.014-.05.02-.075.011-.051.015-.076.01-.057.013-.086.006-.045.008-.068,0-.075.006-.112c0-.013,0-.025,0-.038v-.009a1.464,1.464,0,0,0-.008-.162l0-.018q-.008-.069-.021-.138c0-.021-.01-.042-.015-.064s-.014-.058-.022-.088-.017-.049-.025-.074-.017-.049-.026-.073-.022-.052-.034-.078-.02-.043-.031-.064-.027-.052-.042-.077-.012-.023-.019-.034l-4.087-6.722a1.661,1.661,0,0,0-1.419-.8H49.769a1.661,1.661,0,0,0-1.419.8l-4.086,6.722c-.007.011-.013.023-.019.034s-.029.051-.042.077-.021.043-.031.064-.023.052-.034.078-.018.049-.026.073-.017.049-.025.074-.015.059-.022.088-.011.043-.015.064q-.014.069-.021.138l0,.018c-.005.054-.007.108-.008.162v.009c0,.013,0,.025,0,.038,0,.037,0,.075,0,.112s.006.045.008.068.008.057.014.086.01.051.015.076.012.05.019.075l.023.077c.008.024.017.048.026.072s.019.049.029.072.024.051.036.076.02.042.031.062.034.058.052.087.018.03.028.045c.025.037.053.073.081.109l.012.015a1.466,1.466,0,0,0,.106.118l.019.018c.03.029.06.058.093.085l.006.005,0,0,10.062,8.465a39.4,39.4,0,1,0,8.626,0Zm-2.7-2.065V44.225h7.055Zm5.73-12.786h.938L69.3,40.689H63.062Zm-4.706,0L59,40.039l-2.64-2.665Zm-10.924,0h.938l3.284,3.315H48.7Zm-.438,6.851h7.055V50.16ZM59,128.2A36.412,36.412,0,1,1,95.068,91.784,36.282,36.282,0,0,1,59,128.2Z"/>
    <path class="cls-1" d="M89.166,78.978A32.947,32.947,0,0,0,71.745,61.389a32.567,32.567,0,0,0-25.488,0A32.843,32.843,0,0,0,40.7,64.436a33.216,33.216,0,0,0-3.054,52.456,32.737,32.737,0,0,0,7.753,5.019,32.393,32.393,0,0,0,13.6,2.98H59a32.473,32.473,0,0,0,19.732-6.677,33.129,33.129,0,0,0,5-4.728,1.7,1.7,0,0,0-.166-2.371,1.651,1.651,0,0,0-1.882-.21,1.78,1.78,0,0,0-.409.32l-.058.058a29.92,29.92,0,0,1-4.5,4.251,29.4,29.4,0,0,1-5.3,3.227,29.092,29.092,0,0,1-5.96,2.052A29.42,29.42,0,0,1,59,121.53a28.95,28.95,0,0,1-12.181-2.657.235.235,0,0,0-.04-.018l0,0a29.646,29.646,0,0,1-12.394-10.765,29.845,29.845,0,0,1,3.824-37.239,29.327,29.327,0,0,1,9.346-6.364,29.263,29.263,0,0,1,22.895,0A29.664,29.664,0,0,1,86.1,80.286a29.708,29.708,0,0,1,2.311,11.555,30.058,30.058,0,0,1-.937,7.466,29.629,29.629,0,0,1-2.655,6.763,1.689,1.689,0,0,0,.662,2.281,1.655,1.655,0,0,0,2.259-.668A32.962,32.962,0,0,0,90.7,100.15a33.49,33.49,0,0,0,1.043-8.308A33.106,33.106,0,0,0,89.166,78.978Z"/>
    <path class="cls-1" d="M57.333,20.206v6.476a1.7,1.7,0,0,0,1.6,1.734,1.65,1.65,0,0,0,1.685-1.657v-6.63a1.649,1.649,0,0,0-1.685-1.657A1.7,1.7,0,0,0,57.333,20.206Z"/>
    <path class="cls-1" d="M47.124,29.567,43.8,23.746a1.656,1.656,0,0,0-2.274-.615,1.688,1.688,0,0,0-.609,2.295l3.329,5.822a1.656,1.656,0,0,0,2.274.615A1.689,1.689,0,0,0,47.124,29.567Z"/>
    <path class="cls-1" d="M76.479,23.13a1.658,1.658,0,0,0-2.274.615l-3.329,5.822a1.689,1.689,0,0,0,.609,2.295,1.642,1.642,0,0,0,.831.226,1.661,1.661,0,0,0,1.443-.841l3.329-5.821A1.69,1.69,0,0,0,76.479,23.13Z"/>
  </g>
</svg>
