<svg id="Layer_1" data-name="Layer 1" xmlns="http://www.w3.org/2000/svg" viewBox="0 0 118 150">
  <defs>
    <style>
      .cls-1 {
        fill: #7fe2c3;
      }
    </style>
  </defs>
  <g id="_7fe2c3ff" data-name="#7fe2c3ff">
    <path class="cls-1" d="M42.728,28.463q16.264-.11,32.544,0c1.258,3.609,2.083,7.334,3.116,11C85.753,66.823,93.3,94.137,100.56,121.517c-8.938.08-17.876.066-26.815.007-1.3-4.6-1.935-9.327-3.269-13.919-7.859-.051-15.725-.174-23.584.066-1.211,4.54-1.982,9.182-3.1,13.744-8.777.313-17.568.117-26.352.1,7.889-29.759,16.126-59.431,24.077-89.176.354-1.3.786-2.59,1.211-3.878M58.946,56.847Q54.9,73.218,51.18,89.67c5.082.116,10.164.094,15.239.007C64.028,78.719,61.745,67.718,58.946,56.847Z"/>
  </g>
</svg>
