<svg id="Layer_1" data-name="Layer 1" xmlns="http://www.w3.org/2000/svg" viewBox="0 0 118 150">
  <defs>
    <style>
      .cls-1 {
        fill: #7fe2c3;
      }
    </style>
  </defs>
  <g id="_7fe2c3ff" data-name="#7fe2c3ff">
    <path class="cls-1" d="M54.611,30.365c2.465-.015,4.922-.007,7.387,0C72,52.27,80.885,74.673,90.057,96.94c2.147,5.043,3.8,10.412,6.994,14.925,2.979,1.868,6.774,1.505,9.965,2.942.174,1.587.3,3.19.424,4.786-7.342-.091-14.669-.6-22-.9-7.682-.053-15.356.537-23.031.907.061-1.535.121-3.062.182-4.6,3.667-.884,7.409-1.542,11.009-2.707,1.481-.529,1.24-2.472.8-3.652-2.593-6.668-5.346-13.277-8.037-19.9-8.711,0-17.413-.121-26.116-.159-2.11,5.943-4.552,11.773-6.669,17.723-.59,1.921-1.482,4.96.877,6.034,3.229,1.346,6.767,1.656,10.17,2.359v4.9q-8.325-.51-16.65-1.028c-5.844-.476-11.56,1.444-17.413,1.006.076-1.528.167-3.055.235-4.582,3.206-.734,6.48-1.248,9.61-2.269,2.752-1.013,3.871-3.984,4.93-6.464q14.584-37.971,29.276-75.9M52.705,55.286Q47.93,68.5,42.861,81.6c6.9.189,13.806.151,20.7.03C60.153,72.76,56.705,63.906,52.705,55.286Z"/>
  </g>
</svg>
