<svg id="Layer_1" data-name="Layer 1" xmlns="http://www.w3.org/2000/svg" viewBox="0 0 118 150">
  <defs>
    <style>
      .cls-1 {
        fill: #55e6c1;
      }
    </style>
  </defs>
  <g>
    <path class="cls-1" d="M54.6,30.363h8.632a1.674,1.674,0,1,0,0-3.347H54.6a1.674,1.674,0,1,0,0,3.347Z"/>
    <path class="cls-1" d="M108.823,61.613l-5.762-23.9A12.725,12.725,0,0,0,96.1,29.54c-3.987-1.7-16.6-6.525-19.752-7.728a1.665,1.665,0,0,0-1.053-.376H42.933c-.054,0-.107,0-.161.008-.022,0-.045.007-.068.009s-.058.009-.087.015-.054.011-.081.018a.571.571,0,0,0-.071.019l-.082.026-.042.014c-.65.249-15.971,6.1-20.442,8.025a12.744,12.744,0,0,0-6.948,8.151h0l-.007.029-.006.024L10.846,54.815,9.177,61.767a1.686,1.686,0,0,0,1.011,1.958l16.446,6.606v56.541a1.683,1.683,0,0,0,1.673,1.692H89.684a1.682,1.682,0,0,0,1.673-1.691V87.217a1.674,1.674,0,1,0-3.347,0v30.192H46.882a1.674,1.674,0,0,0,0,3.347H88.01V124.1H29.982v-3.348H41.317a1.674,1.674,0,0,0,0-3.347H29.982V48.667a1.685,1.685,0,0,0-.242-.87L21.3,33.841A8.045,8.045,0,0,1,23.21,32.7c3.424-1.457,13.7-5.376,18.18-7.08,1.076,9.89,8.755,17.844,17.726,17.844,8.943,0,16.6-7.907,17.716-17.756,4.6,1.747,14.582,5.559,17.95,6.992a8.072,8.072,0,0,1,1.906,1.143L88.253,47.8a1.684,1.684,0,0,0-.243.872V81.93a1.674,1.674,0,1,0,3.347,0V70.152l16.454-6.58A1.685,1.685,0,0,0,108.823,61.613Zm-82.188,4.46L12.674,60.526l.866-3.569L26.634,62.45v3.623Zm0-17.238V58.89l-12.29-5.155,3.78-15.575a9.283,9.283,0,0,1,.853-1.987ZM58.981,40.09c-6.662,0-13.768-6.08-14.547-15.306H73.527c-.78,9.226-7.885,15.306-14.546,15.306Zm32.376,8.745,7.657-12.662a10.057,10.057,0,0,1,.76,1.687v0c.012.033.022.062.03.09l0,.015q.01.033.018.06l.008.021.011.04.005.016.006.024,0,.012,0,.012,3.783,15.583L91.357,58.89Zm0,17.333V62.546l13.1-5.493.866,3.57Z"/>
  </g>
</svg>
