<svg id="Layer_1" data-name="Layer 1" xmlns="http://www.w3.org/2000/svg" viewBox="0 0 118 150">
  <defs>
    <style>
      .cls-1 {
        fill: #55e6c1;
      }
    </style>
  </defs>
  <g id="_000000ff" data-name="#000000ff">
    <path class="cls-1" d="M22.128,30.8a3.4,3.4,0,0,1,3.707-2.659q33.363.023,66.727.019a3.29,3.29,0,0,1,3.356,2.987c.118,1.7.011,3.4.046,5.1a40.291,40.291,0,0,1,4.8.111,3.389,3.389,0,0,1,2.583,3.573c0,7.373.012,14.745-.007,22.117a3.359,3.359,0,0,1-2.465,3.414,38.534,38.534,0,0,1-4.915.118q-.006,22.887,0,45.772c2.133.042,4.274-.091,6.4.065a6.31,6.31,0,0,1,5.4,5.459v3.033a2.539,2.539,0,0,1-2.618,1.951q-46.147.016-92.291,0a2.619,2.619,0,0,1-2.625-1.814v-3.09a6.269,6.269,0,0,1,5.414-5.543c2.126-.149,4.259-.019,6.389-.065.023-9.97-.034-19.941.027-29.911a1.41,1.41,0,0,1,2.77-.324C25,84.053,24.84,87,24.9,89.94q8.573.011,17.145,0c0-1.95.008-3.905,0-5.859a13.79,13.79,0,0,1-3.075-.157A2.377,2.377,0,0,1,37.6,80.758Q39,76.792,40.457,72.852a3.336,3.336,0,0,1,3.273-2.175q15.254-.029,30.506,0a3.359,3.359,0,0,1,3.3,2.168c.953,2.514,1.829,5.059,2.759,7.581a2.6,2.6,0,0,1-.389,2.949c-1.029,1.044-2.633.625-3.939.7-.027,1.955-.016,3.913-.012,5.868,2.054.064,4.119-.115,6.165.08a1.42,1.42,0,0,1-.035,2.693c-2.034.194-4.088.012-6.13.076-.011,3.284,0,6.569,0,9.853q8.578.006,17.153,0c0-3.284.007-6.569,0-9.853-1.894-.076-3.806.153-5.685-.106a1.415,1.415,0,0,1,.2-2.686c1.821-.153,3.654,0,5.479-.054.019-8.119,0-16.238.008-24.353Q59,65.58,24.9,65.59c-.041,3.273.069,6.553-.045,9.822a1.4,1.4,0,0,1-2.77.016c-.114-3.277,0-6.565-.046-9.845-1.531-.027-3.067.087-4.591-.061a3.317,3.317,0,0,1-2.789-3.463c-.019-7.373,0-14.749-.007-22.121a3.405,3.405,0,0,1,2.316-3.512,29.57,29.57,0,0,1,5.071-.176c.05-1.813-.11-3.638.092-5.448m2.842.244c-.141,1.73-.053,3.467-.073,5.2q27.924.006,55.85,0a1.473,1.473,0,1,1-.011,2.869q-30.873-.006-61.744,0-.726.018-1.451.088c-.023,7.833-.13,15.674.053,23.5.846.031,1.7.046,2.541.042,26.761-.038,53.518.058,80.275-.045.168-7.83.08-15.671.046-23.5-4.5-.232-9.022.065-13.522-.148a1.435,1.435,0,0,1,.019-2.736c2.042-.164,4.1-.015,6.15-.069-.027-1.737.08-3.478-.08-5.208Q59,30.993,24.97,31.046M43.109,73.938c-.922,2.415-1.76,4.861-2.652,7.288q4.24.012,8.477,0c.922-2.568,1.856-5.128,2.778-7.7-2.408.008-4.812.012-7.216,0-.442.088-1.239-.194-1.387.412m11.643-.4q-1.4,3.84-2.777,7.688,7.029.012,14.05,0-1.383-3.846-2.777-7.688-4.253-.006-8.5,0m11.552.011c.9,2.564,1.847,5.113,2.758,7.673,2.827.016,5.654.008,8.481,0-.937-2.507-1.76-5.059-2.766-7.54-2.774-.358-5.662-.057-8.473-.137M44.911,84.08q-.006,13.635,0,27.275,6.327,0,12.656,0,.012-13.635,0-27.271-6.325-.012-12.656,0m15.522,0q-.006,13.635,0,27.271,6.326.012,12.656,0,.006-13.641,0-27.275-6.327-.006-12.656,0M24.9,102.642q8.578.006,17.153,0,0-4.926,0-9.853-8.572,0-17.145,0c-.011,3.284,0,6.569,0,9.853m0,2.846q0,2.931,0,5.867,8.578,0,17.149,0c.008-1.954,0-3.909,0-5.863H24.9m51.053,0c0,1.954,0,3.909,0,5.863q8.573.012,17.149,0,0-2.937,0-5.867H75.95m-61.8,9.631c-1.136.964-1.109,2.545-1.067,3.905q45.914.006,91.83,0a5.726,5.726,0,0,0-.545-3.272,3.366,3.366,0,0,0-3.059-1.528q-41.541,0-83.087,0C16.84,114.228,15.22,114.026,14.154,115.119Z"/>
    <path class="cls-1" d="M30.551,42.064a8.253,8.253,0,0,1,7.521,1.65,1.414,1.414,0,0,1-.438,2.354c-.762.362-1.44-.266-2.065-.6a4.853,4.853,0,0,0-4.659-.458,1.8,1.8,0,0,0-.656,2.751c2.541,1.566,5.982,1.779,7.883,4.309a4.769,4.769,0,0,1-.922,6.488C34.1,61.22,29.054,60.222,26.452,57.3a1.421,1.421,0,0,1,.926-2.32c.983-.08,1.531.9,2.3,1.345,1.726,1.093,4.358,1.459,5.9-.141a1.862,1.862,0,0,0,.027-2.709c-2.293-2.023-6.042-1.787-7.9-4.366C25.922,46.552,27.637,42.8,30.551,42.064Z"/>
    <path class="cls-1" d="M42.77,42.03a1.4,1.4,0,0,1,2.244.96c.095,2.076,0,4.16.038,6.237q3.943,0,7.883,0c.034-2.077-.05-4.153.034-6.226a1.4,1.4,0,0,1,2.122-1.059c.8.431.716,1.421.712,2.191-.049,4.945.058,9.9-.049,14.843a1.421,1.421,0,0,1-2.774,0c-.11-2.289,0-4.583-.045-6.877-2.629.012-5.258-.038-7.887.031-.019,2.172.031,4.347-.015,6.515a1.419,1.419,0,0,1-2.172,1.242,1.664,1.664,0,0,1-.674-1.619q.006-7.247,0-14.493A1.906,1.906,0,0,1,42.77,42.03Z"/>
    <path class="cls-1" d="M65.93,41.946a9.194,9.194,0,1,1-6.359,5.109,9.241,9.241,0,0,1,6.359-5.109m.454,2.827a6.334,6.334,0,1,0,7.848,5.833A6.394,6.394,0,0,0,66.384,44.773Z"/>
    <path class="cls-1" d="M80.244,43.371a1.481,1.481,0,0,1,1.6-1.631c2.736.088,5.944-.583,8.119,1.532a5.758,5.758,0,0,1-.255,8.755c-1.821,1.6-4.366,1.345-6.614,1.341-.038,1.875.068,3.753-.046,5.624a1.425,1.425,0,0,1-2.77.015c-.1-5.208-.023-10.424-.038-15.636M83.1,44.583c0,1.969,0,3.943.019,5.913,1.657-.1,3.642.43,4.975-.854a2.871,2.871,0,0,0,.042-4.164C86.805,44.152,84.778,44.678,83.1,44.583Z"/>
  </g>
</svg>
