<svg id="Layer_1" data-name="Layer 1" xmlns="http://www.w3.org/2000/svg" viewBox="0 0 118 150">
  <defs>
    <style>
      .cls-1 {
        fill: #7fe2c3;
      }
    </style>
  </defs>
  <g id="_7fe2c3ff" data-name="#7fe2c3ff">
    <path class="cls-1" d="M51.424,23.767c5.059.008,10.109-.008,15.168.008,5.667,30.016,11.43,60.024,16.961,90.072,2.962-.024,5.931,0,8.893-.08-.048,4.146-.024,8.292-.008,12.447-9.077.032-18.154.016-27.223.008-.016-4.139.04-8.277-.056-12.415q3.037.024,6.083.032c-.736-3.538-1.472-7.076-1.953-10.662q-10.288.084-20.57,0c-.481,3.586-1.217,7.124-1.953,10.662,2.025-.008,4.058-.016,6.083-.032-.1,4.138-.04,8.276-.056,12.415-9.069.008-18.146.024-27.215-.008.008-4.155.032-8.3-.024-12.447,2.97.08,5.931.056,8.9.08C39.994,83.8,45.741,53.791,51.424,23.767m-.464,67.06c5.331.024,10.653-.112,15.984.08C64.047,76.851,61.661,62.684,59,48.588,56.347,62.668,53.745,76.763,50.96,90.827Z"/>
  </g>
</svg>
