<svg id="Layer_1" data-name="Layer 1" xmlns="http://www.w3.org/2000/svg" viewBox="0 0 118 150">
  <defs>
    <style>
      .cls-1 {
        fill: #55e6c1;
      }
    </style>
  </defs>
  <g>
    <path class="cls-1" d="M78.9,34.818l-.024-.024a1.992,1.992,0,1,0-2.822,2.813l.012.012a1.992,1.992,0,1,0,2.834-2.8Z"/>
    <path class="cls-1" d="M110.085,100.477a3.048,3.048,0,0,0-2.036-3.115l-1.07-.376a33.264,33.264,0,0,1-19-16.911,2.225,2.225,0,0,1,1.134-3.025l7.4-3.143A5.645,5.645,0,0,0,99.8,67.215a5.346,5.346,0,0,0-6.955-3.586c-2.077.741-4.727,1.688-6.286,2.247a.417.417,0,0,1-.415-.078l-.025-.021A.348.348,0,0,1,86,65.511l0-13.625a24.1,24.1,0,0,0-2.381-10.515,2,2,0,0,0-2.932-.78,2.042,2.042,0,0,0-.634,2.568,20.153,20.153,0,0,1,1.958,8.726l0,13.593a4.323,4.323,0,0,0,1.526,3.3l.025.022a4.432,4.432,0,0,0,4.356.794c1.558-.559,4.206-1.5,6.28-2.245a1.378,1.378,0,0,1,1.815,1.531,1.658,1.658,0,0,1-1.02,1.319l-7.437,3.159a6.211,6.211,0,0,0-3.162,8.436,37.232,37.232,0,0,0,20.482,18.65,23.489,23.489,0,0,1-7.923,2.353,4.845,4.845,0,0,0-4,3.334l-1.127,3.57-.02.012-6.29-1.15a12.511,12.511,0,0,0-9.08,1.81L66.367,116.89a9.618,9.618,0,0,1-5.235,1.546H56.859a9.61,9.61,0,0,1-5.235-1.546l-10.067-6.517a12.505,12.505,0,0,0-9.08-1.81l-6.29,1.15-.02-.012-1.127-3.57a4.845,4.845,0,0,0-4-3.334,23.5,23.5,0,0,1-7.923-2.353A37.232,37.232,0,0,0,33.6,81.794a6.208,6.208,0,0,0-3.162-8.436l-7.512-3.191a1.587,1.587,0,0,1-.848-2.05,1.358,1.358,0,0,1,1.718-.768c2.075.74,4.722,1.686,6.28,2.245a4.432,4.432,0,0,0,4.357-.795l.023-.02a4.321,4.321,0,0,0,1.527-3.3l0-13.583A20.325,20.325,0,0,1,56.306,31.564H61.6a20.115,20.115,0,0,1,8.989,2.09,2.042,2.042,0,0,0,2.582-.592,1.993,1.993,0,0,0-.734-2.939A24.064,24.064,0,0,0,61.6,27.579H56.35A24.325,24.325,0,0,0,32,51.882l0,13.629a.345.345,0,0,1-.124.266l-.023.02a.417.417,0,0,1-.416.079c-1.559-.559-4.209-1.506-6.285-2.247a5.343,5.343,0,0,0-6.761,3.022,5.586,5.586,0,0,0,2.984,7.211l7.51,3.188a2.225,2.225,0,0,1,1.134,3.025,33.262,33.262,0,0,1-19,16.911l-1,.352a3.118,3.118,0,0,0-1.981,2.016,3.035,3.035,0,0,0,1.171,3.38,25.162,25.162,0,0,0,11.34,4.025.841.841,0,0,1,.7.578l1.126,3.567a4.015,4.015,0,0,0,4.546,2.733l6.289-1.149a8.522,8.522,0,0,1,6.186,1.233l10.064,6.513a13.6,13.6,0,0,0,7.406,2.187h4.271a13.6,13.6,0,0,0,7.406-2.187l10.064-6.513a8.531,8.531,0,0,1,6.187-1.233l6.288,1.149a4.015,4.015,0,0,0,4.546-2.733l1.127-3.567a.84.84,0,0,1,.7-.578,25.223,25.223,0,0,0,11.294-3.992A3.077,3.077,0,0,0,110.085,100.477Z"/>
    <path class="cls-1" d="M38.05,89.462a1.993,1.993,0,0,0-2.773.5,42.939,42.939,0,0,1-6.722,7.593c-.556.5-1.131.983-1.709,1.447a1.993,1.993,0,1,0,2.5,3.106c.631-.507,1.258-1.038,1.864-1.579a46.976,46.976,0,0,0,7.347-8.3A1.992,1.992,0,0,0,38.05,89.462Z"/>
    <path class="cls-1" d="M41.264,83.352a2,2,0,0,0-2.661.92l-.01.022a1.993,1.993,0,0,0,3.589,1.732l.01-.022A1.99,1.99,0,0,0,41.264,83.352Z"/>
  </g>
</svg>
