<?xml version="1.0" encoding="UTF-8" standalone="no"?>
<!DOCTYPE svg PUBLIC "-//W3C//DTD SVG 1.1//EN" "http://www.w3.org/Graphics/SVG/1.1/DTD/svg11.dtd"><svg width="100%" height="100%" viewBox="0 0 2625 2820" version="1.1" xmlns="http://www.w3.org/2000/svg" xmlns:xlink="http://www.w3.org/1999/xlink" xml:space="preserve" xmlns:serif="http://www.serif.com/" style="fill-rule:evenodd;clip-rule:evenodd;stroke-linejoin:round;stroke-miterlimit:2;">
	<g id="Shadow">
		<g opacity="0.4">
			<path d="M1821.94,1917l-4.079,-6.716l252.333,-154.18l4.083,6.721l-252.337,154.175Z" style="fill:#3e5936;fill-rule:nonzero;" />
			<path d="M784.638,1297.44l-2.042,-1.229l-782.596,-469.083l0,-329.917l7.837,0l0,325.458l776.726,465.563l511.562,-318.063l0,-304.808l261.313,-154.671l-0.001,-314.512l262.613,-164.996l2.087,1.292l251.276,156.295l261.437,-157.537l270.467,162.267l-0,314.187l-7.842,0l0,-309.729l-262.612,-157.554l-261.513,157.579l-2.037,-1.263l-251.246,-156.27l-254.788,160.083l0,314.65l-261.308,154.671l-0,304.696l-519.333,322.891Z" style="fill:#3e5936;fill-rule:nonzero;" />
			<path d="M1037.41,2380.36l511.866,308.491l-209.608,130.875l14.821,0l209.804,-130.996l-519.025,-312.812l1.958,-627.229l-534.487,-320.767l-2.413,-297.221l791.746,-459.737l5.538,-3.363l-262.35,-159.508l-0,-314.063l265.195,-158.3l-62.758,-35.733l-15.887,0l63.041,35.892l-255.521,152.525l-1.908,1.146l0,322.966l255.054,155.075l-793.771,458.446l0,308.625l540.667,318.521l-1.962,627.167Z" style="fill:#3e5936;fill-rule:nonzero;" />
			<path d="M782.678,2225.42l-256.787,-149.454l-258.708,148.304l-3.892,-6.825l262.625,-150.563l256.687,149.4l520.092,-314.625l2.037,1.275l503.034,314.588l-4.15,6.671l-500.992,-313.305l-519.946,314.534Z" style="fill:#3e5936;fill-rule:nonzero;" />
			<path d="M2323.09,1913.05l-0,-315.167l-254.775,-149.429l-0,-330.166l-266.563,-137.638l3.946,-627.871l1.867,-1.141l265.762,-162.838l265.396,154.058l7.942,323.675l-271.125,161.746l-4.004,-6.758l267.187,-159.396l-7.733,-314.667l-257.559,-149.504l-259.92,159.254l-3.888,618.659l266.521,137.625l-0,330.454l254.787,149.421l0,306.125l268.517,-153.921l3.9,6.821l-280.258,160.658Z" style="fill:#3e5936;fill-rule:nonzero;" />
			<path d="M786.562,2515.77l-7.842,0l0,-611.75l1.934,-1.137l772.216,-455.013l0,-628.6l-772.225,-458.937l3.992,-6.763l776.067,461.221l-0,637.579l-1.925,1.15l-772.217,455l0,607.25Z" style="fill:#3e5936;fill-rule:nonzero;" />
			<path d="M1560.7,2376.83l-7.837,-0l-0,-617.792l-254.129,-156.975l-0,-320.758l-520.017,-312.617l0,-302.096l-527.208,-306.233l3.929,-6.804l531.121,308.504l-0,302.171l520.012,312.62l0,320.817l254.129,156.992l0,622.171Z" style="fill:#3e5936;fill-rule:nonzero;" />
			<path d="M2070.23,2066.94l-254.237,-151.05l-0.009,-2.237l-1.787,-625.15l-516.171,-312.784l4.042,-6.729l519.95,315.071l0.008,2.213l1.787,625.129l250.425,148.779l-4.008,6.758Z" style="fill:#3e5936;fill-rule:nonzero;" />
			<path d="M2620.91,2100.34l-552.595,-338.663l-0,-308.425l-248.346,154.158l-265.138,-153.883l3.913,-6.804l261.079,151.529l256.325,-159.112l-0,318.12l548.85,336.375l-4.088,6.705Z" style="fill:#3e5936;fill-rule:nonzero;" />
			<path d="M1303.97,2534.07l-7.841,0l-0,-311.012l-255.521,-156.129l4.083,-6.725l259.279,158.446l0,315.42Z" style="fill:#3e5936;fill-rule:nonzero;" />
			<path d="M255.405,977.913l-3.845,-6.862l274.345,-154.604l258.667,146.587l-3.862,6.846l-254.813,-144.4l-270.492,152.433Z" style="fill:#3e5936;fill-rule:nonzero;" />
			<path d="M784.629,667.714l-3.979,-6.779l518.087,-306.229l0,-318.892l7.842,0l0,323.388l-521.95,308.512Z" style="fill:#3e5936;fill-rule:nonzero;" />
			<path d="M1807.59,668.89l-248.279,-152.604l4.092,-6.704l244.329,150.175l264.475,-151.338l272.396,152.471l-3.821,6.867l-268.525,-150.309l-264.667,151.442Z" style="fill:#3e5936;fill-rule:nonzero;" />
			<path d="M2069.46,193.357l7.877,0.03l-1.189,319.562l-7.878,-0.029l1.19,-319.563Z" style="fill:#3e5936;" />
			<path d="M1563.43,1134.04l-4.15,-6.675l244.337,-152.45l4.146,6.675l-244.333,152.45Z" style="fill:#3e5936;fill-rule:nonzero;" />
			<path d="M529.817,820.961l-7.837,0l-0,-299.05l-258.738,145.838l-3.841,-6.854l270.416,-152.421l0,312.487Z" style="fill:#3e5936;fill-rule:nonzero;" />
			<path d="M1043.38,2381.51l-4.071,-6.729l256.837,-156.154l2.575,-310.109l-259.346,-151.283l3.938,-6.8l263.283,153.583l-2.658,319.063l-260.558,158.429Z" style="fill:#3e5936;fill-rule:nonzero;" />
			<path d="M1302.1,2224.2l-4.117,-6.688l254.125,-157.291l4.125,6.683l-254.133,157.296Z" style="fill:#3e5936;fill-rule:nonzero;" />
			<path d="M1042.69,512.92l2.575,933.266l-7.841,0.022l-2.575,-933.266l7.841,-0.022Z" style="fill:#3e5936;" />
			<path d="M778.674,1599.66l2.008,-306.854l7.838,0.058l-1.913,297.679l254.746,-148.9l1.971,1.159l261.313,153.67l-3.959,6.775l-259.341,-152.5l-262.663,148.913Z" style="fill:#3e5936;fill-rule:nonzero;" />
			<path d="M251.589,1282.05l-3.996,-6.771l261.642,-155.058l3.987,6.771l-261.633,155.058Z" style="fill:#3e5936;fill-rule:nonzero;" />
		</g>
	</g>
</svg>