<?xml version="1.0" encoding="UTF-8" standalone="no"?>
<!DOCTYPE svg PUBLIC "-//W3C//DTD SVG 1.1//EN" "http://www.w3.org/Graphics/SVG/1.1/DTD/svg11.dtd"
><svg width="100%" height="100%" viewBox="0 0 429 483" version="1.1" xmlns="http://www.w3.org/2000/svg"
 xmlns:xlink="http://www.w3.org/1999/xlink" xml:space="preserve" xmlns:serif="http://www.serif.com/" 
 style="fill-rule:evenodd;clip-rule:evenodd;stroke-miterlimit:10;">
	<g id="Layer-1" serif:id="Layer 1"></g>
	<g id="Lime">
		<path d="M291.113,372.744l-39.048,-24.78l0.751,-48.059l-40.549,-24.029l39.798,-22.527l0.751,-50.312l-39.798,-25.531l-0.009,-46.26l40.558,-25.078l-0,-48.81l39.799,-25.531l38.297,25.531l42.052,-25.531l41.3,25.531l-0,48.81" style="fill:none;fill-rule:nonzero;stroke:#05d166;stroke-width:2px;" />
		<path d="M332.414,154.978l42.803,-24.03l-42.052,-24.029l-1.502,-49.561l42.403,23.155l0.915,49.81" style="fill:none;fill-rule:nonzero;stroke:#05d166;stroke-width:2px;" />
		<path d="M332.276,348.004l-39.573,-23.783l40.494,-24.264l-0,-49.356l-39.896,24.686l0.342,-48.404l-40.827,-23.847" style="fill:none;fill-rule:nonzero;stroke:#05d166;stroke-width:2px;" />
		<path d="M251.75,396.085l0.315,-48.121l-39.986,23.402l1.34,-48.638l38.957,25.087" style="fill:none;fill-rule:nonzero;stroke:#05d166;stroke-width:2px;" />
		<path d="M209.06,472.153l44.469,-27.677l-81.079,-47.666l39.629,-25.444l-0.066,48.963" style="fill:none;fill-rule:nonzero;stroke:#05d166;stroke-width:2px;" />
		<path d="M212.078,371.366l-39.425,-24.407l40.765,-24.232l-41.592,-22.773l0.624,96.856" style="fill:none;fill-rule:nonzero;stroke:#05d166;stroke-width:2px;" />
		<path d="M292.703,324.221l0.599,-48.934l-41.237,-21.939" style="fill:none;fill-rule:nonzero;stroke:#05d166;stroke-width:2px;" />
		<path d="M131.256,417.641l0.604,-46.467l40.793,-24.216" style="fill:none;fill-rule:nonzero;stroke:#05d166;stroke-width:2px;" />
		<path d="M51.637,372.414l40.267,-23.008l39.957,21.769l-0.605,-48.448l40.57,-22.773l40.441,-24.078l-40.132,-24.886l-39.651,23.103l-0.923,-46.196l-41.629,-25.725l-41.344,23.007" style="fill:none;fill-rule:nonzero;stroke:#05d166;stroke-width:2px;" />
		<path d="M171.826,299.954l-83.402,-50.045l1.508,-47.737l41.633,-24.376l39.687,-23.888l0.68,48.264l41.483,23.25l-1.149,50.454" style="fill:none;fill-rule:nonzero;stroke:#05d166;stroke-width:2px;" />
		<path d="M172.134,250.99l-0.202,-48.818l-40.371,25.725" style="fill:none;fill-rule:nonzero;stroke:#05d166;stroke-width:2px;" />
		<path d="M171.933,202.171l-40.367,-24.376l0.61,-46.881l-39.661,-24.706l-0,48.482l39.078,22.86" style="fill:none;fill-rule:nonzero;stroke:#05d166;stroke-width:2px;" />
		<path d="M10.05,104.46l-0,51.187l39.753,23.395l40.129,23.129" style="fill:none;fill-rule:nonzero;stroke:#05d166;stroke-width:2px;" />
		<path d="M49.803,179.042l42.711,-24.351" style="fill:none;fill-rule:nonzero;stroke:#05d166;stroke-width:2px;" />
		<path d="M92.515,106.208l-41.491,23.21" style="fill:none;fill-rule:nonzero;stroke:#05d166;stroke-width:2px;" />
		<path d="M49.948,82.477l43.501,24.117" style="fill:none;fill-rule:nonzero;stroke:#05d166;stroke-width:2px;" />
		<path d="M132.177,82.175l38.945,24.727l-38.946,24.012" style="fill:none;fill-rule:nonzero;stroke:#05d166;stroke-width:2px;" />
		<path d="M213.018,177.505l-42.089,25.718" style="fill:none;fill-rule:nonzero;stroke:#05d166;stroke-width:2px;" />
		<path d="M418.625,352.145l-46.991,-28.018l43.62,-24.924" style="fill:none;fill-rule:nonzero;stroke:#05d166;stroke-width:2px;" />
		<path d="M333.197,299.958l38.437,24.17l1.219,-49.599l-39.656,-23.927l-0,-50.525l-41.772,-20.465l-39.693,24.405l0.018,-49.588l-38.741,-23.183l-41.757,22.662" style="fill:none;fill-rule:nonzero;stroke:#05d166;stroke-width:2px;" />
		<path d="M331.663,57.358l-40.27,24.516l0.005,49.223l41.767,-24.178" style="fill:none;fill-rule:nonzero;stroke:#05d166;stroke-width:2px;" />
		<path d="M291.424,179.612l-0.026,-48.515l-37.831,-24.929" style="fill:none;fill-rule:nonzero;stroke:#05d166;stroke-width:2px;" />
		<path d="M213.009,131.246l-41.887,-24.344l0.869,47.151" style="fill:none;fill-rule:nonzero;stroke:#05d166;stroke-width:2px;" />
		<path d="M171.717,10.05l41.699,22.825l-1.22,49.476l-41.074,24.551l0.401,-50.173l40.791,-24.7" style="fill:none;fill-rule:nonzero;stroke:#05d166;stroke-width:2px;" />
	</g>
</svg>