<svg id="Layer_1" data-name="Layer 1" xmlns="http://www.w3.org/2000/svg" viewBox="0 0 118 150">
  <defs>
    <style>
      .cls-1 {
        fill: #55e6c1;
      }
    </style>
  </defs>
  <path class="cls-1" d="M56.285,25.571a49.468,49.468,0,1,0,52.144,52.143ZM97.888,73A45.309,45.309,0,0,1,61,36.111ZM66.362,62.779,82.816,91.571H49.908Zm-21.2,28.792h-9.8L45.75,74.262l4.767,7.94ZM91.1,107.04a45.36,45.36,0,1,1-36.393-77.2l1.6,1.6a49.306,49.306,0,0,0,8.779,25.193l-12.23,21.4L45.75,66.181,28.083,95.626H89.918L72.359,64.9a49.267,49.267,0,0,0,30.218,12.8l1.6,1.6A45.128,45.128,0,0,1,91.1,107.04Z"/>
</svg>
