<svg id="Layer_1" data-name="Layer 1" xmlns="http://www.w3.org/2000/svg" viewBox="0 0 118 150">
  <defs>
    <style>
      .cls-1 {
        fill: #55e6c1;
      }
    </style>
  </defs>
  <g>
    <path class="cls-1" d="M44.016,51.106a2.149,2.149,0,0,0-2.035-1.551h-.027a2.148,2.148,0,0,0-2.046,1.5L31.074,78.891a2.154,2.154,0,0,0,.941,2.491,2.2,2.2,0,0,0,1.155.3H49.925a2.219,2.219,0,0,0,1.134-.288,2.148,2.148,0,0,0,.987-2.452ZM36.045,77.472l5.812-18.315,5.282,18.315Zm0,.038"/>
    <g>
      <path class="cls-1" d="M88.987,82.283a2.149,2.149,0,0,0-4.113-.054l-2.7,8.509a2.149,2.149,0,0,0,2.048,2.8h5.1a2.223,2.223,0,0,0,1.135-.288,2.152,2.152,0,0,0,.987-2.457Zm0-.065"/>
      <path class="cls-1" d="M112.575,117.837,95.426,58.387a8.522,8.522,0,0,0-8.123-6.2h-.16A8.512,8.512,0,0,0,79,58.146L68.7,90.613,50.461,27.384a8.495,8.495,0,0,0-8.091-6.173,8.6,8.6,0,0,0-8.259,5.958l-28.622,90.2a8.542,8.542,0,1,0,16.284,5.166l8.868-27.946H52.073l8.472,28.521a6.427,6.427,0,0,0,.964,1.985,8.573,8.573,0,0,0,6.768,3.468l.415-.006a8.5,8.5,0,0,0,7.844-5.915l5.141-16.2h9.762L96.1,122.591a8.575,8.575,0,0,0,16.478-4.754ZM61.752,112.71l-6-20.78a2.147,2.147,0,0,0-2.065-1.553H29.042a2.147,2.147,0,0,0-2.048,1.5l-9.359,29.494a4.259,4.259,0,1,1-8.119-2.577L38.187,28.435a4.28,4.28,0,0,1,4.052-2.971H42.3a4.236,4.236,0,0,1,4.036,3.078L66.4,98.074Zm46.305,9.355a4.259,4.259,0,0,1-7.822-.879l-5.1-17.668a2.149,2.149,0,0,0-2.065-1.553H80.155a2.15,2.15,0,0,0-2.048,1.5l-5.657,17.83a4.259,4.259,0,0,1-3.929,2.966l-.107,0h-.027a.193.193,0,0,0-.034,0,4.294,4.294,0,0,1-1.252-.2,4.259,4.259,0,0,1-2.771-5.348L83.154,59.391a4.245,4.245,0,0,1,4.06-2.971h.056A4.235,4.235,0,0,1,91.307,59.5l17.113,59.326a4.233,4.233,0,0,1-.363,3.24Zm0,.025"/>
    </g>
    <path class="cls-1" d="M44.694,36.269a2.149,2.149,0,0,0-1.425,2.685l3.1,10.1a2.148,2.148,0,1,0,4.107-1.261l-3.1-10.1a2.148,2.148,0,0,0-2.684-1.424Zm0,0"/>
    <path class="cls-1" d="M41.292,32.508A2.149,2.149,0,0,0,45.4,31.247l-.726-2.364a2.149,2.149,0,0,0-4.109,1.261Zm0,0"/>
  </g>
</svg>
