<svg id="Layer_1" data-name="Layer 1" xmlns="http://www.w3.org/2000/svg" viewBox="0 0 118 150">
  <defs>
    <style>
      .cls-1 {
        fill: #55e6c1;
      }
    </style>
  </defs>
  <g>
    <g id="_000000ff" data-name="#000000ff">
      <path class="cls-1" d="M9.9,42.89a9.16,9.16,0,0,1,3.633-.383q32.777,0,65.554,0a7.154,7.154,0,0,1,6.448,4.107c3.066,6.613,6.106,13.242,9.174,19.855,4.172,1.852,8.346,3.695,12.513,5.561a7.235,7.235,0,0,1,4.211,6.069V93.467a5.407,5.407,0,0,1-3.21,4.539,10.19,10.19,0,0,1-4.164.446,10.923,10.923,0,0,1-4.709,7.265,10.737,10.737,0,0,1-10.126.926,10.886,10.886,0,0,1-6.432-8.189q-21.982-.006-43.967,0a10.928,10.928,0,0,1-4.779,7.315,10.755,10.755,0,0,1-9.839.966,10.881,10.881,0,0,1-6.645-8.281c-2.027-.024-4.055.041-6.081-.028a5.383,5.383,0,0,1-4.918-4.873V47.468A5.4,5.4,0,0,1,9.9,42.89m.061,5.082q-.006,19.914,0,39.828c1.872.014,3.746-.023,5.619.014a1.687,1.687,0,0,1,.03,3.371c-1.882.043-3.766,0-5.649.017.011.745-.043,1.493.037,2.236a1.915,1.915,0,0,0,1.9,1.608c1.89.017,3.781,0,5.671,0a10.842,10.842,0,0,1,6.952-8.4,10.733,10.733,0,0,1,9.977,1.4,10.886,10.886,0,0,1,4.326,7.007q21.988.006,43.977,0a10.767,10.767,0,0,1,21.257,0c1.11-.09,2.433.31,3.351-.508.938-.85.553-2.228.629-3.342-1.063-.091-2.405.327-3.21-.59a1.709,1.709,0,0,1,.672-2.69,11.136,11.136,0,0,1,2.538-.118q0-1.928,0-3.851c-1.811-.006-3.622.006-5.432,0a1.728,1.728,0,0,1-1.479-.688,3.484,3.484,0,0,1-.34-2.1A16.165,16.165,0,0,1,101,77.419a5.633,5.633,0,0,1,2.6-3.285c-3.529-1.526-7.009-3.185-10.56-4.646-7.218-.071-14.443.015-21.66-.043a7.167,7.167,0,0,1-6.811-6.708c-.039-2.607-.022-5.216-.01-7.824a3.515,3.515,0,0,1,3.461-3.347c5.352-.014,10.707,0,16.059-.006-.541-1.169-1.068-2.345-1.621-3.506a3.73,3.73,0,0,0-2.953-2.116c-.686-.062-1.375-.025-2.061-.031q-32.06,0-64.122,0a13.961,13.961,0,0,0-1.853.049,1.94,1.94,0,0,0-1.506,2.016m57.994,6.992c-.014,2.511-.023,5.025,0,7.536A3.811,3.811,0,0,0,71.8,66.088q.009-5.563,0-11.126c-1.28,0-2.56-.006-3.84,0m7.238,0q0,5.551,0,11.1,7.79,0,15.577,0-2.556-5.553-5.122-11.1-5.226,0-10.455,0m29.54,22.559c-.8.795-.492,2.02-.547,3.03q1.923,0,3.849,0c.016-1.549.188-3.3-.959-4.529a23.16,23.16,0,0,0-2.343,1.5m-77.4,11.925a7.356,7.356,0,1,0,7.913,5.211,7.391,7.391,0,0,0-7.913-5.211m65.148.011a7.356,7.356,0,1,0,8.058,5.417A7.339,7.339,0,0,0,92.482,89.455Z"/>
      <path class="cls-1" d="M40.644,87.83c13.289-.069,26.582-.008,39.871-.03A1.761,1.761,0,0,1,82.4,89.137a1.7,1.7,0,0,1-1.667,2.054c-13.189.023-26.375,0-39.564.013a1.789,1.789,0,0,1-1.9-1.174A1.7,1.7,0,0,1,40.644,87.83Z"/>
      <path class="cls-1" d="M27.343,93.578a3.284,3.284,0,1,1-2.43,3.142A3.313,3.313,0,0,1,27.343,93.578Z"/>
      <path class="cls-1" d="M92.677,93.551a3.285,3.285,0,1,1-2.532,3.154A3.312,3.312,0,0,1,92.677,93.551Z"/>
    </g>
    <g>
      <path class="cls-1" d="M41.379,79.713a22.965,22.965,0,0,1-7.533,3.571A20.945,20.945,0,0,1,22.9,76.461a21.688,21.688,0,0,1-4.319-9.652,34.308,34.308,0,0,1-.06-11.911,20.2,20.2,0,0,0,4.706.192.592.592,0,0,0-.093-1.181,19.189,19.189,0,0,1-4.978-.275.592.592,0,0,0-.685.452A34.593,34.593,0,0,0,17.415,67a22.853,22.853,0,0,0,4.556,10.192A22.144,22.144,0,0,0,33.69,84.47a.59.59,0,0,0,.312,0,24.222,24.222,0,0,0,8.082-3.8.592.592,0,1,0-.705-.952Z"/>
      <path class="cls-1" d="M50.217,54.086a.593.593,0,0,0-.685-.452,17.848,17.848,0,0,1-11.249-1.443,14.749,14.749,0,0,1-4-2.8.593.593,0,0,0-.838-.037.431.431,0,0,0-.037.037,16.19,16.19,0,0,1-8.018,4.19.592.592,0,1,0,.246,1.159h0a17.724,17.724,0,0,0,8.21-4.12,16.9,16.9,0,0,0,3.861,2.607A18.941,18.941,0,0,0,49.168,54.9a34.986,34.986,0,0,1,.424,8.138,27.254,27.254,0,0,1-1.614,7.8,19.566,19.566,0,0,1-4.839,7.408.592.592,0,1,0,.815.86,20.742,20.742,0,0,0,5.14-7.869,28.454,28.454,0,0,0,1.682-8.15A34.387,34.387,0,0,0,50.217,54.086Z"/>
      <path class="cls-1" d="M32.811,53.96a.59.59,0,0,0-.6.012,20.086,20.086,0,0,1-10.477,2.922c-.426,0-.862-.014-1.3-.04a.591.591,0,0,0-.625.529,32.007,32.007,0,0,0,.338,9.253c.02.106.043.21.065.315l.019.092a.594.594,0,0,0,.58.469h11.7a.593.593,0,0,0,.593-.593V54.477a.594.594,0,0,0-.3-.517Zm-.849,12.016H21.335a30.555,30.555,0,0,1-.361-8.263c.267.01.533.014.8.014a21.272,21.272,0,0,0,10.191-2.575Z"/>
      <path class="cls-1" d="M47.571,57.666a.576.576,0,0,0-.607-.515c-.419.026-.841.039-1.255.039-.649,0-1.3-.032-1.949-.095a.576.576,0,0,0-.119,1.146h.008c.681.066,1.374.1,2.06.1.254,0,.511,0,.769-.014a29.866,29.866,0,0,1-.346,8.032H35.8V55.838a20.408,20.408,0,0,0,5.59,2.059.576.576,0,1,0,.237-1.127,19.275,19.275,0,0,1-6.1-2.421.576.576,0,0,0-.876.491v12.1a.576.576,0,0,0,.576.576H46.6a.576.576,0,0,0,.563-.458l.019-.088c.011-.05.022-.1.032-.15A31.132,31.132,0,0,0,47.571,57.666Z"/>
      <path class="cls-1" d="M32.538,69.048H21.877a.575.575,0,0,0-.576.575.564.564,0,0,0,.031.187A18.3,18.3,0,0,0,24.4,75.451c.058.071.117.141.177.211l.053.062a.575.575,0,1,0,.878-.744l-.054-.065c-.054-.063-.108-.126-.16-.19A16.876,16.876,0,0,1,22.7,70.2h9.263v9.378a17.629,17.629,0,0,1-4.912-3.021.576.576,0,1,0-.763.863,19.118,19.118,0,0,0,6.051,3.543.576.576,0,0,0,.74-.341.561.561,0,0,0,.036-.2v-10.8a.575.575,0,0,0-.576-.575Z"/>
      <path class="cls-1" d="M46.692,69.3a.592.592,0,0,0-.482-.248H35.242a.592.592,0,0,0-.592.592h0V80.75a.592.592,0,0,0,.592.593h0a.582.582,0,0,0,.206-.037,18.647,18.647,0,0,0,8.114-5.6,18.806,18.806,0,0,0,3.208-5.873.6.6,0,0,0-.079-.536Zm-4.079,5.625A17.18,17.18,0,0,1,35.8,79.848V70.2H45.33A17.329,17.329,0,0,1,42.613,74.921Z"/>
    </g>
  </g>
</svg>
