<svg id="Layer_1" data-name="Layer 1" xmlns="http://www.w3.org/2000/svg" viewBox="0 0 118 150">
  <defs>
    <style>
      .cls-1 {
        fill: #55e6c1;
      }
    </style>
  </defs>
  <g id="_000000ff" data-name="#000000ff">
    <path class="cls-1" d="M11.661,35.612a5.666,5.666,0,0,1,5.529-4.981q40.5-.051,81.013-.019c1.753.034,3.65-.218,5.24.7a5.823,5.823,0,0,1,2.9,4.276v78.786a5.843,5.843,0,0,1-2.681,4.19c-1.624,1.043-3.632.8-5.466.825q-40.32-.023-80.64-.007a5.728,5.728,0,0,1-5.891-4.964V35.612m3.72.533c-.063,3.088,0,6.18-.022,9.268h87.282c-.022-3.092.041-6.187-.022-9.275a1.889,1.889,0,0,0-2.168-1.82H17.571a1.89,1.89,0,0,0-2.19,1.827m-.022,12.967v44.38h87.282q.006-22.19,0-44.38H15.359m0,48.078c.019,5.563-.033,11.125.022,16.684a1.888,1.888,0,0,0,2.16,1.808q40.337.006,80.68,0a17.075,17.075,0,0,0,3.222-.129,1.967,1.967,0,0,0,1.2-2.079c.007-5.429,0-10.858,0-16.288Z"/>
    <path class="cls-1" d="M23.936,38.142a1.846,1.846,0,1,1-.459,3.184A1.859,1.859,0,0,1,23.936,38.142Z"/>
    <path class="cls-1" d="M35.049,38.135a1.848,1.848,0,1,1-.455,3.21A1.861,1.861,0,0,1,35.049,38.135Z"/>
    <path class="cls-1" d="M69.426,38.142a1.846,1.846,0,1,1-.448,3.192A1.859,1.859,0,0,1,69.426,38.142Z"/>
    <path class="cls-1" d="M76.837,38.138c4.142-.288,8.329-.04,12.486-.122,1.479.034,2.966-.085,4.442.06a1.834,1.834,0,0,1,1.094,2.91c-.588.843-1.7.721-2.6.74-5.044-.067-10.1.081-15.141-.07A1.846,1.846,0,0,1,76.837,38.138Z"/>
    <path class="cls-1" d="M47.235,58.487a2.414,2.414,0,0,1,2.035.325Q59.877,64.126,70.5,69.427A2.02,2.02,0,0,1,71.9,71.661c-.126.869-.965,1.294-1.661,1.653C63.15,76.835,56.082,80.4,49,83.921a1.955,1.955,0,0,1-2.374-.2,2.608,2.608,0,0,1-.574-2.049c.019-7.038,0-14.076.011-21.11a1.969,1.969,0,0,1,1.176-2.071M49.75,63.2q.012,8.1,0,16.21c5.1-2.515,10.182-5.093,15.278-7.626.333-.082,1.051-.618.307-.792C60.146,68.384,54.954,65.773,49.75,63.2Z"/>
    <path class="cls-1" d="M38.922,104.58a5.638,5.638,0,0,1,10.573,0q21.77.018,43.541,0a1.878,1.878,0,1,1,.008,3.7q-21.775.011-43.549.007a5.638,5.638,0,0,1-10.573,0c-4.782-.029-9.564.034-14.343-.026a1.839,1.839,0,0,1-1.59-2.725,2.007,2.007,0,0,1,1.979-.951c4.652-.007,9.3.011,13.954-.007m4.611.137a1.846,1.846,0,1,0,2.482,2.089A1.859,1.859,0,0,0,43.533,104.717Z"/>
  </g>
</svg>
