<svg id="Layer_1" data-name="Layer 1" xmlns="http://www.w3.org/2000/svg" viewBox="0 0 104 93.303">
  <defs>
    <style>
      .cls-1 {
        fill: #55e6c1;
      }
    </style>
  </defs>
  <path class="cls-1" d="M99.864,32.619V7.34A7.348,7.348,0,0,0,92.525,0H7.34A7.348,7.348,0,0,0,0,7.34v51.5a7.349,7.349,0,0,0,7.34,7.34H31.482l-2.764,2.975h-4.14a1.7,1.7,0,1,0,0,3.408H48.292V89A4.311,4.311,0,0,0,52.6,93.3H70.919A4.311,4.311,0,0,0,75.225,89V85.535H98.162A5.846,5.846,0,0,0,104,79.695V38.205a5.849,5.849,0,0,0-4.136-5.586Zm.728,5.586v.465H61.4v-.465a2.435,2.435,0,0,1,2.431-2.432H98.162A2.434,2.434,0,0,1,100.592,38.205ZM70.919,52.6H61.4V42.079h39.2V75.821H75.225V56.909A4.311,4.311,0,0,0,70.919,52.6Zm.9,6.546H51.7v-2.24a.9.9,0,0,1,.9-.9H70.919a.9.9,0,0,1,.9.9v2.24Zm24.639-50.1V32.365H63.827a5.847,5.847,0,0,0-5.84,5.84V52.6H52.6a4.311,4.311,0,0,0-4.306,4.3H3.408V9.044ZM51.7,62.558H71.817V83.349H51.7ZM7.339,3.408H92.525a3.931,3.931,0,0,1,3.536,2.227H3.8A3.934,3.934,0,0,1,7.339,3.408ZM3.7,60.312H48.292v2.457H7.339A3.936,3.936,0,0,1,3.7,60.312Zm29.673,8.84,2.763-2.975H48.292v2.975ZM70.919,89.9H52.6a.9.9,0,0,1-.9-.9v-2.24H71.817V89A.9.9,0,0,1,70.919,89.9Zm27.243-7.768H75.225v-2.9h25.366v.465A2.433,2.433,0,0,1,98.162,82.127Z"/>
</svg>
